<svg width="216" height="215" fill="none" xmlns="http://www.w3.org/2000/svg"><path d="M202.991 92.88s4.855 38.172-19.762 68.535-63.959 39.241-95.656 47.33c-31.696 8.089-59.492-7.679-67.985-37.434-8.493-29.755 14.617-43.052 22.473-80.055 7.856-37.003 4.874-48.187 29.688-74.495 24.814-26.307 70.86-21.011 99.668 11.423 28.807 32.434 31.574 64.697 31.574 64.697z" fill="#DD4D32"/><path opacity=".8" d="M202.991 92.88s4.855 38.172-19.762 68.535-63.959 39.241-95.656 47.33c-31.696 8.089-59.492-7.679-67.985-37.434-8.493-29.755 14.617-43.052 22.473-80.055 7.856-37.003 4.874-48.187 29.688-74.495 24.814-26.307 70.86-21.011 99.668 11.423 28.807 32.434 31.574 64.697 31.574 64.697z" fill="#fff"/><path d="M12.21 165.423h197.226M12.21 124.019h197.226M12.21 82.61h197.226M12.21 41.2h197.226M57.053 17.688v147.838M175.599 17.688v147.838M61.452 72.49l-1.463 1.714M86.452 43.252l-23.228 27.17M87.9 47.674L74.85 62.548M180.668 72.49l-1.463 1.714M205.668 43.252l-23.228 27.17M207.117 47.674l-13.051 14.874M9.25 156.111l-1.463 1.715M34.25 126.868l-23.229 27.175M35.699 131.29l-13.05 14.874M28.466 37.114l-1.468 1.715M53.461 7.871l-23.228 27.17M54.915 12.293l-13.05 14.874M137.098 37.114l-1.468 1.715M162.093 7.871l-23.228 27.17M163.547 12.293l-13.051 14.874M103.505 115.505l-1.463 1.715M128.505 86.267l-23.228 27.17M129.954 90.69l-13.051 14.873" stroke="#263238" stroke-width="1.018" stroke-miterlimit="10"/><path d="M90 59.737h27.373c2.401 0 4.704 1.057 6.401 2.94 1.698 1.883 2.652 4.436 2.652 7.099v87.642H80.947V69.77c.001-2.661.956-5.213 2.653-7.095 1.698-1.881 4-2.938 6.4-2.938zM131.789 208.703l-24.022-7.835v-8.721h-1.355v-32.195h-4.267v32.195h-1.355v8.487l-24.022 8.069v1.276h.323a2.742 2.742 0 00-.279 1.226c-.001.45.103.893.303 1.285.2.392.488.72.837.951.348.231.745.357 1.15.367.407.009.808-.099 1.165-.314s.657-.529.871-.911c.215-.383.335-.821.35-1.271a2.828 2.828 0 00-.262-1.296 2.52 2.52 0 00-.807-.982l.049-.054 22.02-2.936v3.517c-.282.379-.461.84-.516 1.328-.055.488.017.983.206 1.428.189.444.489.82.863 1.083a2.17 2.17 0 001.252.403c.444 0 .878-.139 1.252-.403.375-.263.674-.639.863-1.083.19-.445.261-.94.206-1.428a2.74 2.74 0 00-.515-1.328v-3.517l21.971 2.931a2.507 2.507 0 00-.914 1.096c-.201.457-.277.97-.218 1.474.059.504.251.978.551 1.362.301.385.696.663 1.138.8.441.137.909.127 1.346-.028a2.35 2.35 0 001.109-.847c.287-.397.463-.878.505-1.384a2.832 2.832 0 00-.268-1.464h.489l-.019-1.281z" fill="#263238" stroke="#263238" stroke-width="1.018" stroke-linecap="round" stroke-linejoin="round"/><path d="M125.016 157.364H83.198c-1.967 0-3.562 1.768-3.562 3.95v3.978c0 2.182 1.595 3.95 3.562 3.95h41.818c1.968 0 3.563-1.768 3.563-3.95v-3.978c0-2.182-1.595-3.95-3.563-3.95z" fill="#fff" stroke="#263238" stroke-width="1.018" stroke-linecap="round" stroke-linejoin="round"/><path d="M121.513 138.1H87.519v20.962h33.994V138.1zM101.401 77.769l-5.206 2.263s1.884 12.975 4.404 19.67c2.52 6.697 11.7 17.327 11.7 17.327s4.756-7.7 6.415-13.81c1.659-6.11-.074-23.274-.074-23.274a10.264 10.264 0 00-3.851-1.508c-2.363-.418-13.388-.668-13.388-.668z" fill="#fff" stroke="#263238" stroke-width="1.018" stroke-linecap="round" stroke-linejoin="round"/><path d="M106.461 86.896l2.407 5.128-3.993 9.773 6.416 10.712 3.924-9.795-4.756-10.88 2.49-4.775-3.547-3.934-2.941 3.77z" fill="#263238" stroke="#263238" stroke-width="1.018" stroke-linecap="round" stroke-linejoin="round"/><path d="M102.16 77.183l-1.664.504-1.585 3.093 3.914 12.308 6.42-7.364 7.017 7.95s.832-12.389.832-13.81c0-1.422-1.13-1.927-1.957-2.171-.827-.245-12.977-.51-12.977-.51z" fill="#fff" stroke="#263238" stroke-width="1.018" stroke-linecap="round" stroke-linejoin="round"/><path d="M100.496 77.688s.719 11.13 4.893 20.924c2.158 5.046 6.19 12.139 6.19 11.889 0-.249 3.998-13.392 4.15-17.831.152-4.439.905-13.897.905-13.897s7.741 3.419 9.591 4.607c2.868 1.84 6.489 2.257 6.415 4.433-.029.793.46 5.97 1.082 12.28.098 1.004 4.957 9.616 5.059 10.658 1.043 10.511-2.495 14.939-2.671 14.988-.299.081-6.567 0-6.567 0s3.401 17.158 3.914 18.081l.529.917h-26.967l-1.126-3.766-1.003 3.766H77.17l3.699-18.667h-4.076s-1.057-2.345.376-11.135c1.434-8.791 6.269-30.806 6.269-31.555 0-.749 15.472-3.853 17.058-5.692z" fill="#DD4D32" stroke="#263238" stroke-width="1.018" stroke-linecap="round" stroke-linejoin="round"/><path d="M106.26 121.18l-.367 19.79" stroke="#263238" stroke-width="1.018" stroke-linecap="round" stroke-linejoin="round"/><path d="M116.649 113.681c4.458-4.602 6.42-13.81 6.42-13.81l-4.003-1.927 3.851-2.094-3.327-15.737c-1.884-1.802-2.99-1.753-2.936-1.357 0 0-.754 9.459-.905 13.897-.152 4.44-4.16 17.599-4.16 17.848 0 .25-4.438-6.653-6.19-11.89-4.081-12.187-4.864-19.534-4.981-20.94a.146.146 0 00-.02-.065.123.123 0 00-.047-.045.107.107 0 00-.119.012c-.563.37-1.957.673-2.936 1.628a163.71 163.71 0 00-.871 8.78c-.45 6.447-.45 9.29-.45 9.29l5.206 1.428-3.7 2.344s4.077 4.601 7.473 8.036c3.396 3.435 5.657 4.683 5.657 4.683l-4.351 7.418s5.936-2.892 10.389-7.499z" fill="#DD4D32" stroke="#263238" stroke-width="1.018" stroke-linecap="round" stroke-linejoin="round"/><path d="M101.401 71.659v7.2s1.664 6.024 7.551 6.442c6.19.445 7.247-6.192 7.247-6.192v-6.365s-11.461 3.099-14.798-1.085z" fill="#fff" stroke="#263238" stroke-width="1.018" stroke-linecap="round" stroke-linejoin="round"/><path d="M117.632 61.945s.226-3.255 2.036-3.255c1.811 0 1.816 3.765 1.36 5.274-.455 1.508-2.794 2.594-3.547 1.422" fill="#fff"/><path d="M117.632 61.945s.226-3.255 2.036-3.255c1.811 0 1.816 3.765 1.36 5.274-.455 1.508-2.794 2.594-3.547 1.422" stroke="#263238" stroke-width="1.018" stroke-linecap="round" stroke-linejoin="round"/><path d="M110.121 45.65s-6.669-.272-8.974 1.628c-2.305 1.899-1.82 6.994-1.82 8.606s1.091 15.465 1.82 17.484c.729 2.019 6.038 5.09 10.667 3.907 4.629-1.183 6.063-4.84 6.303-6.723.24-1.883.245-16.28 0-20.035-.245-3.755-4.727-4.466-7.996-4.867z" fill="#fff" stroke="#263238" stroke-width="1.018" stroke-linecap="round" stroke-linejoin="round"/><path d="M118.185 51.988c0-.597-.039-1.086-.068-1.498-.24-3.766-4.727-4.439-8.001-4.84 0 0-6.669-.272-8.974 1.628-2.305 1.899-1.82 6.994-1.82 8.606 0 .646.176 3.256.435 6.273a.786.786 0 00.77.042.87.87 0 00.317-.266.993.993 0 00.176-.395c.489-1.481-.24-2.821.367-4.704.606-1.883.846-3.094 2.304-4.038a11.855 11.855 0 012.907-1.34s-3.029 3.896 3.641 3.76c4.33-.108 6.772-1.107 7.946-3.228z" fill="#263238" stroke="#263238" stroke-width="1.018" stroke-linecap="round" stroke-linejoin="round"/><path d="M111.442 58.852s1.131 5.943.074 6.512c-1.057.57-1.732.754-2.643-1.253M105.556 65.293s-.23 2.768 4.829 2.345" stroke="#263238" stroke-width="1.018" stroke-linecap="round" stroke-linejoin="round"/><path d="M107.141 58.977c0 .575-.22 1.047-.489 1.047s-.49-.472-.49-1.047.221-1.047.49-1.047.489.466.489 1.047zM114.726 58.977c0 .575-.22 1.047-.489 1.047-.27 0-.49-.472-.49-1.047s.22-1.047.49-1.047c.269 0 .489.466.489 1.047z" fill="#263238"/><path d="M108.296 61.446h-4.101a.864.864 0 01-.581-.234 1.045 1.045 0 01-.314-.591l-.538-3.196h6.792l-.353 3.136a1.052 1.052 0 01-.302.631.867.867 0 01-.603.254v0zM117.055 61.446h-4.1a.86.86 0 01-.583-.233 1.04 1.04 0 01-.313-.592l-.543-3.196h6.797l-.362 3.136a1.06 1.06 0 01-.299.628.87.87 0 01-.597.257v0zM109.554 57.425h1.962M102.762 57.425l-3.245 1.59" stroke="#263238" stroke-width="2.037" stroke-linecap="round" stroke-linejoin="round"/><path d="M100.271 61.945s-.225-3.255-2.04-3.255c-1.816 0-1.811 3.765-1.356 5.274.455 1.508 2.79 2.594 3.548 1.422" fill="#fff"/><path d="M100.271 61.945s-.225-3.255-2.04-3.255c-1.816 0-1.811 3.765-1.356 5.274.455 1.508 2.79 2.594 3.548 1.422" stroke="#263238" stroke-width="1.018" stroke-linecap="round" stroke-linejoin="round"/><path d="M119.82 103.718a8.287 8.287 0 00-3.621-2.241 2.482 2.482 0 00-1.366-.12c-.606 0-3.616-1.204-4.369-1.454-.754-.25-1.209.586-.979 1.509.23.922 1.84 1.704 2.447 1.872.606.168.347.184.347.184s.979 2.681.529 3.685c-.451 1.004-2.041 3.256-1.512 4.856.528 1.601 1.36 2.426 3.019 2.426s2.642.082 3.019 0c.377-.081 7.095 3.598 6.361 3.685-.734.086-.303-7.451-.303-7.451l-3.572-6.951z" fill="#fff" stroke="#263238" stroke-width="1.018" stroke-linecap="round" stroke-linejoin="round"/><path d="M104.572 108.157s3.548-1.927 5.285-3.853c1.737-1.926 2.339-2.426 2.936-2.594.597-.168 3.019-.922 3.621-1.508.602-.587 1.057.504.152 1.34a14.737 14.737 0 01-2.114 1.59c-.377.255-.754 1.427-.754 1.427s3.7-1.758 4.982-1.34c1.282.417 2.554 1.687 2.476 2.436-.079.749-.314.391-1.145.304-.832-.087-2.012-.483-2.936-.065-.925.418-1.958 1.427-1.958 1.845 0 .418 1.057.667 1.889.586.832-.081 1.434-.336 2.261-.168.827.168 1.512.667 1.585 1.172.074.505-.298.499-1.208.586-.911.087-2.491.168-3.02.586-.528.418-3.244 1.84-2.789 2.344.455.505.724.505 1.63.505.905 0 1.874-.771 2.402-.727.71.059 1.092.119 1.092.119s1.257.06 1.145.608c-.177.879-.597.906-2.423.998-1.428.076-1.81-.081-3.092.255-1.1.393-2.242.617-3.396.668-2.192.168-6.117-1.004-6.117-1.004l-.504-6.11z" fill="#fff" stroke="#263238" stroke-width="1.018" stroke-linecap="round" stroke-linejoin="round"/><path d="M118.817 102.693s-1.527-1.58-2.403-1.628c-.876-.049-3.548 2.545-3.915 3.516-.367.971.49.602 1.199.364.71-.239 2.623-1.216 3.279-1.514a2.286 2.286 0 011.727-.201" fill="#fff"/><path d="M118.817 102.693s-1.527-1.58-2.403-1.628c-.876-.049-3.548 2.545-3.915 3.516-.367.971.49.602 1.199.364.71-.239 2.623-1.216 3.279-1.514a2.286 2.286 0 011.727-.201" stroke="#263238" stroke-width="1.018" stroke-linecap="round" stroke-linejoin="round"/><path d="M120.784 106.144s-2.183-1.21-3.548-.543c-1.365.668-3.058 2.003-3.058 2.605 0 .602.274.488 1.468.423s3.352-.45 3.64-.467c.433.056.86.152 1.278.288" fill="#fff"/><path d="M120.784 106.144s-2.183-1.21-3.548-.543c-1.365.668-3.058 2.003-3.058 2.605 0 .602.274.488 1.468.423s3.352-.45 3.64-.467c.433.056.86.152 1.278.288" stroke="#263238" stroke-width="1.018" stroke-linecap="round" stroke-linejoin="round"/><path d="M90.156 98.867l-1.888 11.216s16.382-3.603 16.984-3.098c.602.504 1.15 13.815 1.15 13.815s-21.154 4.097-23.644 5.02c-2.491.922-5.06 1.085-5.965.249-.906-.835-.979-2.93-.304-7.054.676-4.124 7.174-34.067 7.174-34.067" fill="#DD4D32"/><path d="M90.156 98.867l-1.888 11.216s16.382-3.603 16.984-3.098c.602.504 1.15 13.815 1.15 13.815s-21.154 4.097-23.644 5.02c-2.491.922-5.06 1.085-5.965.249-.906-.835-.979-2.93-.304-7.054.676-4.124 7.174-34.067 7.174-34.067" stroke="#263238" stroke-width="1.018" stroke-linecap="round" stroke-linejoin="round"/><path d="M128.124 98.113l.68 12.806-5.437-.249-.523 10.614s14.983 3.869 15.815 4.341c.832.472.68-.499 1.659-2.095.979-1.595 1.815-5.019 1.737-6.511-.078-1.493-3.171-6.512-3.244-6.279" fill="#DD4D32"/><path d="M128.124 98.113l.68 12.806-5.437-.249-.523 10.614s14.983 3.869 15.815 4.341c.832.472.68-.499 1.659-2.095.979-1.595 1.815-5.019 1.737-6.511-.078-1.493-3.171-6.512-3.244-6.279M128.804 110.919h5.06M88.268 110.083l-6.719 2.594" stroke="#263238" stroke-width="1.018" stroke-linecap="round" stroke-linejoin="round"/><path d="M89.873 200.84s-1.097 5.226-2.628 7.055c-1.532 1.828-2.936 3.038-2.848 4.493l.108 1.459h15.766v-4.384c0-2.551-.979-7.055-.979-8.862 0-1.807-9.855.12-9.855.12" fill="#263238"/><path d="M89.873 200.84s-1.097 5.226-2.628 7.055c-1.532 1.828-2.936 3.038-2.848 4.493l.108 1.459h15.766v-4.384c0-2.551-.979-7.055-.979-8.862 0-1.807-9.855.12-9.855.12" stroke="#263238" stroke-width="1.018" stroke-linecap="round" stroke-linejoin="round"/><path d="M84.774 210.923c-.268.425-.4.937-.377 1.455l.108 1.459h15.766v-2.914H84.774zM103.559 154.46s1.532-10.804-1.096-15.78c-2.628-4.976-11.827-5.1-16.97-1.704-5.143 3.397-7.144 8.97-5.285 16.133 1.86 7.163 6.161 7.304 6.161 7.304s-1.096 9.833-1.096 13.718c0 3.886 3.724 28.05 3.724 28.05h10.848s3.494-42.62 3.714-47.721z" fill="#586166" stroke="#263238" stroke-width="1.018" stroke-linecap="round" stroke-linejoin="round"/><path d="M86.37 160.414l1.09-9.958" stroke="#263238" stroke-width="1.018" stroke-linecap="round" stroke-linejoin="round"/><path d="M121.743 200.84s1.096 5.226 2.628 7.055c1.531 1.828 2.936 3.038 2.848 4.493l-.108 1.459h-15.766v-4.384c0-2.551.978-7.055.978-8.862 0-1.807 9.855.12 9.855.12" fill="#263238"/><path d="M121.743 200.84s1.096 5.226 2.628 7.055c1.531 1.828 2.936 3.038 2.848 4.493l-.108 1.459h-15.766v-4.384c0-2.551.978-7.055.978-8.862 0-1.807 9.855.12 9.855.12" stroke="#263238" stroke-width="1.018" stroke-linecap="round" stroke-linejoin="round"/><path d="M126.837 210.923c.269.425.403.936.382 1.455l-.108 1.459h-15.766v-2.914h15.492zM108.056 154.46s-1.531-10.804 1.096-15.78c2.628-4.976 11.827-5.1 16.97-1.704 5.143 3.397 7.189 8.97 5.324 16.133-1.864 7.163-6.2 7.304-6.2 7.304s1.097 9.833 1.097 13.718c0 3.886-3.724 28.05-3.724 28.05H111.78s-3.504-42.62-3.724-47.721z" fill="#586166" stroke="#263238" stroke-width="1.018" stroke-linecap="round" stroke-linejoin="round"/><path d="M125.246 160.414l-1.096-9.958" stroke="#263238" stroke-width="1.018" stroke-linecap="round" stroke-linejoin="round"/><path d="M130.487 25.816h21.658c.613 0 1.2.27 1.633.75.434.48.677 1.132.677 1.811v11.146c0 .68-.243 1.33-.677 1.811a2.2 2.2 0 01-1.633.75h-6.503l1.698 5.101-5.348-5.1h-11.505c-.303 0-.603-.067-.884-.196a2.315 2.315 0 01-.749-.555 2.622 2.622 0 01-.501-.83 2.806 2.806 0 01-.175-.98V28.376c0-.336.059-.67.175-.98.117-.31.287-.593.501-.83.215-.239.469-.427.749-.556.281-.129.581-.195.884-.195z" fill="#263238" stroke="#263238" stroke-width="1.018" stroke-linecap="round" stroke-linejoin="round"/><path d="M146.738 35.041c.695 0 1.258-.624 1.258-1.394 0-.77-.563-1.395-1.258-1.395-.695 0-1.258.624-1.258 1.395 0 .77.563 1.394 1.258 1.394zM140.714 35.041c.695 0 1.258-.624 1.258-1.394 0-.77-.563-1.395-1.258-1.395-.694 0-1.257.624-1.257 1.395 0 .77.563 1.394 1.257 1.394zM134.696 35.041c.694 0 1.257-.624 1.257-1.394 0-.77-.563-1.395-1.257-1.395-.695 0-1.258.624-1.258 1.395 0 .77.563 1.394 1.258 1.394z" fill="#DD4D32"/><path d="M46.346 116.508l-3.802 8.905h10.78l3.803-8.471-10.78-.434z" fill="#263238" stroke="#263238" stroke-width="1.018" stroke-linecap="round" stroke-linejoin="round"/><path d="M70.016 116.508h-23.67l3.807 8.905h23.665l-3.802-8.905z" fill="#fff" stroke="#263238" stroke-width="1.018" stroke-linecap="round" stroke-linejoin="round"/><path d="M27.952 137.677H22.62v76.127h5.333v-76.127zM198.681 137.872h-5.334V214h5.334v-76.128z" fill="#A3A3A3" stroke="#263238" stroke-width="1.018" stroke-linecap="round" stroke-linejoin="round"/><path d="M201.025 125.169H21.459v73.371h179.566v-73.371z" fill="#A3A3A3" stroke="#263238" stroke-width="1.018" stroke-linecap="round" stroke-linejoin="round"/><path d="M201.025 125.169H21.459v7.635h179.566v-7.635z" fill="#263238" stroke="#263238" stroke-width="1.018" stroke-linecap="round" stroke-linejoin="round"/><path d="M205.6 125.169H16.888v4.553H205.6v-4.553z" fill="#fff" stroke="#263238" stroke-width="1.018" stroke-linecap="round" stroke-linejoin="round"/><path d="M24.336 192.392s-12.12-28.63-9.483-29.46c2.638-.831 8.167 3.733 8.167 3.733s-16.217-48.149-12.023-51.86c4.194-3.712 12.023 15.351 12.023 15.351s-8.363-29.46-7.38-40.666c.984-11.206 11.608-.412 11.608-.412s-8.51-40.248-.612-42.327c7.898-2.078 7.639 46.06 7.639 46.06s2.593-34.436 5.76-24.896c3.165 9.54-3.49 41.496-3.49 41.496s4.34-10.788 6.753-.831c2.412 9.958-4.796 50.2-4.796 50.2s6.127-6.636 6.7 1.661c.572 8.297-12.68 34.045-12.68 34.045l-7.496.809-.69-2.903z" fill="#DD4D32"/><path opacity=".6" d="M24.336 192.392s-12.12-28.63-9.483-29.46c2.638-.831 8.167 3.733 8.167 3.733s-16.217-48.149-12.023-51.86c4.194-3.712 12.023 15.351 12.023 15.351s-8.363-29.46-7.38-40.666c.984-11.206 11.608-.412 11.608-.412s-8.51-40.248-.612-42.327c7.898-2.078 7.639 46.06 7.639 46.06s2.593-34.436 5.76-24.896c3.165 9.54-3.49 41.496-3.49 41.496s4.34-10.788 6.753-.831c2.412 9.958-4.796 50.2-4.796 50.2s6.127-6.636 6.7 1.661c.572 8.297-12.68 34.045-12.68 34.045l-7.496.809-.69-2.903z" fill="#fff"/><path d="M26.935 193.634s-10.105-19.915-8.231-23.648c1.874-3.733 7.472 4.965 7.472 4.965s-12.722-35.272-10.848-38.582c1.874-3.31 7.829 11.2 7.829 11.2s-2.241-48.545 1.497-46.884c3.739 1.66 4.14 24.886 4.14 24.886s-2.246-55.187 1.125-53.527c3.372 1.66 2.99 63.066 2.99 63.066s6.748-23.648 7.859-12.839c1.11 10.81-8.607 39.83-8.607 39.83s9.356-22.818 10.476-10.787c1.12 12.03-7.482 34.436-7.482 34.436s3.367-9.127 3.367-4.146c0 4.981-2.618 11.2-2.618 11.2" stroke="#263238" stroke-width="1.018" stroke-linecap="round" stroke-linejoin="round"/><path d="M40.582 193.477H19.193V214h21.39v-20.523z" fill="#263238" stroke="#263238" stroke-width="1.018" stroke-miterlimit="10"/><path d="M157.973 54.581s-2.192 4.01-2.52 5.828c-.328 1.818.22 2.55-.22 3.886-.441 1.334-2.295 1.34-2.295 2.675 0 1.335 1.311 2.55 1.752 2.914.44.363-.333 1.942.435 4.249.768 2.306 1.096 5.22 2.408 5.22a33.22 33.22 0 004.051-.488l.656 4.433 9.048-.912s-.108-4.34 2.3-6.191c2.407-1.85 7.173-12.264 4.325-19.063-2.848-6.8-14.797-8.135-19.94-2.55z" fill="#fff" stroke="#263238" stroke-width="1.018" stroke-linecap="round" stroke-linejoin="round"/><path d="M154.974 49.546a10.179 10.179 0 00-.353 3.3 14.35 14.35 0 001.752 6.044c1.116 2.046 3.787 3.348 4.448 5.53.215.727.763 2.67 2.295 3.158s1.209.483.768 3.76c-.44 3.278.876 6.556 3.504 7.408a7.088 7.088 0 003.806.155 7.547 7.547 0 003.421-1.854c2.08-1.823 6.019-9.35 6.132-16.149.191-12.03-10.501-17.907-20.146-16.442-1.285.141-2.505.7-3.505 1.605-1.001.905-1.739 2.117-2.122 3.485z" fill="#263238" stroke="#263238" stroke-width="1.018" stroke-linecap="round" stroke-linejoin="round"/><path d="M166.571 80.189a9.481 9.481 0 00-4.218 1.085c-1.224.716-5.476 5.22-6.572 5.97-1.096.748-3.176.363-1.957.97 1.218.608 2.079.728 4.159-.119 2.08-.846 6.459-2.55 7.771-2.55 1.311 0 6.131.727 6.571.852.441.124 3.284 1.573 3.284 1.573s-1.424-3.397-3.064-5.095c-1.639-1.699-3.674-2.811-5.974-2.686zM163.013 65.082a1.163 1.163 0 00-.553.527 1.366 1.366 0 00-.147.792 18.421 18.421 0 01-.073 4.818c-.435 2.062 1.889 2.062 2.398-1.318.333-2.236-.431-5.291-1.625-4.819zM144.722 93.071s-1.311.727-1.419 4.25c-.108 3.521-5.588 28.293-5.916 32.178-.328 3.885 1.536 6.43 4.707 7.771 3.171 1.34 9.2 3.516 10.276 2.914 1.077-.603 3.176-13.116 3.939-18.58.764-5.465-8.431-24.42-8.866-25.13-.436-.711-1.953-3.278-2.721-3.403z" fill="#fff" stroke="#263238" stroke-width="1.018" stroke-linecap="round" stroke-linejoin="round"/><path d="M151.842 122.092l-6.024 9.957" stroke="#263238" stroke-width="1.018" stroke-linecap="round" stroke-linejoin="round"/><path d="M163.458 166.296l7.605 46.667c.024.146.076.285.152.407a.993.993 0 00.29.301.873.873 0 00.771.101.969.969 0 00.507-.438c.118-.207.167-.453.139-.696l-5.612-47.351-3.852 1.009z" fill="#fff" stroke="#263238" stroke-width="1.018" stroke-linecap="round" stroke-linejoin="round"/><path d="M155.018 156.099s-2.848 42.614-2.848 43.83c0 1.215-2.936 13.962-2.936 13.962h7.863s.764-1.698.764-5.22.332-11.048.332-11.776c0-.727 8.759-38.37 8.759-38.37s-.44-3.766-4.712-5.969c-4.272-2.203-6.567 2.572-7.222 3.543z" fill="#fff" stroke="#263238" stroke-width="1.018" stroke-linecap="round" stroke-linejoin="round"/><path d="M157.861 208.671c0-3.218.274-9.768.323-11.439-3.646-2.268-5.907.754-5.907.754a82.47 82.47 0 00-.102 1.932c0 1.216-2.936 13.962-2.936 13.962h7.858s.764-1.687.764-5.209z" fill="#263238" stroke="#263238" stroke-width="1.018" stroke-linecap="round" stroke-linejoin="round"/><path d="M157.097 213.891s.764-1.698.764-5.22c0-1.308.049-3.175.102-5.036-.758-.982-2.397-2.485-4.149-.184-.768 1.003-2.789 7.342-3.753 10.44h7.036z" fill="#4F4F4F" stroke="#263238" stroke-width="1.018" stroke-linecap="round" stroke-linejoin="round"/><path d="M153.814 203.45l.655 10.441h1.958l1.649-10.685s-2.183-2.914-4.262.244z" fill="#263238" stroke="#263238" stroke-width="1.018" stroke-linecap="round" stroke-linejoin="round"/><path d="M139.031 150.532s-3.396 4.129-3.724 7.651c-.328 3.522 11.387 40.796 11.387 40.796a10.023 10.023 0 01-1.859 4.249c-1.645 2.306-3.944 5.584-4.272 7.77-.328 2.187 0 2.914 0 2.914h7.775s2.736-7.77 3.832-9.713c1.096-1.943.435-5.708.107-7.407-.328-1.698-3.283-40.915-3.283-40.915s-2.3-8.281-9.963-5.345z" fill="#fff" stroke="#263238" stroke-width="1.018" stroke-linecap="round" stroke-linejoin="round"/><path d="M152.17 204.178c.949-1.688.582-4.743.249-6.631a3.292 3.292 0 00-1.41-.779 3.091 3.091 0 00-1.575.003c-2.299.608-2.74 2.17-2.74 2.17a10.012 10.012 0 01-1.859 4.249c-1.645 2.306-3.944 5.584-4.272 7.771-.328 2.187 0 2.914 0 2.914h7.775s2.736-7.754 3.832-9.697z" fill="#263238" stroke="#263238" stroke-width="1.018" stroke-linecap="round" stroke-linejoin="round"/><path d="M144.34 213.891h3.998s2.447-6.913 3.631-9.328c-.587-.597-2.363-2.121-4.071-.629-2.08 1.823-2.3 6.316-2.843 8.015-.26.797-.519 1.459-.715 1.942z" fill="#4F4F4F" stroke="#263238" stroke-width="1.018" stroke-linecap="round" stroke-linejoin="round"/><path d="M147.898 203.933l.44 9.958h1.419l2.408-9.713s-2.188-2.426-4.267-.245z" fill="#263238" stroke="#263238" stroke-width="1.018" stroke-linecap="round" stroke-linejoin="round"/><path d="M147.868 109.53c1.821 6.816 3.455 19.595 3.455 20.789 0 2.17-5.725 14.722-5.725 14.722s-6.361 3.641-7.883 6.191a8.047 8.047 0 00-1.198 3.818 8.196 8.196 0 00.762 3.953c1.096 2.425 2.736 3.522 6.362 4.249 3.626.727 37.223 0 37.223 0s3.504-4.738 1.86-12.264c-.764-3.506-1.596-6.55-2.516-10.804 0 0 3.612.119 6.239-2.312 2.628-2.431 2.741-6.191 2.741-8.981 0-2.789-1.654-26.112-1.654-28.412 0-2.301-.098-5.22-2.055-6.925-1.958-1.704-6.597-4.34-10.766-6.794-3.278-1.915-5.691-1.579-8.318-1.579-2.628 0-5.804 2.171-5.804 2.171s-14.562 4.249-15.659 4.976c-1.096.727-.704 1.465-.303 4.146" fill="#fff"/><path d="M147.868 109.53c1.821 6.816 3.455 19.595 3.455 20.789 0 2.17-5.725 14.722-5.725 14.722s-6.361 3.641-7.883 6.191a8.047 8.047 0 00-1.198 3.818 8.196 8.196 0 00.762 3.953c1.096 2.425 2.736 3.522 6.362 4.249 3.626.727 37.223 0 37.223 0s3.504-4.738 1.86-12.264c-.764-3.506-1.596-6.55-2.516-10.804 0 0 3.612.119 6.239-2.312 2.628-2.431 2.741-6.191 2.741-8.981 0-2.789-1.654-26.112-1.654-28.412 0-2.301-.098-5.22-2.055-6.925-1.958-1.704-6.597-4.34-10.766-6.794-3.278-1.915-5.691-1.579-8.318-1.579-2.628 0-5.804 2.171-5.804 2.171s-14.562 4.249-15.659 4.976c-1.096.727-.704 1.465-.303 4.146" stroke="#263238" stroke-width="1.018" stroke-linecap="round" stroke-linejoin="round"/><path d="M181.95 99.87s-4.482 28.88-4.482 30.459c0 1.579 2.731 9.855 2.731 9.855" stroke="#263238" stroke-width="1.018" stroke-linecap="round" stroke-linejoin="round"/><path d="M151.088 131.54c-1.076 3.836-5.49 13.501-5.49 13.501s-6.361 3.641-7.883 6.191a8.047 8.047 0 00-1.198 3.818 8.196 8.196 0 00.762 3.953c1.096 2.425 2.736 3.522 6.362 4.249 3.626.727 37.223 0 37.223 0s3.504-4.738 1.86-12.264c-.764-3.506-1.596-6.55-2.516-10.804l-2.74-8.644h-26.38z" fill="#263238" stroke="#263238" stroke-width="1.018" stroke-miterlimit="10"/><path d="M141.659 165.802l-5.662 47.02a1.16 1.16 0 00.033.439c.039.142.105.273.193.385a.968.968 0 00.32.262.875.875 0 00.991-.148c.169-.156.284-.373.323-.612l7.741-46.983-3.939-.363zM179.117 165.802l5.662 47.02a1.16 1.16 0 01-.033.439 1.09 1.09 0 01-.193.385.968.968 0 01-.32.262.875.875 0 01-.991-.148 1.073 1.073 0 01-.323-.612l-7.716-46.983 3.914-.363zM157.097 165.802l-5.661 47.02a1.14 1.14 0 00.032.439c.039.142.105.273.194.385a.948.948 0 00.32.262.88.88 0 00.99-.149 1.07 1.07 0 00.323-.612l7.741-46.982-3.939-.363z" fill="#fff" stroke="#263238" stroke-width="1.018" stroke-linecap="round" stroke-linejoin="round"/><path d="M185.234 112.004H149.87s-.979 9.225-.436 17.121c.543 7.895 1.752 17.967 1.532 24.419-.22 6.452-3.504 9.957-3.504 9.957h-7.883c-.187 0-.372.04-.544.119-.173.078-.33.194-.462.34-.133.147-.238.32-.309.512a1.712 1.712 0 00.308 1.72c.133.146.289.263.462.342.173.079.358.12.545.12h42.572c2.581-4.616 3.84-9.991 3.611-15.416-.327-9.225-3.611-19.671-2.52-27.078 1.092-7.407 1.992-12.156 1.992-12.156z" fill="#DD4D32" stroke="#263238" stroke-width="1.018" stroke-linecap="round" stroke-linejoin="round"/><path d="M175.873 55.618s-2.187.971-2.3 3.255c-.113 2.285-.763 10.197-3.391 14.69s0 11.656 6.459 12.747c6.459 1.09 11.715-9.714 9.297-20.881-2.417-11.168-7.873-10.783-10.065-9.811z" fill="#263238" stroke="#263238" stroke-width="1.018" stroke-linecap="round" stroke-linejoin="round"/><path d="M1 214h214" stroke="#263238" stroke-width="1.018" stroke-linecap="round" stroke-linejoin="round"/></svg>