<svg width="250" height="250" viewBox="0 0 250 250" fill="none" xmlns="http://www.w3.org/2000/svg">
<path d="M170.775 222.265C196.12 216.765 217.74 200.06 223.995 174.12C227.865 158.055 227.28 136.865 219.88 121.865C212.57 107.04 198.535 97.23 187.16 85.77C172 70.5 160.185 49.95 142.16 38.085C124.135 26.22 100.92 25.27 80.7651 31.635C64.6201 36.735 53.2651 45.22 44.0151 59.365C35.4304 72.59 30.0022 87.6122 28.1501 103.27C24.0351 137.47 35.1851 174.895 61.2451 198.12C81.8801 216.515 112.245 224.345 139.245 224.9C149.79 225.12 160.42 224.5 170.775 222.265Z" fill="#DD4D32"/>
<path opacity="0.6" d="M170.864 222.374C196.209 216.874 217.829 200.169 224.084 174.229C227.954 158.164 227.369 136.974 219.969 121.974C212.659 107.149 198.624 97.3394 187.249 85.8794C172.089 70.6144 160.274 50.0594 142.249 38.1944C124.224 26.3294 100.999 25.3794 80.854 31.7444C64.709 36.8444 53.354 45.3294 44.104 59.4744C35.5193 72.6994 30.091 87.7216 28.239 103.379C24.124 137.584 35.274 174.999 61.334 198.229C81.969 216.624 112.334 224.454 139.334 225.009C149.879 225.229 160.499 224.629 170.864 222.374Z" fill="white"/>
<path d="M100 98.38C99.9156 98.3775 99.833 98.3549 99.759 98.314C99.6851 98.2732 99.622 98.2152 99.575 98.145L84.675 75.2L69.535 92.2L54.075 81.59L39.12 85.245L23.93 98.245C23.8786 98.2881 23.8191 98.3204 23.7549 98.34C23.6908 98.3596 23.6233 98.3661 23.5566 98.3591C23.4899 98.3521 23.4253 98.3318 23.3666 98.2993C23.3079 98.2668 23.2564 98.2228 23.215 98.17C23.1288 98.0587 23.088 97.9189 23.101 97.7787C23.114 97.6385 23.1798 97.5085 23.285 97.415L38.66 84.25L54.27 80.435L69.375 90.805L84.8 73.5L100.44 97.5C100.517 97.617 100.547 97.7589 100.524 97.897C100.501 98.0352 100.426 98.1595 100.315 98.245C100.229 98.3257 100.118 98.3735 100 98.38Z" fill="#263238"/>
<path d="M24.875 97.8145C24.8662 98.0634 24.7844 98.3041 24.6398 98.5069C24.4952 98.7096 24.2942 98.8654 24.0618 98.9548C23.8294 99.0442 23.5758 99.0633 23.3326 99.0098C23.0895 98.9562 22.8674 98.8323 22.694 98.6535C22.5207 98.4748 22.4037 98.249 22.3577 98.0042C22.3117 97.7595 22.3386 97.5067 22.4351 97.2771C22.5317 97.0476 22.6936 96.8515 22.9007 96.7132C23.1078 96.575 23.351 96.5006 23.6 96.4995C23.9426 96.5074 24.2684 96.6497 24.507 96.8958C24.7455 97.1418 24.8777 97.4718 24.875 97.8145Z" fill="white"/>
<path d="M38.8901 83.4098C39.1565 83.3968 39.4207 83.4639 39.6487 83.6025C39.8766 83.7411 40.0578 83.9447 40.1688 84.1872C40.2799 84.4298 40.3158 84.7 40.2719 84.9631C40.2279 85.2262 40.1062 85.4701 39.9223 85.6633C39.7385 85.8566 39.501 85.9903 39.2404 86.0473C38.9798 86.1043 38.7081 86.082 38.4604 85.9831C38.2126 85.8843 38.0002 85.7135 37.8504 85.4928C37.7006 85.272 37.6204 85.0115 37.6201 84.7448C37.6155 84.5736 37.6447 84.4033 37.706 84.2434C37.7674 84.0836 37.8597 83.9375 37.9777 83.8134C38.0958 83.6894 38.2371 83.5899 38.3937 83.5206C38.5502 83.4513 38.7189 83.4137 38.8901 83.4098Z" fill="white"/>
<path d="M54.1699 79.6747C54.4365 79.6607 54.7011 79.7269 54.9297 79.8649C55.1582 80.0028 55.3402 80.2061 55.452 80.4484C55.5639 80.6908 55.6005 80.9611 55.5572 81.2245C55.5139 81.488 55.3926 81.7323 55.2089 81.9261C55.0253 82.1199 54.7879 82.2541 54.5272 82.3116C54.2665 82.369 53.9946 82.347 53.7465 82.2483C53.4985 82.1497 53.2857 81.9789 53.1357 81.7581C52.9857 81.5373 52.9053 81.2766 52.9049 81.0097C52.8968 80.6652 53.0253 80.3316 53.2623 80.0815C53.4993 79.8314 53.8255 79.6852 54.1699 79.6747Z" fill="white"/>
<path d="M69.4552 90.17C69.7216 90.1571 69.9858 90.2242 70.2137 90.3628C70.4416 90.5013 70.6228 90.705 70.7339 90.9475C70.845 91.19 70.8809 91.4602 70.8369 91.7233C70.793 91.9864 70.6713 92.2303 70.4874 92.4236C70.3036 92.6169 70.066 92.7506 69.8055 92.8076C69.5449 92.8646 69.2732 92.8422 69.0255 92.7434C68.7777 92.6446 68.5652 92.4738 68.4155 92.253C68.2657 92.0323 68.1855 91.7718 68.1852 91.505C68.1805 91.3339 68.2097 91.1635 68.2711 91.0037C68.3325 90.8439 68.4248 90.6977 68.5428 90.5737C68.6608 90.4496 68.8022 90.3501 68.9587 90.2809C69.1153 90.2116 69.284 90.1739 69.4552 90.17Z" fill="white"/>
<path d="M86 74.3448C85.9873 74.5928 85.9021 74.8316 85.7551 75.0318C85.6081 75.2319 85.4055 75.3845 85.1727 75.4707C84.9398 75.557 84.6867 75.573 84.4448 75.5169C84.2029 75.4608 83.9827 75.335 83.8115 75.1551C83.6404 74.9752 83.5257 74.749 83.4817 74.5046C83.4378 74.2602 83.4664 74.0082 83.5642 73.7799C83.6619 73.5516 83.8244 73.357 84.0317 73.2201C84.2389 73.0832 84.4817 73.0101 84.73 73.0098C85.0753 73.0189 85.4028 73.1646 85.6409 73.4148C85.8789 73.6651 86.0081 73.9995 86 74.3448Z" fill="white"/>
<path d="M101.285 97.8145C101.296 97.9877 101.271 98.1612 101.212 98.3244C101.154 98.4877 101.062 98.6371 100.943 98.7636C100.825 98.89 100.681 98.9908 100.522 99.0597C100.363 99.1286 100.191 99.1642 100.018 99.1642C99.8441 99.1642 99.6724 99.1286 99.5132 99.0597C99.354 98.9908 99.2106 98.89 99.0918 98.7636C98.973 98.6371 98.8814 98.4877 98.8227 98.3244C98.7639 98.1612 98.7392 97.9877 98.7501 97.8145C98.7484 97.4764 98.8776 97.1507 99.1106 96.9056C99.3435 96.6605 99.6623 96.515 100 96.4995C100.171 96.5015 100.339 96.537 100.496 96.6042C100.653 96.6713 100.796 96.7687 100.915 96.8909C101.034 97.013 101.128 97.1574 101.192 97.3159C101.255 97.4743 101.287 97.6438 101.285 97.8145Z" fill="white"/>
<path d="M175.93 59.1099L177.6 58.3549L177.25 56.3549L175.41 56.2099C175.176 55.5951 174.869 55.0108 174.495 54.4699L175.435 52.8649L174 51.4299L172.395 52.3899C171.467 51.7635 170.417 51.3378 169.315 51.1399L168.85 49.2949H166.815L166.34 51.1499C165.715 51.2709 165.106 51.4638 164.525 51.7249L163.065 50.4699L161.405 51.5999L162.095 53.3949C161.661 53.8486 161.281 54.3521 160.965 54.8949L159.055 54.7049L158.37 56.6099L159.95 57.7399C159.872 58.184 159.833 58.6341 159.835 59.0849C159.825 59.2731 159.825 59.4617 159.835 59.6499L158.165 60.5899L158.695 62.5399H160.58C160.848 63.1334 161.195 63.6883 161.61 64.1899L160.795 65.8849L162.355 67.1849L163.855 66.1099C164.428 66.44 165.039 66.6986 165.675 66.8799L165.99 68.6849L167.99 68.8549L168.6 67.1399C169.262 67.0805 169.913 66.9394 170.54 66.7199L171.815 68.0099L173.58 67.0099L173.08 65.2549C173.593 64.8136 174.048 64.3097 174.435 63.7549L176.22 64.0799L177.075 62.2399L175.675 61.1099C175.844 60.4568 175.93 59.7847 175.93 59.1099ZM172.93 59.1099C172.93 60.1127 172.633 61.0929 172.076 61.9267C171.518 62.7604 170.727 63.4103 169.8 63.794C168.874 64.1777 167.854 64.2781 166.871 64.0825C165.887 63.8869 164.984 63.404 164.275 62.695C163.566 61.9859 163.083 61.0825 162.887 60.099C162.692 59.1156 162.792 58.0961 163.176 57.1697C163.56 56.2433 164.21 55.4515 165.043 54.8944C165.877 54.3373 166.857 54.0399 167.86 54.0399C169.199 54.0386 170.484 54.5685 171.432 55.5134C172.381 56.4583 172.916 57.741 172.92 59.0799L172.93 59.1099Z" fill="#263238"/>
<path opacity="0.1" d="M176.5 58.8498L176.87 58.6798C177.077 58.5889 177.246 58.4307 177.352 58.2309C177.457 58.0312 177.492 57.8017 177.45 57.5798L177.375 57.1298C177.338 56.9073 177.227 56.7037 177.06 56.5521C176.893 56.4005 176.68 56.3099 176.455 56.2948L176.01 56.2598C175.834 56.2467 175.664 56.187 175.518 56.0869C175.372 55.9868 175.256 55.8498 175.18 55.6898C175.06 55.4348 174.93 55.1898 174.79 54.9498C174.702 54.7978 174.656 54.6254 174.656 54.4498C174.656 54.2743 174.702 54.1018 174.79 53.9498L175.02 53.5598C175.132 53.3647 175.177 53.1384 175.148 52.9154C175.119 52.6924 175.018 52.485 174.86 52.3248L174.54 52.0048C174.381 51.8428 174.172 51.7397 173.946 51.7124C173.721 51.6852 173.493 51.7354 173.3 51.8548L172.905 52.0898C172.753 52.1776 172.581 52.2238 172.405 52.2238C172.229 52.2238 172.057 52.1776 171.905 52.0898C171.267 51.7229 170.583 51.4437 169.87 51.2598C169.695 51.2145 169.536 51.1227 169.409 50.9941C169.283 50.8656 169.193 50.7052 169.15 50.5298L169.035 50.0648C168.982 49.8411 168.854 49.6424 168.672 49.5021C168.49 49.3619 168.265 49.2887 168.035 49.2948H167.585C167.356 49.2884 167.132 49.3609 166.949 49.5002C166.767 49.6395 166.639 49.837 166.585 50.0598L166.46 50.5598C166.417 50.7315 166.329 50.8886 166.205 51.0151C166.081 51.1416 165.926 51.233 165.755 51.2798C165.505 51.3498 165.255 51.4248 165.02 51.5148C164.852 51.5762 164.671 51.5915 164.495 51.5589C164.319 51.5264 164.155 51.4473 164.02 51.3298L163.62 50.9848C163.452 50.8375 163.24 50.7506 163.017 50.7379C162.794 50.7252 162.573 50.7875 162.39 50.9148L162.035 51.1548C161.844 51.282 161.702 51.4712 161.633 51.6907C161.565 51.9102 161.575 52.1465 161.66 52.3598L161.84 52.8298C161.905 52.9952 161.926 53.1751 161.898 53.3509C161.871 53.5267 161.797 53.692 161.685 53.8298C161.525 54.0205 161.375 54.2191 161.235 54.4248C161.133 54.5737 160.993 54.6923 160.829 54.768C160.666 54.8437 160.484 54.8737 160.305 54.8548L159.805 54.8098C159.58 54.7848 159.353 54.8369 159.161 54.9577C158.969 55.0785 158.825 55.2609 158.75 55.4748L158.59 55.9148C158.512 56.1227 158.506 56.3505 158.572 56.5623C158.638 56.7741 158.773 56.9579 158.955 57.0848L159.415 57.4098C159.56 57.5116 159.675 57.6499 159.749 57.8106C159.822 57.9714 159.852 58.1488 159.835 58.3248C159.807 58.5855 159.793 58.8476 159.795 59.1098C159.789 59.2819 159.74 59.4498 159.653 59.5982C159.565 59.7466 159.442 59.8709 159.295 59.9598L158.825 60.2198C158.622 60.3259 158.462 60.4986 158.371 60.7088C158.279 60.919 158.263 61.1542 158.325 61.3748L158.44 61.8098C158.497 62.0299 158.627 62.224 158.808 62.3603C158.99 62.4967 159.213 62.567 159.44 62.5598H159.94C160.117 62.5582 160.291 62.6037 160.445 62.6915C160.599 62.7794 160.726 62.9065 160.815 63.0598C160.95 63.2998 161.095 63.5298 161.25 63.7548C161.349 63.9002 161.409 64.0692 161.422 64.2448C161.435 64.4203 161.402 64.5963 161.325 64.7548L161.12 65.1798C161.019 65.3831 160.991 65.6146 161.039 65.8363C161.087 66.058 161.209 66.2567 161.385 66.3998L161.73 66.6898C161.902 66.8371 162.118 66.9217 162.345 66.9299C162.571 66.9381 162.793 66.8693 162.975 66.7348L163.33 66.4848C163.473 66.3822 163.642 66.3193 163.817 66.3027C163.993 66.286 164.17 66.316 164.33 66.3898C164.583 66.5098 164.843 66.6198 165.11 66.7198C165.274 66.7813 165.419 66.8848 165.53 67.0199C165.642 67.1551 165.716 67.3171 165.745 67.4898L165.82 67.9248C165.857 68.1474 165.968 68.351 166.135 68.5025C166.302 68.6541 166.515 68.7448 166.74 68.7598L167.2 68.7998C167.424 68.8207 167.649 68.7654 167.837 68.643C168.026 68.5205 168.168 68.3379 168.24 68.1248L168.38 67.7348C168.439 67.5664 168.542 67.4169 168.678 67.3017C168.815 67.1866 168.979 67.1099 169.155 67.0798C169.438 67.0352 169.718 66.9751 169.995 66.8998C170.166 66.8544 170.345 66.855 170.516 66.9015C170.686 66.9481 170.841 67.0389 170.965 67.1648L171.26 67.4648C171.416 67.6256 171.622 67.7293 171.844 67.7593C172.066 67.7892 172.292 67.7436 172.485 67.6298L172.88 67.4048C173.083 67.2987 173.243 67.1261 173.334 66.9159C173.425 66.7056 173.442 66.4705 173.38 66.2498L173.27 65.8598C173.218 65.6857 173.214 65.5006 173.259 65.3244C173.303 65.1482 173.396 64.9876 173.525 64.8598C173.73 64.6548 173.93 64.4398 174.115 64.2148C174.229 64.0782 174.378 63.9746 174.546 63.9149C174.714 63.8551 174.895 63.8413 175.07 63.8748L175.47 63.9498C175.691 63.9935 175.921 63.9609 176.122 63.8574C176.322 63.7539 176.482 63.5856 176.575 63.3798L176.765 62.9698C176.864 62.7644 176.889 62.5315 176.837 62.3097C176.785 62.0878 176.659 61.8903 176.48 61.7498L176.18 61.5048C176.042 61.396 175.935 61.2527 175.87 61.0895C175.805 60.9262 175.785 60.7487 175.81 60.5748C175.859 60.2769 175.891 59.9764 175.905 59.6748C175.921 59.4967 175.985 59.3261 176.09 59.181C176.194 59.0359 176.336 58.9215 176.5 58.8498ZM172.91 59.1098C172.91 60.1126 172.613 61.0928 172.056 61.9266C171.498 62.7603 170.707 63.4102 169.78 63.7939C168.854 64.1776 167.834 64.278 166.851 64.0824C165.867 63.8868 164.964 63.4039 164.255 62.6949C163.546 61.9858 163.063 61.0824 162.867 60.0989C162.672 59.1155 162.772 58.096 163.156 57.1696C163.54 56.2432 164.189 55.4514 165.023 54.8943C165.857 54.3372 166.837 54.0398 167.84 54.0398C169.179 54.0385 170.464 54.5684 171.412 55.5133C172.361 56.4582 172.896 57.7409 172.9 59.0798L172.91 59.1098Z" fill="white"/>
<path d="M198.955 84.3198L201.555 83.1448L201 80.0348L198.135 79.8048C197.775 78.8444 197.291 77.9351 196.695 77.0998L198.17 74.5998L195.94 72.3848L193.44 73.8848C192.005 72.8957 190.375 72.2241 188.66 71.9148L187.94 69.0498H184.78L184.04 71.9348C183.065 72.1295 182.116 72.4348 181.21 72.8448L178.945 70.8948L176.36 72.6548L177.435 75.4448C176.752 76.1527 176.16 76.944 175.675 77.7998L172.7 77.4998L171.63 80.4698L174.09 82.1398C173.969 82.8365 173.911 83.5427 173.915 84.2498C173.895 84.5411 173.895 84.8335 173.915 85.1248L171.315 86.5848L172.14 89.6248H175.075C175.502 90.5408 176.037 91.402 176.67 92.1898L175.405 94.8098L177.83 96.8448L180.17 95.0898C181.06 95.6042 182.011 96.0057 183 96.2848L183.47 99.1148L186.62 99.3948L187.565 96.7248C188.596 96.6219 189.612 96.397 190.59 96.0548L192.59 98.0548L195.33 96.4748L194.575 93.7498C195.372 93.0817 196.081 92.3157 196.685 91.4698L199.46 91.9698L200.795 89.1098L198.615 87.3498C198.85 86.3571 198.964 85.3398 198.955 84.3198ZM194.28 84.3198C194.28 85.8803 193.817 87.4057 192.95 88.7032C192.083 90.0008 190.851 91.012 189.409 91.6092C187.968 92.2064 186.381 92.3626 184.851 92.0582C183.32 91.7538 181.914 91.0023 180.811 89.8989C179.708 88.7954 178.956 87.3896 178.652 85.8591C178.347 84.3286 178.503 82.7421 179.101 81.3004C179.698 79.8587 180.709 78.6265 182.007 77.7595C183.304 76.8925 184.83 76.4298 186.39 76.4298C188.474 76.4298 190.473 77.2542 191.952 78.723C193.43 80.1919 194.267 82.1859 194.28 84.2698V84.3198Z" fill="#263238"/>
<path opacity="0.1" d="M198.955 84.3198L201.555 83.1448L201 80.0348L198.135 79.8048C197.775 78.8444 197.291 77.9351 196.695 77.0998L198.17 74.5998L195.94 72.3848L193.44 73.8848C192.005 72.8957 190.375 72.2241 188.66 71.9148L187.94 69.0498H184.78L184.04 71.9348C183.065 72.1295 182.116 72.4348 181.21 72.8448L178.945 70.8948L176.36 72.6548L177.435 75.4448C176.752 76.1527 176.16 76.944 175.675 77.7998L172.7 77.4998L171.63 80.4698L174.09 82.1398C173.969 82.8365 173.911 83.5427 173.915 84.2498C173.895 84.5411 173.895 84.8335 173.915 85.1248L171.315 86.5848L172.14 89.6248H175.075C175.502 90.5408 176.037 91.402 176.67 92.1898L175.405 94.8098L177.83 96.8448L180.17 95.0898C181.06 95.6042 182.011 96.0057 183 96.2848L183.47 99.1148L186.62 99.3948L187.565 96.7248C188.596 96.6219 189.612 96.397 190.59 96.0548L192.59 98.0548L195.33 96.4748L194.575 93.7498C195.372 93.0817 196.081 92.3157 196.685 91.4698L199.46 91.9698L200.795 89.1098L198.615 87.3498C198.85 86.3571 198.964 85.3398 198.955 84.3198ZM194.28 84.3198C194.28 85.8803 193.817 87.4057 192.95 88.7032C192.083 90.0008 190.851 91.012 189.409 91.6092C187.968 92.2064 186.381 92.3626 184.851 92.0582C183.32 91.7538 181.914 91.0023 180.811 89.8989C179.708 88.7954 178.956 87.3896 178.652 85.8591C178.347 84.3286 178.503 82.7421 179.101 81.3004C179.698 79.8587 180.709 78.6265 182.007 77.7595C183.304 76.8925 184.83 76.4298 186.39 76.4298C188.474 76.4298 190.473 77.2542 191.952 78.723C193.43 80.1919 194.267 82.1859 194.28 84.2698V84.3198Z" fill="white"/>
<path d="M60 130.705L62 129.805L61.585 127.435L59.4 127.26C59.1249 126.529 58.7604 125.836 58.315 125.195L59.43 123.29L57.725 121.59L55.825 122.73C54.7216 121.983 53.4754 121.472 52.165 121.23L51.615 119.05H49.16L48.595 121.245C47.8529 121.39 47.1299 121.62 46.44 121.93L44.71 120.43L42.74 121.77L43.56 123.9C43.0405 124.442 42.5903 125.047 42.22 125.7L39.955 125.5L39.135 127.765L41 129.095C40.9091 129.622 40.8656 130.155 40.87 130.69C40.855 130.913 40.855 131.137 40.87 131.36L38.87 132.47L39.5 134.79H41.735C42.0692 135.494 42.4945 136.151 43 136.745L42.035 138.745L43.885 140.285L45.67 139.015C46.3481 139.406 47.0719 139.711 47.825 139.925L48.2 142.07L50.6 142.27L51.325 140.235C52.111 140.164 52.8852 139.996 53.63 139.735L55.13 141.26L57.225 140.07L56.635 138C57.2439 137.485 57.7849 136.896 58.245 136.245L60.36 136.635L61.36 134.45L59.7 133.11C59.8993 132.324 60.0001 131.516 60 130.705ZM56.435 130.705C56.435 131.891 56.0831 133.052 55.4238 134.038C54.7645 135.025 53.8274 135.794 52.7311 136.248C51.6347 136.702 50.4283 136.821 49.2644 136.59C48.1006 136.358 47.0315 135.787 46.1924 134.947C45.3532 134.108 44.7818 133.039 44.5503 131.875C44.3188 130.711 44.4376 129.505 44.8917 128.409C45.3458 127.312 46.1149 126.375 47.1016 125.716C48.0883 125.057 49.2483 124.705 50.435 124.705C52.022 124.705 53.5443 125.333 54.6688 126.453C55.7933 127.573 56.4284 129.093 56.435 130.68V130.705Z" fill="#263238"/>
<path opacity="0.1" d="M60.6651 130.39L61.1051 130.19C61.3485 130.08 61.5484 129.892 61.6733 129.656C61.7982 129.419 61.8411 129.148 61.7951 128.885L61.7001 128.355C61.6571 128.09 61.5261 127.848 61.3284 127.666C61.1307 127.485 60.8777 127.375 60.6101 127.355L60.1101 127.31C59.8988 127.298 59.6945 127.229 59.5187 127.111C59.3428 126.994 59.2017 126.831 59.1101 126.64C58.9747 126.338 58.8211 126.044 58.6501 125.76C58.5433 125.577 58.4871 125.369 58.4871 125.158C58.4871 124.946 58.5433 124.738 58.6501 124.555L58.9251 124.09C59.0592 123.86 59.1134 123.592 59.079 123.328C59.0446 123.063 58.9237 122.818 58.7351 122.63L58.3551 122.25C58.1655 122.06 57.9177 121.939 57.6512 121.906C57.3847 121.874 57.1149 121.931 56.8851 122.07L56.4201 122.35C56.2372 122.457 56.0293 122.513 55.8176 122.513C55.6059 122.513 55.3979 122.457 55.2151 122.35C54.4596 121.908 53.647 121.571 52.8001 121.35C52.5933 121.295 52.4051 121.185 52.2555 121.032C52.1059 120.879 52.0004 120.688 51.9501 120.48L51.8101 119.93C51.7443 119.67 51.5935 119.439 51.3816 119.274C51.1696 119.109 50.9086 119.02 50.6401 119.02H50.1051C49.8374 119.02 49.5774 119.109 49.3657 119.273C49.154 119.437 49.0026 119.666 48.9351 119.925L48.7851 120.51C48.7351 120.714 48.6313 120.901 48.4844 121.052C48.3375 121.202 48.153 121.31 47.9501 121.365C47.6551 121.445 47.3651 121.535 47.0751 121.645C46.876 121.715 46.662 121.731 46.4548 121.692C46.2475 121.652 46.0544 121.558 45.8951 121.42L45.3951 121.015C45.1939 120.842 44.9416 120.74 44.6769 120.725C44.4123 120.71 44.1499 120.782 43.9301 120.93L43.5151 121.215C43.2896 121.368 43.1223 121.592 43.0406 121.852C42.9589 122.111 42.9675 122.391 43.0651 122.645L43.2801 123.2C43.3581 123.395 43.3821 123.608 43.3495 123.815C43.317 124.023 43.2291 124.218 43.0951 124.38C42.9101 124.61 42.7301 124.845 42.5651 125.09C42.4426 125.265 42.2755 125.403 42.0811 125.491C41.8867 125.579 41.6722 125.613 41.4601 125.59L40.8751 125.53C40.6078 125.503 40.3391 125.566 40.1117 125.709C39.8843 125.852 39.7113 126.067 39.6201 126.32L39.4301 126.82C39.341 127.067 39.3353 127.337 39.4138 127.588C39.4924 127.839 39.6508 128.058 39.8651 128.21L40.4101 128.6C40.5817 128.72 40.7184 128.883 40.8062 129.072C40.8941 129.262 40.9299 129.472 40.9101 129.68C40.8793 129.991 40.8659 130.303 40.8701 130.615C40.8614 130.819 40.8015 131.018 40.6957 131.193C40.59 131.367 40.4419 131.513 40.2651 131.615L39.7101 131.925C39.4756 132.057 39.2917 132.263 39.1875 132.511C39.0834 132.759 39.065 133.035 39.1351 133.295L39.2751 133.795C39.3451 134.05 39.497 134.276 39.7074 134.437C39.9179 134.597 40.1753 134.685 40.4401 134.685H41.0201C41.2318 134.683 41.44 134.739 41.623 134.845C41.806 134.951 41.9569 135.105 42.0601 135.29C42.2125 135.572 42.3794 135.845 42.5601 136.11C42.6805 136.282 42.7524 136.483 42.7682 136.693C42.7841 136.902 42.7432 137.112 42.6501 137.3L42.4101 137.8C42.2933 138.042 42.2608 138.317 42.3179 138.579C42.375 138.842 42.5183 139.078 42.7251 139.25L43.1351 139.59C43.3424 139.767 43.6033 139.868 43.8755 139.878C44.1477 139.888 44.4154 139.806 44.6351 139.645L45.0551 139.345C45.2277 139.221 45.4303 139.145 45.642 139.124C45.8538 139.104 46.0671 139.141 46.2601 139.23C46.5607 139.379 46.8695 139.511 47.1851 139.625C47.3808 139.697 47.5539 139.819 47.6865 139.98C47.8192 140.141 47.9067 140.334 47.9401 140.54L48.0301 141.04C48.0739 141.305 48.2051 141.547 48.4027 141.728C48.6002 141.909 48.8528 142.019 49.1201 142.04L49.6651 142.09C49.9303 142.111 50.1949 142.044 50.4182 141.899C50.6414 141.755 50.8108 141.541 50.9001 141.29L51.0651 140.825C51.1355 140.625 51.2578 140.448 51.4195 140.31C51.5811 140.173 51.7763 140.082 51.9851 140.045C52.3224 139.993 52.6563 139.921 52.9851 139.83C53.1872 139.778 53.3994 139.781 53.6004 139.837C53.8014 139.893 53.984 140.001 54.1301 140.15L54.4801 140.505C54.6673 140.693 54.9114 140.814 55.1745 140.85C55.4376 140.885 55.705 140.832 55.9351 140.7L56.4051 140.435C56.6384 140.302 56.8207 140.095 56.9231 139.847C57.0254 139.599 57.042 139.324 56.9701 139.065L56.8451 138.6C56.7859 138.398 56.7825 138.183 56.8353 137.979C56.8881 137.775 56.9952 137.588 57.1451 137.44C57.3913 137.195 57.625 136.938 57.8451 136.67C57.9817 136.508 58.1588 136.386 58.3583 136.316C58.5578 136.246 58.7724 136.23 58.9801 136.27L59.4801 136.355C59.7424 136.403 60.0132 136.363 60.2503 136.241C60.4874 136.119 60.6772 135.922 60.7901 135.68L61.0151 135.18C61.1288 134.936 61.1576 134.66 61.0969 134.397C61.0362 134.135 60.8895 133.9 60.6801 133.73L60.3201 133.44C60.1567 133.311 60.03 133.142 59.9528 132.949C59.8755 132.756 59.8505 132.546 59.8801 132.34C59.9406 131.986 59.979 131.629 59.9951 131.27C60.0276 131.08 60.1055 130.901 60.2222 130.748C60.3388 130.595 60.4908 130.472 60.6651 130.39ZM56.4101 130.705C56.4101 131.892 56.0582 133.052 55.3989 134.038C54.7396 135.025 53.8025 135.794 52.7062 136.248C51.6098 136.702 50.4034 136.821 49.2395 136.59C48.0757 136.358 47.0066 135.787 46.1674 134.948C45.3283 134.109 44.7569 133.039 44.5254 131.876C44.2939 130.712 44.4127 129.505 44.8668 128.409C45.3209 127.313 46.09 126.375 47.0767 125.716C48.0634 125.057 49.2234 124.705 50.4101 124.705C51.9971 124.705 53.5194 125.334 54.6439 126.454C55.7684 127.573 56.4035 129.093 56.4101 130.68V130.705Z" fill="white"/>
<path d="M201.441 156.193C208.182 153.453 211.425 145.767 208.685 139.026C205.945 132.286 198.26 129.042 191.519 131.782C184.778 134.522 181.535 142.208 184.274 148.948C187.014 155.689 194.7 158.933 201.441 156.193Z" fill="#263238"/>
<path d="M207.999 145.018C209.008 138.771 204.763 132.889 198.516 131.879C192.269 130.87 186.387 135.115 185.377 141.362C184.368 147.609 188.613 153.491 194.86 154.501C201.107 155.51 206.989 151.265 207.999 145.018Z" fill="white" stroke="#263238" stroke-width="1.00285" stroke-miterlimit="10"/>
<path d="M189.075 146.075L196.485 143.97V133.605" stroke="#263238" stroke-width="2" stroke-miterlimit="10"/>
<path d="M179.06 155.26V106.08" stroke="#263238" stroke-linecap="round" stroke-linejoin="round"/>
<path d="M76.8848 159.46V60.3198" stroke="#263238" stroke-linecap="round" stroke-linejoin="round"/>
<path d="M43.6849 117.77H201.99" stroke="#263238" stroke-linecap="round" stroke-linejoin="round"/>
<path d="M124.805 56.5298L83.7999 81.7998" stroke="#263238" stroke-width="0.5" stroke-linecap="round" stroke-linejoin="round"/>
<path d="M130.22 58.2397L97.3649 78.4797" stroke="#263238" stroke-width="0.5" stroke-linecap="round" stroke-linejoin="round"/>
<path d="M144.565 49.3999L134.64 55.5099" stroke="#263238" stroke-width="0.5" stroke-linecap="round" stroke-linejoin="round"/>
<path d="M55.2699 187.145H194.87" stroke="#263238" stroke-miterlimit="10"/>
<path d="M122.765 195.405L130.27 212.655L155.045 209.495L140.665 195.405H122.765Z" fill="white" stroke="#263238" stroke-linecap="round" stroke-linejoin="round"/>
<path d="M149.45 193.91L166.365 206.4L139.715 209.995L128.535 194.21L149.45 193.91Z" fill="white" stroke="#263238" stroke-linecap="round" stroke-linejoin="round"/>
<path d="M53.3199 201.65L64.66 191.185H109.785L91.985 202.91L53.3199 201.65Z" fill="white" stroke="#263238" stroke-linecap="round" stroke-linejoin="round"/>
<path d="M91.525 204.46L50.735 202.2L45.47 186.795L40.49 172.225L82.665 173.94L89.55 197.665L91.525 204.46Z" fill="white" stroke="#263238" stroke-linecap="round" stroke-linejoin="round"/>
<path d="M91.5249 204.46L50.7348 202.2L45.4698 186.795C52.1798 187.565 58.9399 186.52 70.6499 188.42C80.9049 190.075 86.5099 194.03 89.5499 197.665L91.5249 204.46Z" fill="#263238" stroke="#263238" stroke-miterlimit="10"/>
<path d="M109.785 191.51V192.95L91.8899 204.36L81.5699 174.43L83.1299 173.73L92.6499 202.2L109.785 191.51Z" fill="white" stroke="#263238" stroke-miterlimit="10"/>
<path d="M83.3649 173.625L81.5699 174.43L40.83 171.995L42.925 170.975L83.3199 173.48L83.3649 173.625Z" fill="white" stroke="#263238" stroke-miterlimit="10"/>
<path d="M83.3649 173.625L83.3199 173.48L83.2499 173.22L42.9399 170.72H42.8749L40.1949 172.025L40.2499 172.21L81.5549 174.675H81.6149L83.4299 173.86L83.3649 173.625ZM81.5199 174.175L41.7949 171.805L42.9999 171.23L82.6449 173.685L81.5199 174.175Z" fill="#263238"/>
<path d="M92.65 202.2L91.89 204.36" stroke="#263238" stroke-miterlimit="10"/>
<path d="M186.615 182.625H163.315C163.315 182.625 163.315 188.88 166.605 197.065C166.605 198.635 170.37 199.89 175.015 199.89C179.66 199.89 183.42 198.625 183.42 197.065C183.43 196.989 183.43 196.911 183.42 196.835C186.58 188.76 186.615 182.625 186.615 182.625Z" fill="white" stroke="#263238" stroke-linecap="round" stroke-linejoin="round"/>
<path d="M175.046 186.02C181.507 186.02 186.746 184.5 186.746 182.625C186.746 180.75 181.507 179.23 175.046 179.23C168.584 179.23 163.346 180.75 163.346 182.625C163.346 184.5 168.584 186.02 175.046 186.02Z" fill="white" stroke="#263238" stroke-linecap="round" stroke-linejoin="round"/>
<path d="M175.045 179.785C180.845 179.785 185.545 181.06 185.545 182.625C185.545 184.19 180.845 185.465 175.045 185.465C169.245 185.465 164.545 184.195 164.545 182.625C164.545 181.055 169.245 179.785 175.045 179.785Z" fill="white" stroke="#263238" stroke-linecap="round" stroke-linejoin="round"/>
<path d="M165.535 183.825C167.215 184.795 170.835 185.455 175.035 185.455C179.235 185.455 182.865 184.795 184.535 183.825C182.86 182.865 179.23 182.195 175.035 182.195C170.84 182.195 167.215 182.865 165.535 183.825Z" fill="#263238" stroke="#263238" stroke-linecap="round" stroke-linejoin="round"/>
<path d="M170.15 184.095C170.15 184.095 167.105 176.5 168 174.47C168.895 172.44 171.8 172.7 172.82 174.725C173.84 176.75 174.32 184.35 174.32 184.35C174.32 184.35 171.29 185.365 170.15 184.095Z" fill="#DD4D32" stroke="#263238" stroke-linecap="round" stroke-linejoin="round"/>
<path d="M172.815 184.855C172.815 184.855 170.405 171.44 171.035 168.9C171.665 166.36 174.84 165.475 177.115 167.375C179.39 169.275 178.525 178.905 178.525 180.295C178.525 181.685 178.4 184.605 178.4 184.605C176.594 185.187 174.665 185.273 172.815 184.855Z" fill="#DD4D32" stroke="#263238" stroke-linecap="round" stroke-linejoin="round"/>
<path d="M177.75 184.605C177.75 184.605 175.87 179.405 176.995 177.38C178.12 175.355 180.41 176.115 180.41 177.76C180.41 179.405 180.54 183.34 180.285 184.22C180.03 185.1 178.64 185.365 177.75 184.605Z" fill="#DD4D32" stroke="#263238" stroke-linecap="round" stroke-linejoin="round"/>
<path d="M174.965 184.5C171.795 172.5 174.465 166.5 174.465 166.5C174.465 166.5 178.26 173.09 176.235 184.5" stroke="#263238" stroke-linecap="round" stroke-linejoin="round"/>
<path d="M169.77 174.215C169.77 174.215 166.855 174.345 171.67 184.35" stroke="#263238" stroke-linecap="round" stroke-linejoin="round"/>
<path d="M137.945 176.27C140.631 179.496 142.473 183.34 143.305 187.455H103.37C103.37 187.455 104.155 180.405 106.605 176.27C109.055 172.135 137.945 176.27 137.945 176.27Z" fill="#263238"/>
<path d="M157.2 122.235C155.535 120.865 141.13 114.905 141.13 114.905C140.36 110.295 137.83 108.045 137.83 108.045C137.83 108.045 129.105 105.51 126.33 107.66C124.669 108.935 123.263 110.51 122.185 112.305C110.47 111.56 106.52 115.465 106.52 115.465C106.52 115.465 102.37 132.825 99.8249 141.865C98.2753 147.357 96.206 152.69 93.6449 157.79C93.6449 157.79 89.8749 163.58 92.5099 166.715C95.1449 169.85 106.445 169.905 106.445 169.905L104.385 181.235C104.385 181.235 107.485 183.735 119.95 186.64C132.415 189.545 142.56 182 142.56 182L138.23 170.855C142.73 169.945 149.535 164.975 149.535 164.975C156.29 154.975 158.62 128.325 158.79 126.345C158.96 124.365 158.86 123.605 157.2 122.235ZM140.2 157.79C140.2 157.79 138.095 156.54 138.035 156.51L137.945 153.01L146.38 143.51L140.2 157.79Z" fill="#DD4D32"/>
<path opacity="0.1" d="M157.2 122.235C155.535 120.865 141.13 114.905 141.13 114.905C140.36 110.295 137.83 108.045 137.83 108.045C137.83 108.045 129.105 105.51 126.33 107.66C124.669 108.935 123.263 110.51 122.185 112.305C110.47 111.56 106.52 115.465 106.52 115.465C106.52 115.465 102.37 132.825 99.8249 141.865C98.2753 147.357 96.206 152.69 93.6449 157.79C93.6449 157.79 89.8749 163.58 92.5099 166.715C95.1449 169.85 106.445 169.905 106.445 169.905L104.385 181.235C104.385 181.235 107.485 183.735 119.95 186.64C132.415 189.545 142.56 182 142.56 182L138.23 170.855C142.73 169.945 149.535 164.975 149.535 164.975C156.29 154.975 158.62 128.325 158.79 126.345C158.96 124.365 158.86 123.605 157.2 122.235ZM140.2 157.79C140.2 157.79 138.095 156.54 138.035 156.51L137.945 153.01L146.38 143.51L140.2 157.79Z" fill="black"/>
<path d="M118.925 161.77C118.925 161.77 116.33 165.43 115.925 168.21C117.76 168.33 119.603 168.265 121.425 168.015C124.255 167.595 125.56 167.91 127.665 163.115L129.615 163.085C129.615 163.085 132.175 166.895 136.04 166.085C136.04 166.085 136.835 166.74 138.2 166.115L133.87 160.615C133.87 160.615 139.61 165.76 141.535 163.27L134.375 158.375C134.375 158.375 137.98 158.995 139.84 159.985C141.7 160.975 142.385 158.68 142.385 158.68L136.445 156C136.445 156 131.9 156.365 130.815 155.97C129.73 155.575 129.045 155.05 128.245 155.83C127.445 156.61 121.64 161.535 121.64 161.535L118.925 161.77Z" fill="white"/>
<path d="M116.09 168.24C116.09 168.24 123.73 168.24 125.05 167.27C126.37 166.3 127.66 163.115 127.66 163.115L129.61 163.085C129.61 163.085 133.375 167.035 136.035 166.085C136.035 166.085 129.655 159.3 128.535 158.91" stroke="#263238" stroke-width="0.985658" stroke-linecap="round" stroke-linejoin="round"/>
<path d="M135.8 165.82C136.121 166.109 136.524 166.291 136.953 166.341C137.383 166.39 137.817 166.304 138.195 166.095C138.195 166.095 131.575 157.925 130.115 157.685" stroke="#263238" stroke-width="0.985658" stroke-linecap="round" stroke-linejoin="round"/>
<path d="M119.385 161.565L121.64 161.53C121.64 161.53 126.545 157.81 127.45 156.6C128.355 155.39 129.415 155.245 130.085 155.765C130.755 156.285 136.445 155.995 136.445 155.995L142.38 158.665C142.38 158.665 141.55 160.545 140.22 160.105C138.89 159.665 135.895 158.355 134.37 158.36" stroke="#263238" stroke-width="0.985658" stroke-linecap="round" stroke-linejoin="round"/>
<path d="M132.89 157.245C132.89 157.245 136.71 160.16 138.39 161.245C140.07 162.33 141.535 163.245 141.535 163.245C141.535 163.245 140.095 164.27 138.695 163.695C137.295 163.12 132.545 159.63 132.545 159.63" stroke="#263238" stroke-width="0.985658" stroke-linecap="round" stroke-linejoin="round"/>
<path d="M116.2 169.125C116.2 169.125 116.65 163.16 120.52 160.81L114.575 159.775C114.575 159.775 110.575 164.24 110.715 168.94L116.2 169.125Z" fill="white"/>
<path d="M124.245 119C124.245 119 123.375 111.075 126.315 107.64C121.181 112.17 117.853 118.399 116.94 125.185C116.94 125.185 121.91 119.435 124.245 119Z" fill="white"/>
<path d="M107.655 158.55L104.435 153.675C104.4 153.623 104.348 153.585 104.288 153.569C104.228 153.552 104.164 153.557 104.108 153.584C104.051 153.611 104.006 153.657 103.981 153.714C103.956 153.771 103.952 153.835 103.97 153.895C104.351 155.128 104.894 156.305 105.585 157.395L101.93 154.34C101.866 154.286 101.786 154.254 101.702 154.249C101.618 154.244 101.535 154.266 101.465 154.312C101.395 154.358 101.341 154.425 101.312 154.504C101.284 154.583 101.281 154.669 101.305 154.75C101.65 155.855 102.355 157.485 103.665 158.455L107.655 158.55Z" fill="white" stroke="#263238" stroke-miterlimit="10"/>
<path d="M137.83 108.04C137.83 108.04 140.215 110.135 140.675 112.54C141.135 114.945 141.9 119.54 141.9 119.54L136.565 130.26C136.565 130.26 133.43 122.57 128.565 120.605C128.58 120.575 136.805 115.625 137.83 108.04Z" fill="white"/>
<path d="M137.83 108.045C138.24 108.62 142.22 107.62 142.755 107.495C145.825 106.765 148.825 105.22 150.54 102.47C152.815 98.8248 152.085 95.0848 151.11 91.1898C150.395 88.3348 149.61 85.4998 148.81 82.6898C148.11 80.1898 147.72 77.5398 146.66 75.1898C145.13 71.8048 142.66 68.8298 139.255 67.2498C129.945 62.9498 116.92 69.8248 113.55 72.5848C110.18 75.3448 109.925 83.3548 118.09 87.9198C126.255 92.4848 137.81 108 137.83 108.045Z" fill="#263238"/>
<path d="M120.325 77.8848C120.325 77.8848 117.055 80.5398 116.95 82.0598C116.845 83.5798 117.34 85.2148 117.15 88.1348C116.96 91.0548 116.415 96.3148 118.975 99.7948C118.975 99.7948 120.72 103.93 126 106.08L126.315 107.66C126.315 107.66 124.18 112.13 124.075 115.87C124.005 118.51 124.65 120.925 129.04 120.545C135.075 116.97 137.62 108.955 137.62 108.955L135.71 99.7198L136.21 95.0948C136.21 95.0948 139.045 95.3148 139.895 92.8648C139.895 92.8648 141.55 84.8198 135.565 90.5248C128.1 88.5748 123.03 83.8998 120.325 77.8848Z" fill="white"/>
<path d="M122.455 97.3596C123.19 97.7302 124.032 97.83 124.833 97.6417C125.634 97.4533 126.343 96.9888 126.835 96.3296" stroke="#263238" stroke-width="0.75" stroke-linecap="round" stroke-linejoin="round"/>
<path d="M121.79 88.3848C121.79 88.3848 120.925 93.4398 121.24 94.6498C121.24 94.6498 122.005 95.5648 123.825 95.3298" stroke="#263238" stroke-linecap="round" stroke-linejoin="round"/>
<path d="M120.325 77.8848C120.325 77.8848 117.68 80.3848 116.73 82.5098C116.966 84.3764 117.106 86.2538 117.15 88.1348C117.15 90.4748 116.09 94.6348 118.3 98.6848C120.51 102.735 125.27 106.64 128 106.5C130.73 106.36 135.615 103.595 136.475 95.8548C136.475 95.8548 141.205 95.3248 140.975 93.2048C140.955 93.2198 145.1 85.9998 120.325 77.8848Z" stroke="#263238" stroke-linecap="round" stroke-linejoin="round"/>
<path d="M137.62 108.955L135.51 99.8999" stroke="#263238" stroke-linecap="round" stroke-linejoin="round"/>
<path d="M124.245 119C124.526 119.336 124.865 119.621 125.245 119.84C126.386 120.495 127.717 120.737 129.015 120.525" stroke="#263238" stroke-linecap="round" stroke-linejoin="round"/>
<path d="M126 106.08C126.095 106.61 126.315 107.66 126.315 107.66L126.145 107.94" stroke="#263238" stroke-linecap="round" stroke-linejoin="round"/>
<path d="M121.7 88.8497C121.83 91.3897 120.335 93.5297 118.36 93.6347C116.385 93.7397 114.67 91.7597 114.54 89.2197C114.41 86.6797 115.91 84.5397 117.885 84.4347C119.86 84.3297 121.57 86.3097 121.7 88.8497Z" stroke="#263238" stroke-width="0.75" stroke-linecap="round" stroke-linejoin="round"/>
<path d="M126.851 92.7484C128.828 92.6468 130.325 90.5055 130.195 87.9656C130.064 85.4256 128.356 83.4489 126.378 83.5505C124.401 83.6521 122.904 85.7934 123.034 88.3333C123.165 90.8732 124.873 92.8499 126.851 92.7484Z" stroke="#263238" stroke-width="0.75" stroke-linecap="round" stroke-linejoin="round"/>
<path d="M127 156.42L114.085 148.455C114.049 148.424 114.023 148.382 114.012 148.335C114.002 148.288 114.006 148.239 114.025 148.195C114.049 148.142 114.093 148.101 114.147 148.08C114.202 148.06 114.262 148.061 114.315 148.085L127.235 156.06C127.259 156.074 127.28 156.093 127.296 156.116C127.312 156.138 127.324 156.164 127.33 156.191C127.336 156.218 127.336 156.246 127.331 156.274C127.326 156.301 127.316 156.327 127.3 156.35C127.282 156.384 127.254 156.412 127.221 156.432C127.187 156.451 127.149 156.461 127.11 156.46C127.07 156.459 127.031 156.445 127 156.42Z" fill="#263238"/>
<path d="M120.21 153.895L113.21 149.795C113.16 149.766 113.123 149.718 113.108 149.661C113.093 149.605 113.101 149.545 113.13 149.495C113.162 149.447 113.21 149.413 113.266 149.4C113.322 149.387 113.381 149.396 113.43 149.425L120.43 153.525C120.454 153.538 120.475 153.556 120.492 153.578C120.509 153.6 120.521 153.625 120.528 153.651C120.535 153.678 120.537 153.706 120.533 153.733C120.529 153.76 120.519 153.786 120.505 153.81C120.486 153.843 120.458 153.871 120.425 153.89C120.391 153.909 120.354 153.92 120.315 153.92C120.278 153.921 120.242 153.913 120.21 153.895Z" fill="#263238"/>
<path d="M151.36 133.345C151.309 133.319 151.27 133.274 151.251 133.22C151.232 133.166 151.236 133.107 151.26 133.055C153.1 129.594 155.159 126.253 157.425 123.055C157.457 123.008 157.507 122.975 157.563 122.964C157.619 122.953 157.677 122.964 157.725 122.995C157.77 123.028 157.8 123.077 157.81 123.132C157.819 123.187 157.807 123.244 157.775 123.29C155.517 126.465 153.468 129.784 151.64 133.225C151.623 133.264 151.595 133.296 151.559 133.319C151.524 133.342 151.482 133.355 151.44 133.355L151.36 133.345Z" fill="#263238"/>
<path d="M120.5 160.81C120.5 160.81 116.28 163.845 116.18 169.125H110.73C110.691 167.374 111.03 165.636 111.726 164.029C112.422 162.422 113.457 160.984 114.76 159.815L120.5 160.81Z" stroke="#263238" stroke-linecap="round" stroke-linejoin="round"/>
<path d="M140.2 157.39L148.505 138.77" stroke="#263238" stroke-linecap="round" stroke-linejoin="round"/>
<path d="M110.73 169.125C110.73 169.125 101.31 171.36 94.695 168.27C88.08 165.18 93.155 158.55 93.155 158.55C99.33 149.465 106.505 115.47 106.505 115.47C106.505 115.47 108.185 111.795 121.565 112.295" stroke="#263238" stroke-linecap="round" stroke-linejoin="round"/>
<path d="M114.76 159.815C114.76 159.815 103.185 157.275 98.4449 159.085" stroke="#263238" stroke-linecap="round" stroke-linejoin="round"/>
<path d="M103.43 158.35C103.43 158.35 101.655 156.195 101.13 154.6C101.104 154.519 101.104 154.433 101.132 154.353C101.159 154.273 101.213 154.204 101.283 154.157C101.354 154.111 101.438 154.089 101.522 154.094C101.607 154.1 101.687 154.134 101.75 154.19L105.585 157.39C104.949 156.253 104.372 155.085 103.855 153.89C103.82 153.814 103.816 153.728 103.841 153.649C103.867 153.57 103.922 153.504 103.995 153.464C104.067 153.423 104.152 153.412 104.233 153.431C104.314 153.451 104.384 153.5 104.43 153.57L108 158.675" stroke="#263238" stroke-linecap="round" stroke-linejoin="round"/>
<path d="M141.13 114.9L156.43 121.785C157.196 122.128 157.837 122.699 158.267 123.421C158.696 124.142 158.893 124.978 158.83 125.815C158.22 133.79 156.21 153.585 149.36 165.28C149.36 165.28 131.455 179.78 110.73 169.125" stroke="#263238" stroke-linecap="round" stroke-linejoin="round"/>
<path d="M146.755 142.685L137.94 153.01L138.035 156.51" stroke="#263238" stroke-linecap="round" stroke-linejoin="round"/>
<path d="M121.345 137.53C121.345 137.53 123.32 130.5 126.105 126.465" stroke="#263238" stroke-linecap="round" stroke-linejoin="round"/>
<path d="M106.435 169.905L104.375 181.235C104.375 181.235 125.375 193.905 142.565 182L138.315 171.035" stroke="#263238" stroke-linecap="round" stroke-linejoin="round"/>
<path d="M107.71 125.05L106.875 136.095C106.875 136.095 101.655 144.595 107.71 151.135L108.005 158.675" stroke="#263238" stroke-linecap="round" stroke-linejoin="round"/>
<path d="M129.265 120.5C129.265 120.5 136.345 115.715 137.83 108.035C137.83 108.035 140.33 110.335 140.83 113.17C141.33 116.005 141.9 119.5 141.9 119.5L136.35 130.65C136.35 130.65 133.175 122.435 130.275 121.71" stroke="#263238" stroke-linecap="round" stroke-linejoin="round"/>
<path d="M126.315 107.66C126.315 107.66 123.345 110.9 124.245 119.02C124.245 119.02 118.57 122.435 116.81 125.755C116.81 125.755 120.04 110.97 126.315 107.66Z" stroke="#263238" stroke-linecap="round" stroke-linejoin="round"/>
<path d="M121.625 88.1499H123.03" stroke="#263238" stroke-width="0.75" stroke-linecap="round" stroke-linejoin="round"/>
<path d="M116.94 90.7896C116.94 90.7896 114.23 97.0395 115.44 102.555C116.65 108.07 126.335 107.66 126.335 107.66L126.02 106.08C126.02 106.08 115.805 101.205 116.94 90.7896Z" fill="#263238"/>
<path d="M122.5 72.3696C122.5 72.3696 127.445 85.6246 139.5 87.0346" stroke="#263238" stroke-width="0.75" stroke-linecap="round" stroke-linejoin="round"/>
<path d="M126 70.4199C126 70.4199 134.28 82.4699 145.385 82.8949" stroke="#263238" stroke-width="0.75" stroke-linecap="round" stroke-linejoin="round"/>
<path d="M125.205 89.0348C125.205 89.0348 126.205 87.8298 128.58 88.5348" stroke="#263238" stroke-linecap="round" stroke-linejoin="round"/>
<path d="M120.715 89.6448C120.307 89.2984 119.818 89.0609 119.293 88.9543C118.769 88.8476 118.226 88.8753 117.715 89.0348" stroke="#263238" stroke-linecap="round" stroke-linejoin="round"/>
<path d="M127.47 90.4549C127.857 90.4549 128.17 89.9154 128.17 89.2499C128.17 88.5844 127.857 88.0449 127.47 88.0449C127.083 88.0449 126.77 88.5844 126.77 89.2499C126.77 89.9154 127.083 90.4549 127.47 90.4549Z" fill="#263238"/>
<path d="M120.59 90.1299C120.59 90.6799 120.33 91.1299 120.01 91.1299C119.69 91.1299 119.435 90.6899 119.435 90.1299C119.435 89.5699 119.695 89.1299 120.01 89.1299C120.325 89.1299 120.59 89.5849 120.59 90.1299Z" fill="#263238"/>
<path d="M123.825 86.0796C123.825 86.0796 125.29 84.1146 128.17 85.0796" stroke="#263238" stroke-linecap="round" stroke-linejoin="round"/>
<path d="M120 86.0799C120 86.0799 118.4 84.6199 117.11 85.7999" stroke="#263238" stroke-linecap="round" stroke-linejoin="round"/>
</svg>
