<svg width="76" height="93" viewBox="0 0 76 93" fill="none" xmlns="http://www.w3.org/2000/svg">
<path d="M1.85725 59.2455C2.61713 59.2455 3.23318 58.6356 3.23318 57.8832V2.72461H68.6796V10.2173C68.6796 10.9696 69.2957 11.5796 70.0556 11.5796C70.8155 11.5796 71.4315 10.9696 71.4315 10.2173V1.3623C71.4315 0.609949 70.8155 0 70.0556 0H1.85725C1.09737 0 0.481323 0.609949 0.481323 1.3623V57.8832C0.481323 58.6358 1.09737 59.2455 1.85725 59.2455Z" fill="#DD4D32"/>
<path d="M17.4243 15.2016H54.4885C55.2484 15.2016 55.8645 14.5916 55.8645 13.8393V7.60083C55.8645 6.84847 55.2484 6.23853 54.4885 6.23853H17.4243C16.6644 6.23853 16.0484 6.84847 16.0484 7.60083V13.8393C16.0484 14.5916 16.6644 15.2016 17.4243 15.2016ZM18.8003 8.96313H53.1126V12.477H18.8003V8.96313Z" fill="#DD4D32"/>
<path d="M18.9069 34.4956H11.4941C10.7342 34.4956 10.1182 35.1056 10.1182 35.8579C10.1182 36.6103 10.7342 37.2202 11.4941 37.2202H18.9069C19.6667 37.2202 20.2828 36.6103 20.2828 35.8579C20.2828 35.1056 19.6667 34.4956 18.9069 34.4956Z" fill="#DD4D32"/>
<path d="M20.2828 42.4631C20.2828 41.7108 19.6667 41.1008 18.9069 41.1008H11.4941C10.7342 41.1008 10.1182 41.7108 10.1182 42.4631C10.1182 43.2155 10.7342 43.8254 11.4941 43.8254H18.9069C19.6667 43.8254 20.2828 43.2155 20.2828 42.4631Z" fill="#DD4D32"/>
<path d="M60.4187 21.2844H17.0537C16.2938 21.2844 15.6778 21.8944 15.6778 22.6467C15.6778 23.3991 16.2938 24.009 17.0537 24.009H60.4189C61.1788 24.009 61.7949 23.3991 61.7949 22.6467C61.7949 21.8944 61.1788 21.2844 60.4187 21.2844Z" fill="#DD4D32"/>
<path d="M61.7947 29.2524C61.7947 28.5001 61.1787 27.8901 60.4188 27.8901H11.4941C10.7342 27.8901 10.1182 28.5001 10.1182 29.2524C10.1182 30.0048 10.7342 30.6147 11.4941 30.6147H60.419C61.1788 30.6147 61.7947 30.0048 61.7947 29.2524Z" fill="#DD4D32"/>
<path d="M45.1159 55.6743C45.1159 54.922 44.4998 54.312 43.74 54.312H11.4941C10.7342 54.312 10.1182 54.922 10.1182 55.6743C10.1182 56.4267 10.7342 57.0366 11.4941 57.0366H43.74C44.4998 57.0366 45.1159 56.4267 45.1159 55.6743Z" fill="#DD4D32"/>
<path d="M35.2152 84.2205H20.3895C19.6297 84.2205 19.0136 84.8304 19.0136 85.5828C19.0136 86.3351 19.6297 86.9451 20.3895 86.9451H35.2152C35.9751 86.9451 36.5912 86.3351 36.5912 85.5828C36.5912 84.8304 35.9751 84.2205 35.2152 84.2205Z" fill="#DD4D32"/>
<path d="M75.3797 23.9396C75.2254 23.6121 74.9462 23.3587 74.6033 23.2352L71.4315 22.0923V16.5813C71.4315 15.8289 70.8155 15.219 70.0556 15.219C69.2957 15.219 68.6796 15.8289 68.6796 16.5813V21.1512C68.0742 21.0983 67.4848 21.4489 67.267 22.0412L65.149 27.8029C64.6568 27.8674 64.2167 28.1932 64.0352 28.6869L61.634 35.2191C61.4026 34.7888 60.9457 34.4956 60.4189 34.4956H25.5786C24.8187 34.4956 24.2027 35.1056 24.2027 35.8579C24.2027 36.6103 24.8187 37.2202 25.5786 37.2202H60.4189C60.6017 37.2202 60.7756 37.1843 60.9352 37.1201L59.4718 41.101H25.5784C24.8186 41.101 24.2025 41.7109 24.2025 42.4633C24.2025 43.2156 24.8186 43.8256 25.5784 43.8256H58.4699L57.0433 47.7065H17.0537C16.2939 47.7065 15.6778 48.3165 15.6778 49.0688C15.6778 49.8212 16.2939 50.4311 17.0537 50.4311H56.0417L53.2124 58.1274C52.9524 58.8344 53.3206 59.6161 54.0348 59.8735C54.7487 60.1307 55.5384 59.7664 55.7984 59.0592L56.8964 56.0723L61.2762 57.6508L54.1948 76.914C53.6914 78.2832 52.8658 79.5419 51.8069 80.5542L49.6014 82.6627L49.2807 79.6439C49.1268 78.1947 49.3114 76.7049 49.8149 75.3355L53.5991 65.0414C53.8591 64.3344 53.4909 63.5527 52.7767 63.2953C52.0625 63.0377 51.2731 63.4024 51.0131 64.1096L47.2289 74.4037C46.5834 76.1598 46.3465 78.0705 46.5439 79.9288L47.1596 85.7252C47.2146 86.243 47.5632 86.6846 48.0574 86.8628C48.2108 86.918 48.3699 86.9449 48.5278 86.9449C48.8784 86.9449 49.2227 86.8121 49.4836 86.5627L53.7184 82.5143C55.0763 81.2161 56.1352 79.6017 56.7806 77.8458L68.6793 45.478V90.2755H3.23318V64.2522C3.23318 63.4998 2.61713 62.8899 1.85725 62.8899C1.09737 62.8899 0.481323 63.4998 0.481323 64.2522V91.6378C0.481323 92.3901 1.09737 93.0001 1.85725 93.0001H70.0556C70.8155 93.0001 71.4315 92.3901 71.4315 91.6378V37.9922L73.5869 32.129C73.7117 31.7895 73.6952 31.4148 73.5411 31.0875C73.4811 30.9602 73.4018 30.8446 73.3077 30.7429L75.4257 24.9811C75.5505 24.6416 75.534 24.2671 75.3797 23.9396ZM69.3823 24.2531L72.3692 25.3293L70.7751 29.6658L67.7882 28.5894L69.3823 24.2531ZM66.1505 30.8989L70.5304 32.4774L64.2459 49.5731L59.866 47.9946L66.1505 30.8989ZM62.2176 55.0904L57.8377 53.5119L58.9247 50.5548L63.3045 52.1333L62.2176 55.0904Z" fill="#DD4D32"/>
<path d="M36.3039 72.6927C35.7665 72.1607 34.8953 72.1607 34.3581 72.6927L30.1714 76.8378C29.944 76.2721 29.4936 75.8084 28.9006 75.5652C28.0285 75.2077 27.0336 75.4035 26.366 76.0645L24.6378 77.7756V75.3534C24.6378 74.4187 24.0742 73.5835 23.2021 73.2258C22.3301 72.8684 21.3351 73.064 20.6673 73.725L10.521 83.7708C9.98364 84.3028 9.98364 85.1654 10.521 85.6973C10.7896 85.9632 11.1418 86.0964 11.4939 86.0964C11.8459 86.0964 12.1982 85.9634 12.4667 85.6973L21.8858 76.3715V78.7937C21.8858 79.7284 22.4494 80.5636 23.3215 80.9212C24.1939 81.2791 25.1887 81.0831 25.8562 80.4221L27.7493 78.5477C27.9769 79.1134 28.4271 79.5773 29.0201 79.8203C29.8924 80.1783 30.8873 79.9821 31.5547 79.3212L36.3035 74.6194C36.8412 74.0872 36.8412 73.2246 36.3039 72.6927Z" fill="#DD4D32"/>
</svg>
