<svg width="76" height="93" fill="none" xmlns="http://www.w3.org/2000/svg"><path d="M1.857 59.245c.76 0 1.376-.61 1.376-1.362V2.725H68.68v7.492a1.37 1.37 0 001.376 1.363c.76 0 1.376-.61 1.376-1.363V1.362A1.37 1.37 0 0070.055 0H1.857C1.097 0 .481.61.481 1.362v56.521c0 .753.616 1.362 1.376 1.362z" fill="#DD4D32"/><path d="M17.424 15.202h37.064c.76 0 1.377-.61 1.377-1.363V7.601a1.37 1.37 0 00-1.377-1.362H17.425c-.76 0-1.376.61-1.376 1.362v6.238a1.37 1.37 0 001.376 1.363zM18.8 8.963h34.313v3.514H18.8V8.963zM18.907 34.496h-7.413c-.76 0-1.376.61-1.376 1.362a1.37 1.37 0 001.376 1.362h7.413c.76 0 1.376-.61 1.376-1.362a1.37 1.37 0 00-1.376-1.362zM20.283 42.463a1.37 1.37 0 00-1.376-1.362h-7.413c-.76 0-1.376.61-1.376 1.362a1.37 1.37 0 001.376 1.362h7.413c.76 0 1.376-.61 1.376-1.362zM60.419 21.284H17.054c-.76 0-1.376.61-1.376 1.363a1.37 1.37 0 001.376 1.362h43.365c.76 0 1.376-.61 1.376-1.362a1.37 1.37 0 00-1.376-1.363zM61.795 29.252a1.37 1.37 0 00-1.376-1.362H11.494c-.76 0-1.376.61-1.376 1.362a1.37 1.37 0 001.376 1.363H60.42c.76 0 1.376-.61 1.376-1.363zM45.116 55.674a1.37 1.37 0 00-1.376-1.362H11.494c-.76 0-1.376.61-1.376 1.362a1.37 1.37 0 001.376 1.363H43.74c.76 0 1.376-.61 1.376-1.363zM35.215 84.22H20.39c-.76 0-1.375.61-1.375 1.363a1.37 1.37 0 001.376 1.362h14.825c.76 0 1.376-.61 1.376-1.362a1.37 1.37 0 00-1.376-1.362z" fill="#DD4D32"/><path d="M75.38 23.94a1.37 1.37 0 00-.777-.705l-3.171-1.143v-5.51a1.37 1.37 0 00-1.376-1.363c-.76 0-1.376.61-1.376 1.362v4.57a1.376 1.376 0 00-1.413.89l-2.118 5.762c-.492.064-.932.39-1.114.884l-2.401 6.532a1.377 1.377 0 00-1.215-.723h-34.84c-.76 0-1.376.61-1.376 1.362a1.37 1.37 0 001.376 1.362h34.84c.183 0 .357-.036.516-.1l-1.463 3.981H25.578c-.76 0-1.375.61-1.375 1.362a1.37 1.37 0 001.375 1.363H58.47l-1.427 3.88h-39.99c-.76 0-1.375.61-1.375 1.363a1.37 1.37 0 001.376 1.362h38.988l-2.83 7.696c-.26.707.109 1.49.823 1.746a1.38 1.38 0 001.763-.814l1.098-2.987 4.38 1.579-7.081 19.263a9.693 9.693 0 01-2.388 3.64L49.6 82.663l-.32-3.02a9.611 9.611 0 01.534-4.308l3.784-10.294a1.359 1.359 0 00-.822-1.746 1.38 1.38 0 00-1.764.815L47.23 74.404a12.328 12.328 0 00-.685 5.525l.616 5.796c.055.518.403.96.897 1.138a1.388 1.388 0 001.427-.3l4.234-4.049a12.43 12.43 0 003.063-4.668l11.898-32.368v44.797H3.233V64.252a1.37 1.37 0 00-1.376-1.362c-.76 0-1.376.61-1.376 1.362v27.386A1.37 1.37 0 001.857 93h68.199c.76 0 1.376-.61 1.376-1.362V37.992l2.155-5.863a1.35 1.35 0 00-.28-1.386l2.119-5.762a1.35 1.35 0 00-.046-1.041zm-5.998.313l2.987 1.076-1.594 4.337-2.987-1.077 1.594-4.336zM66.15 30.9l4.38 1.578-6.284 17.096-4.38-1.578 6.284-17.096zM62.218 55.09l-4.38-1.578 1.087-2.957 4.38 1.578-1.087 2.957z" fill="#DD4D32"/><path d="M36.304 72.693a1.386 1.386 0 00-1.946 0l-4.187 4.145a2.307 2.307 0 00-1.27-1.273 2.336 2.336 0 00-2.535.5l-1.728 1.71v-2.422c0-.934-.564-1.77-1.436-2.127a2.337 2.337 0 00-2.535.499L10.521 83.771a1.353 1.353 0 000 1.926c.269.266.62.4.973.4.352 0 .704-.134.973-.4l9.419-9.326v2.423c0 .934.563 1.77 1.436 2.127a2.335 2.335 0 002.534-.499l1.893-1.874c.228.565.678 1.03 1.271 1.272a2.335 2.335 0 002.535-.499l4.748-4.702a1.353 1.353 0 000-1.926z" fill="#DD4D32"/></svg>