<svg width="521" height="351" fill="none" xmlns="http://www.w3.org/2000/svg"><path opacity=".31" d="M435.292 351c29.587-1.363 58.629-13.91 72.841-35.492 13.13-19.955 15.571-50.876 9.699-73.076-4.936-18.624-19.03-34.778-35.101-48.442-32.473-27.587-74.318-47.624-101.76-78.759-15.257-17.303-25.406-37.354-40.072-55.002C312.379 25.91 265.153 1.562 214.937.067 164.72-1.427 113.313 22.008 92.447 59.925 74.5 92.545 79.181 132.079 57.08 162.896c-10.158 14.164-25.297 25.439-36.455 39.066C.772 226.229-5.227 257.949 4.717 286.095c9.944 28.146 35.628 52.167 68.128 63.71" fill="#C5E1F9"/><path opacity=".31" d="M109.986 348.296c-20.638-.908-40.904-9.166-50.803-23.389-9.158-13.151-10.862-33.524-6.763-48.152 3.44-12.264 13.272-22.921 24.48-31.929 22.651-18.171 51.811-31.385 70.972-51.904 10.64-11.402 23.37-37.744 33.596-49.373 19.916-22.627 43.531-37.481 78.368-41.197 44.917-4.778 74.736 29.105 89.289 54.098 12.517 21.495 9.253 47.552 24.665 67.861 7.072 9.322 17.648 16.749 25.429 25.739 13.844 15.994 18.029 36.899 11.094 55.451-6.936 18.552-24.847 34.378-47.512 41.987" fill="#C5E1F9"/><path d="M395.051 322.168c1.532-4.366 6.072-6.042 10.131-6.66 8.88 13.882 19.997 16.649 26.051 17.017l-1.768 10.398h-19.998l-1.072-8.3c-5.068-.09-9.544-1.817-11.967-4.792a7.722 7.722 0 01-1.377-7.663zm5.208 4.542c1.196 1.472 3.85 2.758 7.486 2.953l-1.205-9.349c-2.972.364-6.053 1.304-6.817 3.484a2.839 2.839 0 00.536 2.917v-.005z" fill="#fff"/><path d="M405.182 315.508c.241-.036.486-.082.722-.109l-1.209-9.38a.923.923 0 01.167-.677.91.91 0 01.597-.359h29.233a1.023 1.023 0 011.031 1.022c.005.061.005.121 0 .182l-4.476 26.347c-6.09-.377-17.207-3.144-26.065-17.026z" fill="#DD4D32"/><path d="M418.525 301.077c2.891-1.536 5.65-7.073 6.79-9.631 1.141-2.557 1.468-5.628.205-8.126-1.064-2.117-3.109-3.571-4.381-5.565a9.053 9.053 0 01-1.109-7.032c.868-3.33 3.599-5.987 4.226-9.371.737-3.966-1.572-7.782-2.586-11.688a18.665 18.665 0 01.523-10.957c-2.822 1.672-4.508 4.697-6.063 7.582-1.422 2.634-2.886 5.451-2.681 8.44.132 1.876.909 3.634 1.572 5.396 1.196 3.18 2.009 6.691 1.159 9.994-1.286 4.997-6.204 8.89-6.008 14.036.113 3.049 2.091 5.756 4.477 7.659 1.549 1.245 3.345 2.272 4.435 3.943 1.091 1.672 1.128 4.266-.559 5.324" fill="#fff"/><path d="M240.797 150.227c2.318 5.365 4.091 10.552 4.95 15.899.859 5.347 1.159 10.766 2.486 15.999 1.172 4.629 3.127 9.017 5.231 13.301.218.378.35.8.386 1.235 0 .85-.736 1.495-1.422 1.999-10.426 7.618-24.884 9.339-36.814 4.379" fill="#4B3C51"/><path d="M243.574 186.181c-5.675 0-10.276-5.717-10.276-12.769 0-7.052 4.601-12.769 10.276-12.769 5.676 0 10.276 5.717 10.276 12.769 0 7.052-4.6 12.769-10.276 12.769z" fill="#DD4D32"/><path d="M238.738 187.993c-5.675 0-10.276-5.717-10.276-12.769 0-7.052 4.601-12.769 10.276-12.769 5.676 0 10.276 5.717 10.276 12.769 0 7.052-4.6 12.769-10.276 12.769z" fill="#04A2BC"/><path d="M215.618 203.066l21.443-44.972c2.373 7.909 4.727 15.808 6.999 23.753.746 2.64 1.482 5.306 1.727 8.036.214 2.397.05 4.813-.486 7.159-.522 2.272-1.431 4.543-3.031 6.237-.296.294-.609.57-.937.827-8.389 2.544-17.625 2.326-25.715-1.04z" fill="#3E3244"/><path d="M220.123 201.521c-.968 5.452-1.768 11.652 1.618 16.04.745.959 1.713 1.899 1.768 3.116.068 1.59-1.455 2.762-2.882 3.476a22.737 22.737 0 01-17.943.908 2.933 2.933 0 01-1.291-.79c-.727-.909-.263-2.213.186-3.276a39.494 39.494 0 00-.318-30.889" fill="#E8A17E"/><path d="M220.609 199.932c-.945 3.833-1.568 7.522-1.15 11.447a.496.496 0 01-.068.386c-.123.132-.341.082-.514 0a16.188 16.188 0 01-3.636-1.667c-1.863-1.272-4.054-3.607-4.999-5.647a16.674 16.674 0 01-1.736-8.68" fill="#D88D6C"/><path d="M233.239 150.958c3.891 4.343 4.8 10.53 5.313 16.353.455 5.12.727 10.294 0 15.381-.727 5.088-2.513 10.121-5.804 14.082a21.574 21.574 0 01-4.849 4.293 12.303 12.303 0 01-4.091 1.817c-2.776.595-5.644-.2-8.344-1.076-6.149-1.995-12.485-4.688-16.284-9.921-4.945-6.814-8.218-24.757-9.504-33.084" fill="#E8A17E"/><path d="M240.993 156.254a41.753 41.753 0 01-20.398 9.54c-4.349.713-8.781.736-13.18.64a22.668 22.668 0 01-4.922-.486 9.088 9.088 0 01-5.554-3.738c-1.218-1.922-1.363-4.593-.086-6.482" fill="#D88D6C"/><path d="M191.34 133.524c10.971-5.297 26.851-4.202 34.832.363 7.981 4.566 11.285 8.654 15.452 18.171.25.567 1.691 4.065 1.473 4.647a1.666 1.666 0 01-1.073 1.117c-9.858 3.761-18.525 4.438-29.06 4.961-3.513.172-7.072.177-10.485-.65-4.836 16.181-2.318 27.778 5.731 42.628-5.24 2.207-25.606 3.475-35.3-4.03-2.504-1.935-4.786-4.224-6.304-6.995-3.854-7.032-2.199-15.704-.104-23.444 1.559-5.76 3.327-11.516 6.158-16.772 4.35-8.067 10.262-16.353 18.68-19.987" fill="#4B3C51"/><path d="M229.753 186.618c-.799 2.471-1.718 4.751-3.904 6.15s-5.072 1.227-7.403.137c-2.332-1.091-4.545-3.834-6.186-5.824 5.663.527 11.894.522 17.493-.454" fill="#fff"/><path d="M184.277 199.623a4.937 4.937 0 001.586-1.958c.618-1.531.082-3.257-.395-4.838-.805-2.676-1.423-5.451-1.327-8.245.095-2.794.972-5.633 2.845-7.722 2.727-3.007 6.972-3.961 10.944-4.756l2.499-.5c-1.481 11.597 1.364 21.35 7.727 33.161-5.236 2.207-25.606 3.475-35.3-4.029-.355-.273-.691-.573-1.037-.859.585.343 1.193.647 1.818.908 3.491 1.359 7.704 1.154 10.64-1.162z" fill="#3E3244"/><path d="M220.009 172.027a4.872 4.872 0 014.854-.045l.522-.773c-.104-.072-2.59-1.721-5.817 0l.441.818zM200.388 171.763l2.45-.041v-.936h-2.318l-.132.977z" fill="#161119"/><path d="M223.168 173.712l2.967 9.085-4.672.382" fill="#D88D6C"/><path d="M213.901 166.489a4.88 4.88 0 00-.591-.309 5.171 5.171 0 00-.364-.163l.137.054a11.687 11.687 0 00-2.9-.786h.15a11.145 11.145 0 00-2.273-.072 5.29 5.29 0 00-.699.072h.15c-.765.106-1.517.289-2.246.545a8.216 8.216 0 00-.663.259l.136-.059a13.53 13.53 0 00-2.322 1.281.569.569 0 01-.768-.2.582.582 0 01-.059-.454.645.645 0 01.259-.336 13.088 13.088 0 013.754-1.794 11.552 11.552 0 013.367-.455c1.629.019 3.237.373 4.723 1.041.261.11.515.239.759.386a.6.6 0 01.259.336.574.574 0 01-.202.595.608.608 0 01-.648.041l.041.018zM229.021 166.553c.167-.146.342-.282.523-.409l.327-.227-.122.081c.277-.181.563-.349.854-.508.364-.191.732-.368 1.114-.523.245-.095.49-.186.74-.268l-.141.046a10.849 10.849 0 012.209-.482c.237-.027.455-.045.7-.059h-.15a11.293 11.293 0 013.004.259l-.14-.032c.863.191-.287.777 1.299.364.15-.041-1.031-1.531-2.418-1.667a11.675 11.675 0 00-3.399.158c-.917.185-1.809.474-2.659.864-.625.287-1.225.629-1.791 1.022a5.643 5.643 0 00-.677.518.558.558 0 00.318.985.592.592 0 00.418-.136l-.009.014zM213.728 172.635a4.234 4.234 0 00-4.091-1.78c-.892.21-1.719.64-2.404 1.249-.114.095-.273-.064-.164-.159 1.132-.94 2.546-1.613 4.045-1.308a4.752 4.752 0 012.423 1.403c.147.15.282.311.404.482.082.118-.113.231-.195.113h-.018zM237.002 171.794a4.216 4.216 0 00-4.09-1.776 5.535 5.535 0 00-2.404 1.245c-.109.095-.273-.064-.159-.159 1.131-.94 2.545-1.613 4.045-1.308a4.742 4.742 0 012.418 1.403c.149.149.286.31.409.482.081.118-.114.232-.2.113h-.019z" fill="#3E3244"/><path opacity=".45" d="M206.465 185.041a4.012 4.012 0 110-8.022 4.012 4.012 0 110 8.022zM235.357 182.851a3.385 3.385 0 113.386-3.384 3.385 3.385 0 01-3.386 3.384z" fill="#F27B53"/><path d="M233.671 180.817a8.877 8.877 0 008.706-10.603 8.873 8.873 0 00-12.103-6.465 8.867 8.867 0 00-2.877 14.466 8.889 8.889 0 006.274 2.602zm0-16.717a7.854 7.854 0 017.258 4.841 7.842 7.842 0 01-1.697 8.556 7.854 7.854 0 01-8.558 1.706 7.85 7.85 0 01-4.852-7.249 7.865 7.865 0 017.849-7.85v-.004zM211.337 180.817a8.886 8.886 0 004.932-1.493 8.868 8.868 0 001.352-13.649 8.88 8.88 0 00-13.657 1.337 8.873 8.873 0 00-1.499 4.928 8.887 8.887 0 008.872 8.877zm0-16.717a7.854 7.854 0 017.259 4.841 7.85 7.85 0 01-5.718 10.706 7.85 7.85 0 01-9.39-7.693 7.858 7.858 0 017.849-7.854zM220.279 200.242c-1.699-.164-2.972-1.371-2.844-2.697.128-1.326 1.609-2.269 3.308-2.105 1.699.164 2.972 1.372 2.844 2.698-.128 1.326-1.609 2.268-3.308 2.104z" fill="#161119"/><path d="M214.914 198.301c1.388.136 2.783.177 4.177.122l-.05-1.331c-16.089.641-28.46-12.351-28.583-12.483l-.973.909c.118.127 10.822 11.374 25.429 12.783z" fill="#161119"/><path d="M242.761 161.52c-1.287-9.012-6.013-18.938-13.753-24.03-6.931-4.566-16.207-4.856-23.847-1.926-6.581 2.521-10.94 8.145-13.09 14.704-1.818 5.583-2.072 11.32-2.499 17.121-.141 1.912-3.141 1.926-3 0 .405-5.524.632-11.025 2.145-16.39 1.968-6.991 5.999-13.405 12.535-16.916 7.772-4.179 18.075-4.625 26.106-.94 6.531 2.993 11.303 8.83 14.334 15.208 1.818 3.87 3.355 8.113 3.959 12.374.273 1.885-2.618 2.703-2.89.795z" fill="#DD4D32"/><path d="M189.699 189.788c-5.675 0-10.276-5.717-10.276-12.769 0-7.053 4.601-12.769 10.276-12.769s10.276 5.716 10.276 12.769c0 7.052-4.601 12.769-10.276 12.769z" fill="#DD4D32"/><path d="M188.081 189.152c-5.392 0-9.762-5.432-9.762-12.133 0-6.701 4.37-12.133 9.762-12.133s9.763 5.432 9.763 12.133c0 6.701-4.371 12.133-9.763 12.133z" fill="#04A2BC"/><path opacity=".07" d="M110.809 78.24h58.238c1.195 0 2.163.968 2.163 2.163v37.571a2.162 2.162 0 01-2.163 2.162h-58.238a2.163 2.163 0 01-2.164-2.162V80.402c0-1.194.969-2.162 2.164-2.162z" fill="#fff"/><path d="M112.277 76.832h58.238c1.195 0 2.163.969 2.163 2.163v37.571a2.162 2.162 0 01-2.163 2.163h-58.238a2.163 2.163 0 01-2.164-2.163V78.995c0-1.194.969-2.163 2.164-2.163z" fill="#fff"/><path d="M145.963 84.505a7.35 7.35 0 013.009 2.525 6.245 6.245 0 011.1 3.589c.018.9-.154 1.792-.505 2.621a7.226 7.226 0 01-1.227 1.93 19.526 19.526 0 01-1.913 1.818 15.015 15.015 0 00-2.386 2.457 4.416 4.416 0 00-.782 2.676v.518a.978.978 0 01-.296.708.969.969 0 01-.709.295h-1.363a1.016 1.016 0 01-1.004-1.003v-.777a6.188 6.188 0 01.522-2.621 7.208 7.208 0 011.246-1.917c.481-.523 1.136-1.154 1.954-1.894a15.859 15.859 0 002.322-2.363 3.936 3.936 0 00.764-2.434 3.285 3.285 0 00-1.486-2.826 6.068 6.068 0 00-3.573-1.04 5.412 5.412 0 00-3.349 1.004 5.28 5.28 0 00-1.859 3.084 1.008 1.008 0 01-.35.595.979.979 0 01-.614.223h-1.599a.863.863 0 01-.6-.241.656.656 0 01-.181-.261c-.038-.1-.051-.21-.038-.316a7.654 7.654 0 013.995-6.173 9.244 9.244 0 014.595-1.077 9.976 9.976 0 014.327.9zm-2.622 25.184a.953.953 0 01-.709.299h-2.123a1.022 1.022 0 01-1.013-1.003v-2.122a1.022 1.022 0 011.004-1.004h2.123c.265.005.517.112.705.299.187.188.294.44.299.705v2.122a.977.977 0 01-.286.704z" fill="#DD4D32"/><path opacity=".07" d="M242.102 39.083h49.866a6.358 6.358 0 016.363 6.36v29.2a6.358 6.358 0 01-6.363 6.359h-35.373l-13.398 9.503v-9.503h-1.095a6.363 6.363 0 01-6.363-6.36V45.434a6.364 6.364 0 016.363-6.35z" fill="#fff"/><path d="M243.606 37.725h49.862a6.364 6.364 0 016.363 6.36V73.28a6.36 6.36 0 01-6.363 6.36h-35.373l-13.398 9.507V79.64h-1.091a6.363 6.363 0 01-6.363-6.36V44.072a6.36 6.36 0 016.363-6.346z" fill="#fff"/><path d="M243.806 48.541h49.453a.499.499 0 110 1h-49.453a.493.493 0 01-.354-.147.504.504 0 010-.707.506.506 0 01.354-.146zM243.806 55.055h49.453a.499.499 0 110 1h-49.453a.5.5 0 01-.354-.853.5.5 0 01.354-.147zM258.577 61.569h34.682a.499.499 0 110 1h-34.682a.504.504 0 01-.462-.31.502.502 0 01.27-.652.504.504 0 01.192-.038zM258.577 68.083h34.682a.499.499 0 110 1h-34.682a.504.504 0 01-.462-.31.502.502 0 01.462-.69z" fill="#DD4D32"/><path opacity=".07" d="M268.807 91.141h32.396a4.132 4.132 0 014.127 4.125v18.974a4.123 4.123 0 01-4.127 4.12h-22.979l-8.712 6.178v-6.178h-.714a4.123 4.123 0 01-4.122-4.12V95.266a4.126 4.126 0 014.127-4.125h.004z" fill="#fff"/><path d="M269.78 90.26h32.396a4.12 4.12 0 014.127 4.116v18.974a4.13 4.13 0 01-4.127 4.125h-22.974l-8.708 6.173v-6.169h-.714a4.125 4.125 0 01-4.122-4.124V94.38a4.119 4.119 0 014.122-4.12z" fill="#fff"/><path d="M269.916 97.288h32.128a.326.326 0 01.289.324.325.325 0 01-.289.325h-32.128a.328.328 0 010-.65zM269.916 101.517h32.128a.328.328 0 010 .65h-32.128a.327.327 0 010-.65zM279.511 105.75h22.533a.328.328 0 010 .65h-22.533a.332.332 0 01-.207-.107.33.33 0 010-.435.333.333 0 01.207-.108zM279.511 109.983h22.533a.32.32 0 01.228.095.32.32 0 010 .456.322.322 0 01-.228.094h-22.533a.326.326 0 01-.229-.094.326.326 0 010-.456.323.323 0 01.229-.095z" fill="#DD4D32"/><path opacity=".07" d="M328.532 137.984h58.238c1.195 0 2.164.968 2.164 2.163v37.571a2.164 2.164 0 01-2.164 2.163h-58.238a2.163 2.163 0 01-2.163-2.163v-37.571c0-1.195.968-2.163 2.163-2.163z" fill="#fff"/><path d="M330.386 136.321h58.238c1.195 0 2.164.968 2.164 2.163v37.571a2.163 2.163 0 01-2.164 2.162h-58.238a2.162 2.162 0 01-2.163-2.162v-37.571c0-1.195.968-2.163 2.163-2.163z" fill="#fff"/><path d="M365.218 146.216c-.454 4.742-5.513 3.993-5.513 3.993-3.09.454-2.631 7.222-2.631 7.222s.332 6.773 3.454 6.864c0 0 4.945-1.335 5.94 3.325.996 4.661-1.818 7.041-6.394 6.728 0 0-6.363-.618-7.295-16.808-.523-16.417 5.299-17.262 5.299-17.262 4.518-.844 7.586 1.195 7.14 5.938zM163.366 342.56c-14.998-7.337-25.379-21.314-33.387-35.687-14.543-26.074-23.297-56.246-18.434-85.532.955-5.746 3.041-12.17 8.504-14.536 2.581-1.109 5.581-1.086 8.289-.305 5.345 1.545 9.481 5.86 11.972 10.721 2.49 4.86 3.558 10.275 4.545 15.622 7.058 37.871 12.044 76.42 25.578 112.583" fill="#DD4D32"/><path opacity=".11" d="M165.97 343.173c-11.603-5.392-24.892-21.927-31.36-32.966-11.676-20.028-20.352-40.824-17.352-63.796.586-4.506 2.022-9.566 6.126-11.524a9.316 9.316 0 016.309-.423c4.09 1.086 7.367 4.361 9.38 8.1 2.014 3.738 2.959 7.945 3.845 12.097 6.29 29.395 11.017 59.376 22.193 87.312" fill="#345D95"/><path d="M125.18 222.594c1.236 9.063 2.531 18.121 4.09 27.133 1.554 8.94 3.368 17.843 5.658 26.633a182.187 182.187 0 007.85 23.872 175.243 175.243 0 0011.189 22.295c4.159 7.04 8.87 13.74 14.089 20.037.637.763 1.282 1.52 1.936 2.271.141.159-.095.391-.236.232a151.114 151.114 0 01-14.385-19.606 170.491 170.491 0 01-19.87-45.694c-2.431-8.835-4.354-17.797-5.986-26.801-1.631-9.003-2.967-18.088-4.226-27.16a285.155 285.155 0 00-.455-3.212c-.027-.208.305-.204.337 0h.009z" fill="#fff"/><path d="M157.517 340.933c-10.404 2.557-24.779 4.543-34.996 5.142-19.207 1.118-42.722.418-57.993-11.302-4.95-3.802-9.267-10.03-7.245-15.931 1.287-3.747 4.918-6.314 8.75-7.327 3.83-1.013 7.876-.695 11.816-.245a178.059 178.059 0 0179.645 29.663" fill="#DD4D32"/><path opacity=".11" d="M153.163 340.006a177.34 177.34 0 01-27.133 3.725c-14.903.79-33.178.241-45.022-8.386-3.845-2.798-7.208-7.377-5.645-11.706.99-2.725 3.804-4.629 6.776-5.365 2.973-.736 6.113-.499 9.172-.163a143.622 143.622 0 0161.852 21.895z" fill="#345D95"/><path d="M73.063 324.202a4062.888 4062.888 0 0016.021 3.602c5.454 1.212 10.92 2.403 16.398 3.575a944.45 944.45 0 0016.566 3.389 738.869 738.869 0 0016.526 3.039c5.453.909 10.907 1.781 16.361 2.53l1.986.268c.237.032.228.405 0 .373a480.105 480.105 0 01-16.302-2.449 550.4 550.4 0 01-16.48-2.975 896.441 896.441 0 01-16.571-3.348 1809.247 1809.247 0 01-16.511-3.579 3229.476 3229.476 0 01-16.153-3.634l-1.959-.455c-.236-.054-.122-.413.114-.359l.004.023z" fill="#fff"/><path d="M162.111 339.371c-21.815-1.14-46.121-14.082-63.587-27.165-11.494-8.631-22.847-17.757-31.337-29.345a82.418 82.418 0 01-14.199-32.011c-1.55-7.554-1.281-16.935 5.236-21.06 3.518-2.225 8.113-2.23 12.04-.84 3.926 1.39 7.271 4.038 10.321 6.882 8.672 8.104 15.32 18.089 22.075 27.851 17.588 25.438 39.431 52.135 59.451 75.688z" fill="#DD4D32"/><path opacity=".11" d="M156.226 336.295c-16.816-.836-35.619-10.362-49.085-19.987-8.88-6.36-17.648-13.078-24.206-21.614a59.414 59.414 0 01-10.99-23.585c-1.195-5.565-.99-12.474 4.045-15.508 2.727-1.64 6.268-1.645 9.3-.623 3.03 1.022 5.607 2.971 7.97 5.065 6.7 5.974 11.818 13.324 17.053 20.515 13.585 18.715 30.451 38.393 45.904 55.737" fill="#345D95"/><path d="M66.7 248.019l19.162 23.403c5.672 6.928 11.299 13.887 17.084 20.714 5.331 6.283 10.813 12.447 16.653 18.266a152.103 152.103 0 0018.566 15.945 100.126 100.126 0 0021.197 11.765c.927.366 1.859.719 2.795 1.058.227.082.132.455-.095.364a97.278 97.278 0 01-21.484-11.061 142.22 142.22 0 01-18.811-15.445c-5.972-5.747-11.563-11.879-16.962-18.171-5.7-6.623-11.199-13.418-16.734-20.178l-19.225-23.476-2.409-2.943c-.154-.186.11-.455.264-.268v.027z" fill="#fff"/><g opacity=".38" fill="#DD4D32"><path opacity=".38" d="M91.784 317.476c-4.386-1.363-8.3-3.816-11.98-6.505-1.946-1.422-3.85-2.907-5.759-4.379a427.64 427.64 0 01-6.236-4.87 286.89 286.89 0 01-11.498-9.703 294.228 294.228 0 01-11.021-10.325 277.348 277.348 0 01-10.454-10.902l-1.231-1.363c-.287-.318.186-.799.454-.454 3.333 3.71 6.77 7.335 10.313 10.875 3.541 3.54 7.164 6.98 10.866 10.321a289.246 289.246 0 0011.385 9.748 392.375 392.375 0 0012.08 9.412c3.636 2.726 7.409 5.36 11.676 6.964.518.195 1.041.372 1.568.536.414.127.241.777-.177.65l.014-.005z"/><path opacity=".38" d="M35.49 270.714a9.086 9.086 0 00-4.513-7.036c-1.018-.568-2.408-.882-3.258-.087a2.192 2.192 0 00-.373 2.39 5.236 5.236 0 001.627 1.958 19.864 19.864 0 006.654 3.634M38.25 274.149c1.217-.79 1.758-2.271 2.026-3.706.223-1 .223-2.036 0-3.035a3.289 3.289 0 00-1.872-2.271.716.716 0 00-.85.136 2.88 2.88 0 00-.91 1.981c-.03.75.06 1.5.269 2.221a23.878 23.878 0 001.777 4.811M44.54 280.104c.489-.207.922-.528 1.263-.936 1.004-1.036 2.063-2.171 2.272-3.598a5.342 5.342 0 00-.24-2.157c-.314-1.095-.855-2.222-1.868-2.749a1.621 1.621 0 00-1.096-.186 1.496 1.496 0 00-.968.909 3.65 3.65 0 00-.209 1.362 24.201 24.201 0 00.845 7.355zM51.489 287.29c.132.114.332 0 .454-.095a10.263 10.263 0 003.05-3.593 6.843 6.843 0 00.568-4.634 2.625 2.625 0 00-1.164-1.749 2.192 2.192 0 00-2.517.568 4.574 4.574 0 00-1.032 2.535c-.336 2.467.227 4.96.786 7.386M59.301 294.504a4.176 4.176 0 001.732-1.363c1.181-1.395 2.272-2.934 2.75-4.697.477-1.762.29-3.793-.869-5.21a2.191 2.191 0 00-1.882-.941 2.231 2.231 0 00-1.363.909c-1.418 1.772-1.468 4.261-1.24 6.523.141 1.414.363 2.818.663 4.206M69.355 302.535a13.391 13.391 0 005.04-10.044c.036-1.49-.377-3.252-1.764-3.802a2.726 2.726 0 00-2.686.586 5.292 5.292 0 00-1.463 2.453c-1.023 3.239-.386 6.741.259 10.08M44.222 280.499c-2.232-.977-4.79-.709-7.204-.354-.582.091-1.259.245-1.509.786a1.407 1.407 0 00.377 1.453 3.638 3.638 0 002.464 1.136c.93.041 1.86-.114 2.727-.454a8.399 8.399 0 003.576-2.444"/><path opacity=".38" d="M38.118 273.936c-2.236-.977-4.795-.709-7.204-.35-.586.086-1.264.241-1.509.781a1.399 1.399 0 00.373 1.454 3.638 3.638 0 002.463 1.136 6.5 6.5 0 002.727-.454 8.4 8.4 0 003.577-2.444M51.416 287.164a10.32 10.32 0 00-8.999.086c-.614.309-1.245.749-1.418 1.413a1.75 1.75 0 00.532 1.63c.45.401 1.005.667 1.6.768a7.093 7.093 0 004.054-.454 13.909 13.909 0 003.504-2.172c.463-.303.809-.755.981-1.281M59.21 294.05c-2.726-.945-5.712-.395-8.494.341-1.077.281-2.272.676-2.79 1.653-.673 1.213.068 2.853 1.286 3.511 1.218.659 2.727.523 4.045.064 2.468-.863 4.481-2.771 5.85-4.997M68.864 301.887c-2.086-.686-4.39-.414-6.458.322-2.068.736-3.94 1.922-5.795 3.094-.91.568-1.895 1.285-1.982 2.348a2.202 2.202 0 00.95 1.863 4.395 4.395 0 002.036.727c3.736.508 7.522-1.481 9.826-4.461.987-1.268 1.764-2.821 1.605-4.42M80.753 311.639c.114.191.405.055.569-.095a12.187 12.187 0 003.608-10.571 5.446 5.446 0 00-.709-2.094 5.702 5.702 0 00-2.727-2.008 1.112 1.112 0 00-1.604.455c-1.495 1.966-1.986 4.583-1.686 7.036a17.488 17.488 0 002.604 6.891"/><path opacity=".38" d="M81.44 311.598a9.616 9.616 0 00-5.195-.564 25.398 25.398 0 00-5.09 1.422c-1.223.454-2.482.936-3.373 1.881-.89.945-1.277 2.498-.536 3.566.74 1.067 2.168 1.244 3.436 1.217a12.73 12.73 0 007.044-2.112c2.032-1.431 3.523-3.734 3.636-6.219"/></g><g opacity=".38" fill="#DD4D32"><path opacity=".38" d="M112.922 281.648c-2.795-3.634-4.545-7.913-5.999-12.238-.764-2.271-1.455-4.597-2.164-6.9-.772-2.522-1.53-5.05-2.272-7.581a309.318 309.318 0 01-3.745-14.564 275.672 275.672 0 01-3-14.8 288.177 288.177 0 01-2.227-14.931 244.22 244.22 0 01-.213-1.817c-.05-.432.613-.55.663-.118a291.26 291.26 0 002.11 14.836c.83 4.927 1.788 9.829 2.876 14.704a299.918 299.918 0 003.636 14.536c1.363 4.916 2.85 9.803 4.395 14.664 1.363 4.315 2.936 8.658 5.486 12.438.309.454.636.908.972 1.362.264.341-.259.773-.522.427l.004-.018z"/><path opacity=".38" d="M94.11 210.947a9.078 9.078 0 00.396-8.349c-.5-1.054-1.45-2.117-2.604-1.962a2.196 2.196 0 00-1.69 1.735c-.141.85-.074 1.721.194 2.539a19.804 19.804 0 003.318 6.814M94.37 215.34c1.45.063 2.758-.841 3.804-1.849a6.956 6.956 0 001.768-2.462 3.292 3.292 0 00-.209-2.939.911.911 0 00-.328-.323.814.814 0 00-.454-.059 2.865 2.865 0 00-1.904 1.072 7.068 7.068 0 00-1.068 1.967 23.66 23.66 0 00-1.337 4.951M96.038 223.83c.52.113 1.059.101 1.572-.036 1.418-.259 2.941-.573 3.927-1.627a5.358 5.358 0 001.055-1.894c.377-1.072.586-2.307.068-3.32a1.577 1.577 0 00-.787-.786 1.493 1.493 0 00-1.322.19 3.84 3.84 0 00-.964.991 24.192 24.192 0 00-3.55 6.482zM97.556 233.715c.036.168.259.205.454.195a10.265 10.265 0 004.586-1.158 6.878 6.878 0 003.15-3.452 2.649 2.649 0 00.063-2.099 2.186 2.186 0 00-2.386-.99 4.548 4.548 0 00-2.309 1.467c-1.704 1.817-2.69 4.175-3.636 6.478M99.733 244.136a4.163 4.163 0 002.213-.128c1.773-.454 3.545-1.081 4.963-2.235 1.418-1.153 2.436-2.925 2.309-4.751a1.856 1.856 0 00-.755-1.709 1.86 1.86 0 00-1.858-.195c-2.186.627-3.668 2.631-4.795 4.602a37.244 37.244 0 00-1.895 3.816M103.287 256.486a13.402 13.402 0 009.931-5.274c.909-1.19 1.577-2.871.763-4.116a2.728 2.728 0 00-2.531-1.081 5.285 5.285 0 00-2.614 1.154c-2.727 2.049-4.222 5.274-5.626 8.367M95.565 223.976c-1.259-2.089-3.5-3.352-5.672-4.456-.527-.268-1.168-.531-1.681-.236a1.42 1.42 0 00-.541 1.403 3.635 3.635 0 001.363 2.354 6.49 6.49 0 002.495 1.19c1.411.405 2.904.43 4.327.072"/><path opacity=".38" d="M94.388 215.091c-1.259-2.09-3.5-3.353-5.672-4.457-.527-.268-1.168-.531-1.681-.236a1.418 1.418 0 00-.541 1.404 3.635 3.635 0 001.363 2.353c.738.57 1.588.976 2.495 1.19 1.411.405 2.904.43 4.327.073M97.565 233.569a10.3 10.3 0 00-7.385-5.133c-.678-.105-1.446-.114-1.973.331a1.748 1.748 0 00-.513 1.636c.135.586.433 1.123.858 1.549a7.071 7.071 0 003.568 1.98c1.352.291 2.74.378 4.118.259a2.456 2.456 0 001.54-.477M99.928 243.703c-1.668-2.344-4.427-3.634-7.122-4.638-1.04-.39-2.231-.754-3.236-.268-1.25.605-1.595 2.367-.981 3.607.613 1.24 1.922 2.008 3.258 2.394 2.514.727 5.259.336 7.668-.69M103.264 255.669c-1.304-1.762-3.34-2.875-5.454-3.47-2.113-.595-4.326-.713-6.517-.831-1.064-.06-2.273-.05-2.977.767a2.19 2.19 0 00-.305 2.067c.256.686.681 1.295 1.237 1.772 2.727 2.575 6.994 3.148 10.598 2.053 1.536-.454 3.073-1.286 3.863-2.68M107.309 270.505c0 .218.3.282.518.25a12.183 12.183 0 009.09-6.532 5.544 5.544 0 00.636-2.112 5.708 5.708 0 00-1.045-3.207 1.407 1.407 0 00-.545-.586 1.362 1.362 0 00-1.027.027c-2.359.74-4.273 2.589-5.454 4.761a17.59 17.59 0 00-1.868 7.122"/><path opacity=".38" d="M107.891 270.882a9.693 9.693 0 00-3.909-3.466 25.752 25.752 0 00-4.972-1.785c-1.255-.345-2.568-.677-3.84-.418-1.273.259-2.487 1.295-2.5 2.594-.014 1.299 1.045 2.271 2.095 2.984a12.726 12.726 0 006.963 2.362c2.49 0 5.036-1.008 6.567-2.97"/></g><g opacity=".38" fill="#DD4D32"><path opacity=".38" d="M251.96 289.889c.695-4.542 2.563-8.767 4.69-12.796 1.123-2.131 2.313-4.229 3.49-6.337a457.073 457.073 0 013.918-6.873 285.098 285.098 0 017.922-12.787 278.623 278.623 0 018.635-12.401 286.399 286.399 0 019.249-11.938l1.164-1.413c.277-.332.822.063.545.4a290.833 290.833 0 00-9.258 11.783 280.748 280.748 0 00-8.635 12.265 276.73 276.73 0 00-7.986 12.678 427.762 427.762 0 00-7.553 13.319c-2.168 3.975-4.227 8.109-5.191 12.56-.115.54-.215 1.085-.3 1.636-.063.427-.736.345-.668-.082l-.022-.014z"/><path opacity=".38" d="M290.028 227.401a9.085 9.085 0 006.299-5.492c.418-1.085.527-2.507-.386-3.234a2.186 2.186 0 00-2.418 0 5.304 5.304 0 00-1.705 1.894 19.863 19.863 0 00-2.627 7.109M287.032 230.631c.959 1.086 2.518 1.408 3.964 1.463a6.93 6.93 0 003.008-.427 3.29 3.29 0 001.977-2.185.857.857 0 000-.455.83.83 0 00-.263-.359 2.873 2.873 0 00-2.095-.636 6.862 6.862 0 00-2.159.591 23.542 23.542 0 00-4.5 2.462M282.051 237.723c.278.454.659.835 1.114 1.112 1.168.845 2.45 1.727 3.89 1.708a5.257 5.257 0 002.1-.549c1.036-.454 2.073-1.172 2.45-2.271.139-.355.147-.748.022-1.109a1.5 1.5 0 00-1.054-.827 3.853 3.853 0 00-1.363 0 24.189 24.189 0 00-7.159 1.936zM275.957 245.639c-.091.146.036.327.164.455a10.254 10.254 0 004.004 2.503c1.522.51 3.176.47 4.672-.114a2.644 2.644 0 001.563-1.408 2.197 2.197 0 00-.932-2.408 4.544 4.544 0 00-2.658-.649c-2.491.027-4.877.949-7.199 1.853M269.939 254.42a4.09 4.09 0 001.618 1.508c1.555.968 3.236 1.817 5.054 2.035 1.818.218 3.809-.254 5.027-1.617a2.198 2.198 0 00.659-1.998 2.274 2.274 0 00-1.091-1.209c-1.963-1.145-4.436-.827-6.64-.272a37.472 37.472 0 00-4.09 1.267M263.476 265.527a13.36 13.36 0 0010.676 3.539c1.482-.182 3.182-.845 3.504-2.299a2.717 2.717 0 00-.972-2.571 5.231 5.231 0 00-2.641-1.086c-3.354-.545-6.731.6-9.94 1.722M281.62 237.464c.641-2.349 0-4.843-.705-7.173-.172-.568-.422-1.213-.991-1.363a1.43 1.43 0 00-1.39.581 3.661 3.661 0 00-.759 2.608c.095.926.39 1.82.863 2.621a8.348 8.348 0 002.941 3.18"/><path opacity=".38" d="M287.237 230.454c.641-2.353 0-4.842-.704-7.177-.169-.563-.423-1.208-.991-1.363a1.418 1.418 0 00-1.364.582 3.632 3.632 0 00-.763 2.603c.096.927.39 1.822.863 2.625a8.417 8.417 0 002.941 3.18M276.07 245.548a10.3 10.3 0 00.322-4.602 10.328 10.328 0 00-1.717-4.283c-.4-.563-.909-1.122-1.609-1.195a1.75 1.75 0 00-1.536.763 3.245 3.245 0 00-.523 1.69 7.056 7.056 0 001.037 3.943 13.917 13.917 0 002.658 3.153c.369.413.867.689 1.414.781M270.385 254.257c.541-2.821-.455-5.701-1.577-8.345-.455-1.022-1-2.13-2.041-2.521-1.3-.481-2.818.486-3.291 1.79-.472 1.304-.118 2.776.528 4.007 1.213 2.316 3.395 4.024 5.804 5.056M264.058 264.945c.368-2.158-.232-4.397-1.263-6.332a29.318 29.318 0 00-3.909-5.283c-.691-.804-1.55-1.686-2.613-1.613a2.187 2.187 0 00-1.705 1.208 4.313 4.313 0 00-.422 2.117c.041 3.771 2.563 7.227 5.849 9.085 1.4.786 3.05 1.327 4.609.936M256.127 278.151c-.168.141 0 .409.178.545a12.17 12.17 0 0010.989 2.026 5.392 5.392 0 001.968-1.004 5.737 5.737 0 001.595-2.971 1.094 1.094 0 00.007-.916 1.128 1.128 0 00-.278-.378 1.12 1.12 0 00-.41-.228c-2.173-1.19-4.827-1.294-7.218-.64a17.494 17.494 0 00-6.435 3.566"/><path opacity=".38" d="M256.268 278.801a9.62 9.62 0 00-.204-5.22 25.287 25.287 0 00-2.146-4.824c-.618-1.145-1.286-2.321-2.354-3.057-1.068-.736-2.659-.909-3.608 0-.95.908-.909 2.326-.705 3.575a12.754 12.754 0 003.118 6.659 8.248 8.248 0 006.685 2.68"/></g><path d="M202.638 218.161c-13.457.568-28.023 4.629-37.872 13.809-.832.777-1.655 1.631-2.018 2.726-.532 1.576 0 3.289.518 4.874a99.443 99.443 0 01.886 56.851c-1.363 4.842-3.127 9.625-3.599 14.636-.473 5.01.527 10.448 3.99 14.082a18.98 18.98 0 005.29 3.716c10.776 5.451 23.425 5.237 35.487 4.737 7.435-.308 14.948-.695 22.106-2.725 7.158-2.031 14.035-5.878 18.384-11.911 4.491-6.228 5.909-14.136 6.463-21.804 1.3-17.385-1.063-34.814-1.391-52.24-.095-5.065 0-10.289 1.991-14.958-9.19-6.36-20.175-10.212-31.132-12.388-2.35 3.13-5.654 4.542-9.545 4.756-3.89.213-6.876-1.281-9.544-4.156" fill="#DD4D32"/><path d="M166.256 308.858c.455-4.997-3.127-10.807-1.859-15.649 3.227-12.306 9.304-24.271 7.995-36.981 2.763 1.362 5.267 3.211 6.69 5.941 1.173 2.244 1.473 4.856 1.504 7.396.055 5.078-.909 10.116-1.095 15.19-.186 5.074.455 10.448 3.295 14.577 3.3 4.797 8.99 7.218 14.544 8.704 3.745.954 7.538 1.712 11.362 2.271 4.386.69 8.844 1.272 13.244.704 4.399-.568 8.794-2.38 11.671-5.819 4.586-5.451 4.445-13.364 5.272-20.501a64.04 64.04 0 016.954-22.44c1.1-2.085 2.391-4.184 4.372-5.406.682 12.72 8.054 26.093 7.176 38.789-.527 7.655-8.267 14.918-12.412 21.146-4.017 6.037-10.367 9.88-16.979 11.915-6.613 2.035-13.544 2.421-20.412 2.726-11.139.499-22.824.704-32.773-4.743a17.577 17.577 0 01-4.886-3.711c-3.181-3.675-4.099-9.099-3.663-14.109z" fill="#FFA748"/><path d="M247.269 226.491c-4.154 18.47-.572 40.266 4.041 58.627 1.363 5.451 1.081 11.433-.873 14.209-2.027 2.871-5.517 4.588-8.713 6.055-7.417 3.421-12.575 7.45-18.238 13.337-2.273 2.358-4.35 4.997-5.331 8.136-.982 3.139-.696 6.791 1.395 9.312 1.995 2.412 5.29 3.407 8.422 3.407 3.131 0 6.181-.872 9.23-1.585a96.818 96.818 0 0115.53-2.326c4.545-.304 9.131-.304 13.48-1.581 6.195-1.817 11.517-6.219 14.776-11.783a30.873 30.873 0 003.849-18.625c-.35-3.439-1.218-6.814-2.118-10.143-3.717-13.828-8.839-25.939-13.534-39.466-1.923-5.538-5.454-11.811-8.84-16.576-3.386-4.765-7.295-9.994-13.076-10.984" fill="#DD4D32"/><path d="M245.756 261.665c-2.509-11.411-1.618-24.035 1.063-35.296.141-.586 1.041-.336.909.25a87.523 87.523 0 00-2.272 24.53 62.356 62.356 0 001.181 10.266c.132.586-.772.836-.909.245l.028.005z" fill="#fff"/><path d="M211.701 326.983s12.371-3.071 16.998-.422c4.626 2.648 11.657 6.518 11.448 11.442v2.017s-33.177.968-35.859-2.017" fill="#E8A17E"/><path d="M174.742 225.102c-6.072.705-12.726 7.773-16.907 13.887-4.182 6.114-7.059 13.024-9.881 19.878l-15.871 38.499c-1.641 3.979-3.29 7.99-4.09 12.219a31.57 31.57 0 00-.178 10.657c.455 2.894 1.337 5.792 3.146 8.09 2.558 3.253 6.594 4.906 10.453 6.36 8.181 3.103 16.539 6.01 25.251 6.61 3.438.181 6.884.181 10.322 0 9.499-.346 19.038-.7 28.387-2.431a4.291 4.291 0 001.909-.686 4.394 4.394 0 001.173-1.744c.942-2.053 1.881-4.108 2.817-6.164.528-1.145 1.064-2.358.964-3.634-.136-1.69-1.364-3.057-2.622-4.207a41.436 41.436 0 00-11.181-7.391c-8.426-3.774-18.048-4.719-25.96-9.475a12.126 12.126 0 01-2.659-2.022c-2.918-3.098-2.727-8.081-1.109-12.006 1.618-3.925 2.781-7.672 4.39-11.611 3.573-8.758 5.359-14.468 5.554-21.954.277-10.657-.518-22.799-3.922-32.902" fill="#DD4D32"/><path d="M206.833 320.338a26.515 26.515 0 00-2.727 4.937 41.532 41.532 0 00-3.422 13.982c-.041.6-.977.605-.936 0a43.04 43.04 0 013.381-14.082 26.718 26.718 0 012.895-5.323c.35-.482 1.164 0 .805.454l.004.032z" fill="#FFA748"/><path d="M178.614 262.17c.782-12.211-.159-25.393-4.322-36.941-.205-.567.7-.813.909-.249 4.19 11.615 5.145 24.911 4.358 37.19-.036.599-.972.604-.936 0h-.009z" fill="#fff"/><path d="M40.163 342.923H479.65c.76 0 1.377.617 1.377 1.377v5.324c0 .76-.617 1.376-1.377 1.376H40.163c-.76 0-1.377-.616-1.377-1.376V344.3c0-.76.616-1.377 1.377-1.377z" fill="#345D95"/><path d="M154.417 339.175h150.395c.126 0 .227.102.227.227v3.298a.226.226 0 01-.227.227H154.417a.227.227 0 01-.227-.227v-3.298c0-.125.102-.227.227-.227z" fill="#fff"/><path d="M238.843 342.927h128.698l6.217-89.311H247.642l-8.799 89.311z" fill="#fff"/><path d="M243.22 342.927h128.697l6.218-89.311H252.019l-8.799 89.311z" fill="#C5E1F9"/><path opacity=".27" d="M310.68 305.951a7.684 7.684 0 01-7.686-7.682 7.683 7.683 0 017.686-7.681 7.683 7.683 0 017.685 7.681 7.683 7.683 0 01-7.685 7.682z" fill="#fff"/><path opacity=".07" d="M377.058 269.065l-5.14 73.799H243.22l1.718-17.471c67.75-8.74 114.399-41.764 132.12-56.328z" fill="#fff"/></svg>