<svg width="93" height="93" viewBox="0 0 93 93" fill="none" xmlns="http://www.w3.org/2000/svg">
<g clip-path="url(#clip0)">
<path d="M38.7185 39.8991C39.4711 39.8991 40.081 39.2891 40.081 38.5366V36.9372C40.081 36.1847 39.4711 35.5747 38.7185 35.5747C37.9658 35.5747 37.356 36.1847 37.356 36.9372V38.5366C37.356 39.2893 37.9658 39.8991 38.7185 39.8991Z" fill="#DD4D32"/>
<path d="M54.2818 39.8991C55.0345 39.8991 55.6443 39.2891 55.6443 38.5366V36.9372C55.6443 36.1847 55.0345 35.5747 54.2818 35.5747C53.5292 35.5747 52.9193 36.1847 52.9193 36.9372V38.5366C52.9193 39.2893 53.5292 39.8991 54.2818 39.8991Z" fill="#DD4D32"/>
<path d="M60.6046 72.4904C60.6046 73.2431 61.2145 73.853 61.9671 73.853H70.8071C71.5598 73.853 72.1696 73.2431 72.1696 72.4904C72.1696 71.7378 71.5598 71.1279 70.8071 71.1279H61.9671C61.2147 71.1279 60.6046 71.7378 60.6046 72.4904Z" fill="#DD4D32"/>
<path d="M78.1194 34.1333C78.872 34.1333 79.4819 33.5232 79.4819 32.7708V32.445C79.4819 29.8421 77.6955 27.6486 75.2845 27.0261V11.6411C75.2845 7.22186 71.6891 3.62646 67.2698 3.62646H58.4042C57.2045 3.62646 56.0569 3.98907 55.092 4.63C54.0674 1.92677 51.4512 0 48.3934 0H38.7184C37.9658 0 37.3559 0.610042 37.3559 1.36251C37.3559 2.11498 37.9658 2.72502 38.7184 2.72502H48.3934C50.8392 2.72502 52.8288 4.71484 52.8288 7.16064V7.69983C52.8288 8.34057 53.2751 8.89466 53.9012 9.03109C54.5265 9.16716 55.1636 8.84924 55.4303 8.26663C55.9626 7.10323 57.1298 6.35149 58.4042 6.35149H67.2698C70.1867 6.35149 72.5594 8.72444 72.5594 11.6411V26.8489H69.6929V25.3589C69.6929 24.9416 69.5016 24.5472 69.1738 24.2887C68.8456 24.0302 68.4176 23.9368 68.0119 24.034C57.2867 26.6124 53.9822 18.8959 53.8469 18.5663C53.6632 18.1132 53.2508 17.793 52.7659 17.7276C52.2774 17.6618 51.7942 17.8638 51.4979 18.2553C51.4766 18.2836 49.3095 21.1051 44.9829 23.3344C39.129 26.3503 32.4222 26.7966 25.049 24.6611C24.6373 24.5421 24.194 24.6233 23.8512 24.8806C23.5088 25.138 23.3073 25.5413 23.3073 25.9698V26.8488H20.4408V11.1466C20.4408 6.50282 24.2188 2.72502 28.8622 2.72502H33.2709C34.0236 2.72502 34.6334 2.11498 34.6334 1.36251C34.6334 0.610042 34.0236 0 33.2709 0H28.8622C22.716 0 17.7158 5.00024 17.7158 11.1466V27.0259C15.3047 27.6485 13.5183 29.8419 13.5183 32.4449V38.2112C13.5183 41.2968 16.0286 43.8071 19.1142 43.8071H23.3075V46.2015C23.3075 47.0895 23.4352 47.9477 23.6685 48.7616L16.7724 53.8258C14.7348 55.322 13.5183 57.7246 13.5183 60.2526V75.5164C13.5183 76.2691 14.1282 76.8789 14.8808 76.8789C15.6335 76.8789 16.2433 76.2691 16.2433 75.5164V60.2526C16.2433 58.5886 17.0441 57.0071 18.3854 56.0221L24.8286 51.2906C25.9315 52.9714 27.5624 54.2752 29.485 54.9634L36.5019 66.7091C37.1025 67.7147 38.1711 68.2791 39.2712 68.2789C39.5452 68.2789 39.821 68.2426 40.0922 68.1707L41.0768 69.1553L39.0265 90.2751H21.3128C18.5176 90.2751 16.2437 88.001 16.2437 85.2061V80.9641C16.2437 80.2115 15.6338 79.6016 14.8812 79.6016C14.1285 79.6016 13.5187 80.2115 13.5187 80.9641V85.2061C13.5187 89.5038 17.0151 93.0002 21.3128 93.0002H71.6883C75.986 93.0002 79.4824 89.5038 79.4824 85.2061V60.2526C79.4824 57.7246 78.266 55.322 76.2284 53.8258L69.3323 48.7618C69.3379 48.7421 69.3437 48.7223 69.3492 48.7025L71.8244 48.4987C73.8098 48.3352 75.3651 46.6464 75.3651 44.6542V43.6069C77.7312 42.9571 79.4779 40.7891 79.4823 38.2205C79.4835 37.468 78.8744 36.8569 78.1221 36.8556C78.1212 36.8556 78.1205 36.8556 78.1197 36.8556C77.3682 36.8556 76.7585 37.4642 76.7572 38.2157C76.7545 39.7961 75.4667 41.0817 73.8865 41.0817H69.6932V29.5736H73.8865C75.4696 29.5736 76.7574 30.8614 76.7574 32.4445V32.7702C76.7569 33.5232 77.3669 34.1333 78.1194 34.1333ZM19.1141 41.0821C17.531 41.0821 16.2432 39.7943 16.2432 38.2112V32.4449C16.2432 30.8618 17.531 29.574 19.1141 29.574H23.3073V41.0821H19.1141ZM26.0324 46.2015C26.0324 42.0947 26.0324 31.4833 26.0324 27.74C35.1977 29.9371 42.0288 27.9222 46.2311 25.7569C49.0835 24.2872 51.1108 22.5774 52.3221 21.3851C52.9238 22.2747 53.8211 23.3696 55.0806 24.3728C58.8936 27.4096 63.403 27.5974 66.968 27.0221V46.1645L50.5788 47.5137C49.8289 47.5755 49.271 48.2335 49.3328 48.9834C49.3913 49.6954 49.9873 50.2342 50.6891 50.2342C50.7267 50.2342 50.7645 50.2327 50.8025 50.2296L66.3651 48.9485C65.3223 51.2081 63.0367 52.7806 60.3893 52.7806H32.6113C28.9836 52.7804 26.0324 49.8292 26.0324 46.2015ZM46.9714 70.2531C46.7117 70.5133 46.288 70.5133 46.0284 70.2531L42.6815 66.9062L46.5285 64.8926L50.3379 66.8866L46.9714 70.2531ZM46.5285 61.2435L41.87 55.5055H51.187L46.5285 61.2435ZM53.5595 65.4972L48.6651 62.9352L54.6973 55.5055H60.0745L54.2166 65.3117C54.0816 65.5377 53.7933 65.6191 53.5595 65.4972ZM38.8409 65.3116L32.9828 55.5053H38.3602L44.3921 62.935L39.4978 65.497C39.2645 65.6191 38.9759 65.5377 38.8409 65.3116ZM41.7639 90.275L43.5719 71.6507L44.1014 72.1803C44.7629 72.8415 45.6313 73.172 46.4998 73.172C47.3684 73.172 48.2371 72.8415 48.8984 72.1803L49.4278 71.6509L51.2359 90.2751H41.7639V90.275ZM74.6148 56.022C75.9561 57.007 76.7569 58.5884 76.7569 60.2525V85.2057C76.7569 88.0008 74.4827 90.2748 71.6878 90.2748H53.974L51.9235 69.1549L52.9205 68.1579C53.2061 68.2382 53.4973 68.2786 53.7865 68.2786C54.8867 68.2786 55.9553 67.7143 56.5559 66.709C61.4876 58.4496 63.5303 55.0408 63.5774 54.9421C65.4733 54.2483 67.0807 52.9532 68.1718 51.2904L74.6148 56.022ZM72.6395 43.8071V44.6544C72.6395 45.2392 72.1828 45.735 71.6 45.783L69.6927 45.9399V43.8071H72.6395Z" fill="#DD4D32"/>
</g>
<defs>
<clipPath id="clip0">
<rect width="93" height="93" fill="white"/>
</clipPath>
</defs>
</svg>
