<svg width="93" height="93" fill="none" xmlns="http://www.w3.org/2000/svg"><g clip-path="url(#clip0)" fill="#DD4D32"><path d="M38.718 39.9c.753 0 1.363-.61 1.363-1.363v-1.6a1.362 1.362 0 10-2.725 0v1.6c0 .752.61 1.362 1.362 1.362zM54.282 39.9c.753 0 1.362-.61 1.362-1.363v-1.6a1.362 1.362 0 10-2.725 0v1.6c0 .752.61 1.362 1.363 1.362zM60.605 72.49c0 .753.61 1.363 1.362 1.363h8.84a1.362 1.362 0 100-2.725h-8.84c-.752 0-1.362.61-1.362 1.362z"/><path d="M78.12 34.133c.752 0 1.362-.61 1.362-1.362v-.326a5.606 5.606 0 00-4.198-5.419V11.641c0-4.42-3.595-8.015-8.014-8.015h-8.866c-1.2 0-2.347.363-3.312 1.004C54.067 1.927 51.452 0 48.393 0h-9.675a1.362 1.362 0 100 2.725h9.675a4.44 4.44 0 014.436 4.436V7.7a1.362 1.362 0 002.601.567 3.281 3.281 0 012.974-1.916h8.866a5.295 5.295 0 015.29 5.29V26.85h-2.867v-1.49a1.363 1.363 0 00-1.681-1.325c-10.725 2.578-14.03-5.138-14.165-5.468a1.363 1.363 0 00-2.35-.31c-.02.028-2.188 2.85-6.514 5.078-5.854 3.016-12.56 3.463-19.934 1.327a1.364 1.364 0 00-1.742 1.309v.879h-2.866V11.147c0-4.644 3.778-8.422 8.421-8.422h4.409a1.362 1.362 0 100-2.725h-4.409c-6.146 0-11.146 5-11.146 11.147v15.879a5.606 5.606 0 00-4.198 5.419v5.766a5.602 5.602 0 005.596 5.596h4.194v2.395c0 .888.127 1.746.36 2.56l-6.896 5.064a8.002 8.002 0 00-3.254 6.427v15.263a1.362 1.362 0 102.725 0V60.253c0-1.664.801-3.246 2.142-4.23l6.444-4.732a9.35 9.35 0 004.656 3.672l7.017 11.746a3.222 3.222 0 003.59 1.462l.985.984-2.05 21.12H21.313a5.075 5.075 0 01-5.07-5.069v-4.242a1.362 1.362 0 10-2.724 0v4.242c0 4.298 3.496 7.794 7.794 7.794h50.375c4.298 0 7.794-3.496 7.794-7.794V60.253a8.002 8.002 0 00-3.254-6.427l-6.896-5.064.017-.06 2.475-.203a3.88 3.88 0 003.541-3.845v-1.047a5.607 5.607 0 004.117-5.386 1.363 1.363 0 00-1.36-1.365h-.002c-.752 0-1.362.608-1.363 1.36a2.875 2.875 0 01-2.87 2.866h-4.194V29.574h4.194a2.874 2.874 0 012.87 2.87v.326c0 .753.61 1.363 1.362 1.363zm-59.006 6.95a2.874 2.874 0 01-2.87-2.872v-5.766a2.874 2.874 0 012.87-2.871h4.193v11.508h-4.193zm6.918 5.119V27.74c9.166 2.197 15.997.182 20.2-1.983 2.852-1.47 4.879-3.18 6.09-4.372.602.89 1.5 1.985 2.759 2.988 3.813 3.037 8.322 3.224 11.887 2.65v19.141l-16.39 1.35a1.362 1.362 0 00.224 2.716l15.563-1.281a6.586 6.586 0 01-5.976 3.832H32.611a6.587 6.587 0 01-6.579-6.58zm20.94 24.051a.667.667 0 01-.944 0l-3.346-3.347 3.846-2.013 3.81 1.994-3.367 3.366zm-.444-9.01l-4.658-5.738h9.317l-4.658 5.738zm7.032 4.254l-4.895-2.562 6.032-7.43h5.377l-5.857 9.807a.497.497 0 01-.657.185zm-14.72-.185l-5.857-9.807h5.377l6.032 7.43-4.894 2.562a.497.497 0 01-.657-.185zm2.924 24.963l1.808-18.624.53.53c.66.66 1.53.991 2.398.991.868 0 1.737-.33 2.398-.992l.53-.53 1.808 18.625h-9.472zm32.85-34.253a5.267 5.267 0 012.143 4.23v24.954a5.075 5.075 0 01-5.07 5.069H53.975l-2.05-21.12.996-.997a3.223 3.223 0 003.635-1.449c4.933-8.26 6.975-11.668 7.022-11.767a9.353 9.353 0 004.595-3.652l6.443 4.732zM72.64 43.807v.847c0 .585-.456 1.081-1.039 1.129l-1.907.157v-2.133h2.947z"/></g><defs><clipPath id="clip0"><path fill="#fff" d="M0 0h93v93H0z"/></clipPath></defs></svg>