<svg width="320" height="320" fill="none" xmlns="http://www.w3.org/2000/svg"><path d="M251.778 150.097c-8.205 21.179-27.374 37.246-47.303 44.893-15.458 5.93-31.913 5.344-48.311.248-15.559-4.832-29.846-12.676-45.828-9.14-12.535 2.776-26.67 6.758-38-4.691-5.66-5.71-9.416-13.459-11.893-21.399C52.559 134.83 56.5 108.2 73.395 91.672c14.422-14.146 35.06-20.971 54.967-19.766 3.825.227 7.622.792 11.347 1.69 9.832 2.393 20.566 6.138 30.663 4.78 11.887-1.599 20.143-10.643 30.972-14.793 11.189-4.28 22.796.777 31.71 10.424 18.668 20.188 28.607 50.574 18.724 76.09z" fill="#DD4D32"/><path opacity=".7" d="M251.778 150.097c-8.205 21.179-27.374 37.246-47.303 44.893-15.458 5.93-31.913 5.344-48.311.248-15.559-4.832-29.846-12.676-45.828-9.14-12.535 2.776-26.67 6.758-38-4.691-5.66-5.71-9.416-13.459-11.893-21.399C52.559 134.83 56.5 108.2 73.395 91.672c14.422-14.146 35.06-20.971 54.967-19.766 3.825.227 7.622.792 11.347 1.69 9.832 2.393 20.566 6.138 30.663 4.78 11.887-1.599 20.143-10.643 30.972-14.793 11.189-4.28 22.796.777 31.71 10.424 18.668 20.188 28.607 50.574 18.724 76.09z" fill="#fff"/><path d="M110.567 96.487H68.293l.428-3.93h42.274l-.428 3.93zM110.567 101.988H68.293l.428-3.93h42.274l-.428 3.93zM110.567 107.485H68.293l.428-3.925h42.274l-.428 3.925zM110.567 112.987H68.293l.428-3.931h42.274l-.428 3.931zM110.567 118.488H68.293l.428-3.93h42.274l-.428 3.93zM110.567 123.985H68.293l.428-3.925h42.274l-.428 3.925zM110.567 129.486H68.293l.428-3.931h42.274l-.428 3.931zM110.567 134.988H68.293l.428-3.93h42.274l-.428 3.93zM110.567 140.485H68.293l.428-3.925h42.274l-.428 3.925zM110.567 145.986H68.293l.428-3.925h42.274l-.428 3.925zM110.567 151.488H68.293l.428-3.93h42.274l-.428 3.93zM155.263 96.487h-42.275l.428-3.93h42.275l-.428 3.93zM155.263 101.988h-42.275l.428-3.93h42.275l-.428 3.93zM155.263 107.485h-42.275l.428-3.925h42.275l-.428 3.925zM155.263 112.987h-42.275l.428-3.931h42.275l-.428 3.931zM155.263 118.488h-42.275l.428-3.93h42.275l-.428 3.93zM155.263 123.985h-42.275l.428-3.925h42.275l-.428 3.925zM155.263 129.486h-42.275l.428-3.931h42.275l-.428 3.931zM155.263 134.988h-42.275l.428-3.93h42.275l-.428 3.93zM155.263 140.485h-42.275l.428-3.925h42.275l-.428 3.925zM155.263 145.986h-42.275l.428-3.925h42.275l-.428 3.925zM155.263 151.488h-42.275l.428-3.93h42.275l-.428 3.93z" fill="#fff"/><path d="M235.56 83.974h-74.688v184.955h74.688V83.974z" fill="#fff" stroke="#263238" stroke-linecap="round" stroke-linejoin="round"/><path d="M260.102 83.974h-35.9v184.955h35.9V83.974z" fill="#263238" stroke="#263238" stroke-linecap="round" stroke-linejoin="round"/><path d="M222.281 87.583h-17.964v24.705h17.964V87.583z" fill="#fff" stroke="#263238" stroke-linecap="round" stroke-linejoin="round"/><path d="M216.943 96.814h-7.282v4.471h7.282v-4.471z" fill="#DD4D32" stroke="#263238" stroke-linecap="round" stroke-linejoin="round"/><path d="M201.727 87.583h-17.964v24.705h17.964V87.583z" fill="#fff" stroke="#263238" stroke-linecap="round" stroke-linejoin="round"/><path d="M196.388 96.814h-7.281v4.471h7.281v-4.471z" fill="#DD4D32" stroke="#263238" stroke-linecap="round" stroke-linejoin="round"/><path d="M181.173 87.583h-17.964v24.705h17.964V87.583z" fill="#fff" stroke="#263238" stroke-linecap="round" stroke-linejoin="round"/><path d="M175.834 96.814h-7.281v4.471h7.281v-4.471z" fill="#DD4D32" stroke="#263238" stroke-linecap="round" stroke-linejoin="round"/><path d="M222.281 116.101h-17.964v24.704h17.964v-24.704z" fill="#fff" stroke="#263238" stroke-linecap="round" stroke-linejoin="round"/><path d="M216.943 125.33h-7.282v4.471h7.282v-4.471z" fill="#DD4D32" stroke="#263238" stroke-linecap="round" stroke-linejoin="round"/><path d="M181.173 116.101h-17.964v24.704h17.964v-24.704z" fill="#fff" stroke="#263238" stroke-linecap="round" stroke-linejoin="round"/><path d="M175.834 125.33h-7.281v4.471h7.281v-4.471z" fill="#fff" stroke="#263238" stroke-linecap="round" stroke-linejoin="round"/><path d="M201.029 116.877h-16.686v19.941h16.686v-19.941z" fill="#263238" stroke="#263238" stroke-linecap="round" stroke-linejoin="round"/><path d="M199.874 118.601h-16.685v19.94h16.685v-19.94z" fill="#fff" stroke="#263238" stroke-linecap="round" stroke-linejoin="round"/><path d="M197.565 118.601H180.88v19.94h16.685v-19.94z" fill="#fff" stroke="#263238" stroke-linecap="round" stroke-linejoin="round"/><path d="M195.257 118.601h-16.686v19.94h16.686v-19.94z" fill="#fff" stroke="#263238" stroke-linecap="round" stroke-linejoin="round"/><path d="M192.948 118.601h-16.686v19.94h16.686v-19.94z" fill="#fff" stroke="#263238" stroke-linecap="round" stroke-linejoin="round"/><path d="M190.639 118.601h-16.686v19.94h16.686v-19.94z" fill="#fff" stroke="#263238" stroke-linecap="round" stroke-linejoin="round"/><path d="M188.33 118.601h-16.685v19.94h16.685v-19.94z" fill="#fff" stroke="#263238" stroke-linecap="round" stroke-linejoin="round"/><path d="M201.029 120.071h-16.686v19.94h16.686v-19.94z" fill="#263238" stroke="#263238" stroke-linecap="round" stroke-linejoin="round"/><path d="M187.142 116.101h-17.964v24.704h17.964v-24.704z" fill="#fff" stroke="#263238" stroke-linecap="round" stroke-linejoin="round"/><path d="M181.804 125.33h-7.282v4.471h7.282v-4.471z" fill="#DD4D32" stroke="#263238" stroke-linecap="round" stroke-linejoin="round"/><path d="M222.281 144.611h-17.964v24.705h17.964v-24.705z" fill="#fff" stroke="#263238" stroke-linecap="round" stroke-linejoin="round"/><path d="M216.943 153.842h-7.282v4.471h7.282v-4.471z" fill="#DD4D32" stroke="#263238" stroke-linecap="round" stroke-linejoin="round"/><path d="M201.727 144.611h-17.964v24.705h17.964v-24.705z" fill="#fff" stroke="#263238" stroke-linecap="round" stroke-linejoin="round"/><path d="M196.388 153.842h-7.281v4.471h7.281v-4.471z" fill="#DD4D32" stroke="#263238" stroke-linecap="round" stroke-linejoin="round"/><path d="M181.173 144.611h-17.964v24.705h17.964v-24.705z" fill="#fff" stroke="#263238" stroke-linecap="round" stroke-linejoin="round"/><path d="M175.834 153.842h-7.281v4.471h7.281v-4.471z" fill="#DD4D32" stroke="#263238" stroke-linecap="round" stroke-linejoin="round"/><path d="M222.281 173.123h-17.964v24.705h17.964v-24.705z" fill="#fff" stroke="#263238" stroke-linecap="round" stroke-linejoin="round"/><path d="M216.943 182.353h-7.282v4.471h7.282v-4.471z" fill="#DD4D32" stroke="#263238" stroke-linecap="round" stroke-linejoin="round"/><path d="M201.727 173.123h-17.964v24.705h17.964v-24.705z" fill="#fff" stroke="#263238" stroke-linecap="round" stroke-linejoin="round"/><path d="M196.388 182.353h-7.281v4.471h7.281v-4.471z" fill="#DD4D32" stroke="#263238" stroke-linecap="round" stroke-linejoin="round"/><path d="M181.173 173.123h-17.964v24.705h17.964v-24.705z" fill="#fff" stroke="#263238" stroke-linecap="round" stroke-linejoin="round"/><path d="M175.834 182.353h-7.281v4.471h7.281v-4.471z" fill="#DD4D32" stroke="#263238" stroke-linecap="round" stroke-linejoin="round"/><path d="M222.281 201.635h-17.964v24.705h17.964v-24.705z" fill="#fff" stroke="#263238" stroke-linecap="round" stroke-linejoin="round"/><path d="M216.943 210.864h-7.282v4.472h7.282v-4.472z" fill="#DD4D32" stroke="#263238" stroke-linecap="round" stroke-linejoin="round"/><path d="M201.727 201.635h-17.964v24.705h17.964v-24.705z" fill="#fff" stroke="#263238" stroke-linecap="round" stroke-linejoin="round"/><path d="M196.388 210.864h-7.281v4.472h7.281v-4.472z" fill="#DD4D32" stroke="#263238" stroke-linecap="round" stroke-linejoin="round"/><path d="M181.173 201.635h-17.964v24.705h17.964v-24.705z" fill="#fff" stroke="#263238" stroke-linecap="round" stroke-linejoin="round"/><path d="M175.834 210.864h-7.281v4.472h7.281v-4.472z" fill="#DD4D32" stroke="#263238" stroke-linecap="round" stroke-linejoin="round"/><path d="M222.281 230.146h-17.964v24.705h17.964v-24.705z" fill="#fff" stroke="#263238" stroke-linecap="round" stroke-linejoin="round"/><path d="M216.943 239.375h-7.282v4.472h7.282v-4.472z" fill="#DD4D32" stroke="#263238" stroke-linecap="round" stroke-linejoin="round"/><path d="M201.727 230.146h-17.964v24.705h17.964v-24.705z" fill="#fff" stroke="#263238" stroke-linecap="round" stroke-linejoin="round"/><path d="M196.388 239.375h-7.281v4.472h7.281v-4.472z" fill="#DD4D32" stroke="#263238" stroke-linecap="round" stroke-linejoin="round"/><path d="M181.173 230.146h-17.964v24.705h17.964v-24.705z" fill="#fff" stroke="#263238" stroke-linecap="round" stroke-linejoin="round"/><path d="M175.834 239.375h-7.281v4.472h7.281v-4.472z" fill="#DD4D32" stroke="#263238" stroke-linecap="round" stroke-linejoin="round"/><path d="M83.897 169.356s-2.467 2.815-3.874 8.447c-1.408 5.631 4.927 9.854 2.815 15.835-2.111 5.98-5.98 8.79-4.933 14.771 1.048 5.98 5.632 6.335 2.106 13.019-3.525 6.685-6.684 9.146-5.631 15.481 1.053 6.335 14.422 14.427 14.422 14.427s9.15-10.204 9.5-16.894c.349-6.69-8.092-10.908-6.684-16.894 1.407-5.986 4.927-10.907 4.578-16.539-.35-5.631-7.04-9.849-7.04-14.078 0-4.229 2.816-6.684 2.816-11.612 0-4.927-6.335-9.151-6.335-11.961 0-2.81 1.408-6.335 1.408-6.335s-6.668 4.24-3.148 12.333z" fill="#DD4D32"/><path opacity=".5" d="M83.897 169.356s-2.467 2.815-3.874 8.447c-1.408 5.631 4.927 9.854 2.815 15.835-2.111 5.98-5.98 8.79-4.933 14.771 1.048 5.98 5.632 6.335 2.106 13.019-3.525 6.685-6.684 9.146-5.631 15.481 1.053 6.335 14.422 14.427 14.422 14.427s9.15-10.204 9.5-16.894c.349-6.69-8.092-10.908-6.684-16.894 1.407-5.986 4.927-10.907 4.578-16.539-.35-5.631-7.04-9.849-7.04-14.078 0-4.229 2.816-6.684 2.816-11.612 0-4.927-6.335-9.151-6.335-11.961 0-2.81 1.408-6.335 1.408-6.335s-6.668 4.24-3.148 12.333z" fill="#fff"/><path d="M87.417 249.225l-.704-76M94.512 231.83l-6.893 6.892-7.816-6.892M92.214 201.494l-5.056 7.811-4.365-7.124M83.942 178.512l2.985 3.677 2.528-4.37" stroke="#263238" stroke-linecap="round" stroke-linejoin="round"/><path d="M96.213 249.225H78.62v19.704h17.593v-19.704z" fill="#263238"/><path d="M126.712 193.644l-11.629.163s1.639 13.92.327 21.129c-1.312 7.208-4.747 12.771-4.747 18.02 0 3.446-1.977 15.272-2.461 22.373 0 0-2.253 1.751-2.743 2.568-.49.816 0 1.802 1.312 2.787a8.483 8.483 0 013.114 3.604c.817 1.803 1.966 3.762 3.436 4.258 1.751.563.653-1.352.382-2.191a18.612 18.612 0 01-.968-6.453c.332-7.619 1.391-15.7 4.313-23.016 2.923-7.315 10.159-35.522 9.664-43.242z" fill="#fff" stroke="#263238" stroke-linecap="round" stroke-linejoin="round"/><path d="M110.471 263.816l2.827-1.802.49 2.782-2.331 2.291-.986-3.271z" fill="#263238" stroke="#263238" stroke-linecap="round" stroke-linejoin="round"/><path d="M106.281 261.22s1.352.754 1.521 3.114c.169 2.359.169 4.049 1.351 4.555 1.183.507 4.382.338 4.382.338s-2.748-2.703-3.649-4.893c-.901-2.191-2.09-4.398-3.605-3.114z" fill="#fff" stroke="#263238" stroke-linecap="round" stroke-linejoin="round"/><path d="M105.262 258.026s.749-.399 2.478 1.329c1.729 1.729 3.407 5.71 4.156 7.152.749 1.442 2.309 2.078 2.596 1.965.287-.112 1.155.344.867.687-.287.344-1.329.406-2.134.175-.805-.231-2.596-1.847-3.176-3.001-.58-1.155-1.554-3.576-2.478-4.382a6.363 6.363 0 00-2.483-1.441c-.715-.175-1.554-1.442.174-2.484z" fill="#263238" stroke="#263238" stroke-linecap="round" stroke-linejoin="round"/><path d="M104.373 259.992l-.924 5.941.867.231 1.729-5.311s.017-.923-1.672-.861z" fill="#263238" stroke="#263238" stroke-linecap="round" stroke-linejoin="round"/><path d="M133.25 107.772c.376 1.005.617 2.056.715 3.125.085 1.521.71 3.036 1.251 3.571.54.535 1.959.805 1.689 1.52s-1.785 1.43-1.785 1.43-.09 3.835-.563 4.911a2.534 2.534 0 01-2.146 1.689 24.4 24.4 0 01-3.305-.625s-.626 4.911-.8 6.341a27.99 27.99 0 00-.18 3.035l-5.17-3.322s1.611-5.001 1.611-6.606c0-1.605-.361-1.785-.361-1.785s-2.5-1.52-3.57-3.942c-1.07-2.421 2.681-5.445 3.75-4.555a21.966 21.966 0 012.411 2.59l6.453-7.377z" fill="#fff" stroke="#263238" stroke-linecap="round" stroke-linejoin="round"/><path d="M120.304 105.897s-3.216-3.306-6.521-4.466c-3.306-1.16-9.376 3.126-11.877 9.202-2.5 6.076 1.16 11.786 3.036 14.196 1.875 2.411 3.941 5.446 2.77 6.758l-1.16 1.34a3.614 3.614 0 003.379-1.25c1.43-1.689 3.215-6.076 1.43-11.786s-3.66-12.952-.98-14.912c2.681-1.96 7.051-1.166 8.211.445l1.16 1.605.552-1.132z" fill="#263238" stroke="#263238" stroke-linecap="round" stroke-linejoin="round"/><path d="M124.589 121.969a18.072 18.072 0 01-8.036-6.786c-3.215-5.001 4.286-10.176 8.391-12.231 4.105-2.056 7.946-2.32 9.573.715 1.627 3.035-2.59 7.765-4.736 9.641-2.145 1.875-2.765 4.285-3.835 4.285-1.07 0-.36-2.59-2.5-2.252-2.14.337-.986 3.215-.361 4.105a2.631 2.631 0 001.786.985l-.282 1.538z" fill="#263238" stroke="#263238" stroke-linecap="round" stroke-linejoin="round"/><path d="M131.403 102.676s.923 5.276-3.294 8.841c-4.218 3.565-8.842 3.565-8.977 5.276" stroke="#fff" stroke-width=".75" stroke-linecap="round" stroke-linejoin="round"/><path d="M118.068 116.27s-.13-2.776 3.035-5.017c3.165-2.242 8.577-4.089 8.577-7.918M109.097 104.522s-4.882 4.353-3.829 9.636c1.053 5.282 6.071 10.553 5.412 13.718-.659 3.164-2.377 3.694-2.377 3.694" stroke="#fff" stroke-width=".75" stroke-linecap="round" stroke-linejoin="round"/><path d="M107.909 105.446s-4.505 2.771-5.012 8.183c-.507 5.411.665 9.201 2.044 11.2" stroke="#fff" stroke-width=".75" stroke-linecap="round" stroke-linejoin="round"/><path d="M171.301 124.761s1.999 1.335 1.475 1.763a23.06 23.06 0 01-2.427 1.813c-.428.186-1.577-.287-1.43-.907.146-.619 2.382-2.669 2.382-2.669z" fill="#fff" stroke="#263238" stroke-linecap="round" stroke-linejoin="round"/><path d="M130.609 135.146l14.642 8.48 19.94-12.884s2.095-4.184 2.534-4.623c.439-.44 2.867-1.983 4.077-2.974 1.211-.991 1.763-1.982 1.763-1.436 0 .547-1.543 2.974-1.982 3.419-.44.444-1.876 1.982-1.876 2.308 0 .327 2.974-.991 3.306-1.126.332-.135.985-.394.439.377-.546.772-2.168 1.312-3.052 2.191-.884.878-2.01 2.055-3.334 2.607-1.323.552-16.19 13.437-17.733 15.306a7.317 7.317 0 01-5.068 2.647c-1.211 0-9.573-3.418-9.573-3.418l-4.083-10.874z" fill="#fff" stroke="#263238" stroke-linecap="round" stroke-linejoin="round"/><path d="M152.701 138.812l-7.445 4.815-14.641-8.481 4.071 10.903s8.374 3.418 9.573 3.418a7.324 7.324 0 005.069-2.647c.563-.676 2.815-2.776 5.603-5.22l-2.23-2.788z" fill="#263238" stroke="#263238" stroke-linecap="round" stroke-linejoin="round"/><path d="M132.372 149.021l19.05-8.587 4.072 9.691-20.814 8.368-2.308-9.472z" fill="#DD4D32" stroke="#263238" stroke-linecap="round" stroke-linejoin="round"/><path d="M131.775 135.321s-4.443-6.15-7.062-7.068c-2.618-.918-6.02 2.619-6.932 7.98-.912 5.361 4.578 21.714 4.708 22.238.129.524 9.573 2.354 9.573 2.354s4.967-13.47 4.708-17.266c-.259-3.795-4.995-8.238-4.995-8.238zM119.611 261.782s-.89-.152-.89.406v6.589h.693l.76-4.106s.625 0 2.01 1.251c1.386 1.25 2.05 2.37 2.951 2.995.901.625 4.336.564 4.888.564.552 0 .8-.794.226-.885-.575-.09-3.762-1.892-4.455-2.444-.693-.551-3.26-3.942-4.094-4.37-.833-.427-2.089 0-2.089 0z" fill="#263238" stroke="#263238" stroke-linecap="round" stroke-linejoin="round"/><path d="M118.389 194.309s2.444 16.224.524 23.027c-1.92 6.802-3.486 10.288-2.962 15.17.524 4.883 4.882 19.71 4.882 23.37 0 3.661-1.881 4.083-1.222 5.93.451 1.25 3.835 2.968 5.068 4.359 1.234 1.391 2.619 2.618 3.317 2.618s2.253.699 2.253-.174-1.391-.699-1.915-1.921-3.733-7.106-3.795-9.01c-.102-2.99-.744-24.806.129-31.085.873-6.278 2.968-18.662 3.841-21.798.873-3.137 1.391-9.945 1.391-9.945l-11.511-.541z" fill="#fff" stroke="#263238" stroke-linecap="round" stroke-linejoin="round"/><path d="M122.489 158.471s-8.808 9.01-9.681 16.613c-.563 4.921 1.69 27.03 1.69 27.03h18.183s.654-27.182 0-32.155a78.548 78.548 0 01-.653-9.156l-9.539-2.332z" fill="#DD4D32" stroke="#263238" stroke-linecap="round" stroke-linejoin="round"/><path d="M125.102 266.649l1.937-2.844 1.391 2.011-1.391 2.815s-.969-.039-1.937-1.982z" fill="#263238" stroke="#263238" stroke-linecap="round" stroke-linejoin="round"/><path d="M124.443 132.724s-2.534-.439-4.297 2.867c-1.762 3.305 4.736 27.858 4.843 28.849.107.991 20.487-9.14 20.836-9.14.349 0 4.291-.332 5.502-1.21a23.958 23.958 0 002.427-2.095s2.641-1.65 1.757-1.87c-.884-.219-6.386.879-6.386.879s2.095-1.757 2.095-2.202c0-.445-.22-.879-.991-.439-.772.439-3.525 2.421-4.077 3.412-.292.481-.514 1-.659 1.543 0 0-12.113 3.086-13.769 3.413-1.655.326-2.641.563-2.641.563l-1.999-19.4" fill="#263238"/><path d="M124.443 132.724s-2.534-.439-4.297 2.867c-1.762 3.305 4.736 27.858 4.843 28.849.107.991 20.487-9.14 20.836-9.14.349 0 4.291-.332 5.502-1.21a23.958 23.958 0 002.427-2.095s2.641-1.65 1.757-1.87c-.884-.219-6.386.879-6.386.879s2.095-1.757 2.095-2.202c0-.445-.22-.879-.991-.439-.772.439-3.525 2.421-4.077 3.412-.292.481-.514 1-.659 1.543 0 0-12.113 3.086-13.769 3.413-1.655.326-2.641.563-2.641.563l-1.999-19.4" stroke="#263238" stroke-linecap="round" stroke-linejoin="round"/><path d="M129.066 157.282l-1.368-17.924M122.956 133.417s-2.506 1.059-2.771 5.547c-.264 4.488 3.165 18.865 3.165 18.865" stroke="#fff" stroke-width=".75" stroke-linecap="round" stroke-linejoin="round"/><path d="M132.529 156.545c.135.963.451 3.188.648 4.686 5.744-2.647 12.423-5.93 12.614-5.93.327 0 4.291-.332 5.502-1.211a23.833 23.833 0 002.427-2.095s2.641-1.65 1.757-1.869c-.884-.22-6.386.878-6.386.878s2.095-1.757 2.095-2.202c0-.444-.22-.878-.991-.439-.772.439-3.525 2.422-4.077 3.413-.292.48-.514 1-.659 1.543 0 0-9.697 2.472-12.93 3.226z" fill="#fff" stroke="#263238" stroke-linecap="round" stroke-linejoin="round"/><path d="M114.441 177.831s3.88 8.047 5.316 10.632" stroke="#263238" stroke-width=".75" stroke-linecap="round" stroke-linejoin="round"/><path d="M282.621 269.199H64.379v2.174h218.242v-2.174z" fill="#263238" stroke="#263238" stroke-linecap="round" stroke-linejoin="round"/></svg>