<svg width="262" height="262" fill="none" xmlns="http://www.w3.org/2000/svg"><path d="M241.716 149.864a171.408 171.408 0 007.493-47.831c.262-16.695-1.572-34.746-12.576-47.26-10.805-12.235-28.144-16.416-44.456-17.129-6.608-.283-13.357-.094-19.629 2.002-12.665 4.234-21.542 15.463-32.776 22.684-21.689 13.938-50.99 12.288-71.84 27.452a60.093 60.093 0 00-13.75 14.227c-15.196 21.772-16.386 51.933-4.785 75.817 11.602 23.884 34.904 41.218 60.69 47.59 25.786 6.372 53.611 2.164 77.505-9.432 27.84-13.514 45.179-39.384 54.124-68.12z" fill="#DD4D32"/><path opacity=".7" d="M241.716 149.864a171.408 171.408 0 007.493-47.831c.262-16.695-1.572-34.746-12.576-47.26-10.805-12.235-28.144-16.416-44.456-17.129-6.608-.283-13.357-.094-19.629 2.002-12.665 4.234-21.542 15.463-32.776 22.684-21.689 13.938-50.99 12.288-71.84 27.452a60.093 60.093 0 00-13.75 14.227c-15.196 21.772-16.386 51.933-4.785 75.817 11.602 23.884 34.904 41.218 60.69 47.59 25.786 6.372 53.611 2.164 77.505-9.432 27.84-13.514 45.179-39.384 54.124-68.12z" fill="#fff"/><path d="M203.249 49.419v109.233a5.886 5.886 0 01-1.722 4.162 5.87 5.87 0 01-4.162 1.722H51.693a5.862 5.862 0 01-4.171-1.716 5.88 5.88 0 01-1.724-4.168V49.419a5.88 5.88 0 015.879-5.885h145.672a5.88 5.88 0 015.9 5.885z" fill="#fff"/><path d="M203.249 52.794V158.64a5.876 5.876 0 01-1.718 4.17 5.89 5.89 0 01-4.167 1.725H51.692a5.797 5.797 0 01-1.634-.23L203.249 52.793z" fill="#263238"/><path opacity=".9" d="M203.249 52.794V158.64a5.876 5.876 0 01-1.718 4.17 5.89 5.89 0 01-4.167 1.725H51.692a5.797 5.797 0 01-1.634-.23L203.249 52.793z" fill="#fff"/><path d="M162.864 111.927l7.96-3.585-1.698-9.49-8.782-.701a35.98 35.98 0 00-4.396-8.253l2.745-4.648 1.756-2.982-6.812-6.76-7.624 4.58a37.336 37.336 0 00-14.589-6.015l-2.195-8.74h-9.621l-2.232 8.803a40.412 40.412 0 00-8.636 2.777l-6.911-5.953-7.886 5.371 3.28 8.515a35.672 35.672 0 00-5.371 7.19l-9.076-.917-3.264 9.06 7.472 5.098a36.792 36.792 0 00-.524 6.44 18.84 18.84 0 000 2.667l-7.933 4.454 2.515 9.28h8.96a38.087 38.087 0 003.008 5.308 40.839 40.839 0 001.86 2.521l-3.867 7.991 7.404 6.209 7.142-5.35a37.631 37.631 0 008.636 3.642l1.43 8.635 9.621.855 2.882-8.143a40.717 40.717 0 009.222-2.018l6.105 6.1 8.358-4.821-2.301-8.321a37.641 37.641 0 006.435-6.949l8.468 1.52 4.077-8.73-6.655-5.366a38.354 38.354 0 001.037-9.274zm-21.981 0a16.357 16.357 0 01-13.152 16.036 16.357 16.357 0 01-18.302-9.756 16.356 16.356 0 0116.658-22.561 16.357 16.357 0 019.97 4.679c.293.294.581.598.843.917a16.241 16.241 0 013.983 10.58v.105z" fill="#DD4D32" stroke="#263238" stroke-width="1.029" stroke-miterlimit="10"/><path opacity=".2" d="M161.827 121.175l6.655 5.366-4.077 8.73-8.468-1.52a37.641 37.641 0 01-6.435 6.949l2.301 8.321-8.358 4.82-6.105-6.073a40.664 40.664 0 01-9.232 2.044l-2.872 8.117-9.615-.854-1.431-8.636a37.605 37.605 0 01-8.635-3.642l-7.143 5.35-7.404-6.209 3.836-7.991a40.839 40.839 0 01-1.86-2.521L110.6 120.52a16.367 16.367 0 0030.282-8.599v-.104a16.241 16.241 0 00-3.983-10.58l21.814-15.992-2.745 4.647a35.982 35.982 0 014.375 8.259l8.74.702 1.74 9.49-7.939 3.584a38.4 38.4 0 01-1.058 9.248z" fill="#000"/><path d="M195.934 86.701l.398-.183a1.08 1.08 0 00.629-1.184l-.084-.487a1.074 1.074 0 00-.99-.902l-.482-.036a1.088 1.088 0 01-.896-.593c-.131-.277-.267-.523-.419-.801a1.068 1.068 0 010-1.08l.246-.419a1.102 1.102 0 00-.173-1.33l-.346-.347a1.047 1.047 0 00-1.336-.162l-.424.251a1.077 1.077 0 01-1.08 0 8.705 8.705 0 00-2.195-.89 1.075 1.075 0 01-.776-.792l-.126-.524a1.069 1.069 0 00-1.079-.833h-.482a1.076 1.076 0 00-1.08.828l-.136.524a1.092 1.092 0 01-.76.78c-.272.074-.524.158-.791.252a1.08 1.08 0 01-1.079-.199l-.435-.372a1.082 1.082 0 00-1.326-.073l-.383.257a1.084 1.084 0 00-.403 1.3l.194.523a1.081 1.081 0 01-.168 1.08c-.173.204-.335.419-.487.639a1.047 1.047 0 01-1.001.466l-.524-.052a1.08 1.08 0 00-1.137.718l-.173.477a1.08 1.08 0 00.393 1.262l.498.351a1.08 1.08 0 01.45.986 7.764 7.764 0 00-.041.849 1.134 1.134 0 01-.524.916l-.524.278a1.076 1.076 0 00-.524 1.247l.125.472a1.078 1.078 0 001.08.807h.524a1.082 1.082 0 01.943.524c.147.257.304.524.466.75a1.08 1.08 0 01.084 1.08l-.22.454a1.078 1.078 0 00.283 1.315l.372.315a1.08 1.08 0 001.347.047l.382-.267a1.08 1.08 0 011.08-.105c.272.131.55.252.838.357a1.077 1.077 0 01.687.833l.078.466a1.075 1.075 0 00.996.901l.492.048a1.087 1.087 0 001.122-.729l.152-.424a1.085 1.085 0 01.838-.708c.306-.046.608-.11.907-.194a1.047 1.047 0 011.048.289l.319.325a1.081 1.081 0 001.321.178l.429-.247a1.076 1.076 0 00.524-1.241l-.12-.425a1.078 1.078 0 01.272-1.08 8.95 8.95 0 00.64-.691 1.044 1.044 0 011.048-.367l.429.079a1.05 1.05 0 001.19-.613l.204-.446a1.076 1.076 0 00-.304-1.315l-.325-.262a1.08 1.08 0 01-.398-1.006c.052-.321.085-.645.1-.97a1.077 1.077 0 01.623-.875zm-3.872.284a5.472 5.472 0 11-1.618-3.883 5.45 5.45 0 011.607 3.846l.011.037z" fill="#DD4D32" stroke="#263238" stroke-width="1.029" stroke-miterlimit="10"/><path d="M203.249 49.419v.298H45.798v-.298a5.88 5.88 0 015.879-5.885h145.672a5.88 5.88 0 015.9 5.885z" fill="#263238"/><path d="M203.249 49.419v109.233a5.886 5.886 0 01-1.722 4.162 5.87 5.87 0 01-4.162 1.722H51.693a5.877 5.877 0 01-5.895-5.884V49.419a5.88 5.88 0 015.879-5.885h145.672a5.88 5.88 0 015.9 5.885v0zM45.798 49.419h157.451" stroke="#263238" stroke-width="1.029" stroke-linecap="round" stroke-linejoin="round"/><path d="M58.924 46.636a1.195 1.195 0 11-2.39 0 1.195 1.195 0 012.39 0zM64.578 46.636a1.195 1.195 0 11-2.39-.021 1.195 1.195 0 012.39.021zM70.216 46.636a1.196 1.196 0 11-2.39 0 1.196 1.196 0 012.39 0z" fill="#DD4D32"/><path d="M149.67 111.927a25.013 25.013 0 01-15.439 23.106 25.011 25.011 0 11-9.571-48.117v0a25.007 25.007 0 0125.01 24.853v.158z" stroke="#263238" stroke-width="4.117" stroke-miterlimit="10"/><path d="M242.507 55.544H153.49a5.88 5.88 0 00-5.879 5.88v19.76a5.879 5.879 0 005.879 5.879h89.017a5.88 5.88 0 005.88-5.88v-19.76a5.88 5.88 0 00-5.88-5.88z" fill="#fff" stroke="#263238" stroke-width="1.029" stroke-miterlimit="10"/><path d="M165.249 71.165h68.681M163.105 71.164l10.847-7.645h27.626l11.271 7.645" stroke="#263238" stroke-width="1.029" stroke-miterlimit="10"/><path d="M214.987 71.164a2.141 2.141 0 01-2.563 2.102 2.147 2.147 0 01-1.683-1.687 2.144 2.144 0 114.246-.415zM173.952 65.662a2.144 2.144 0 100-4.287 2.144 2.144 0 000 4.287zM203.715 63.52a2.14 2.14 0 01-2.559 2.108 2.142 2.142 0 01.422-4.247 2.144 2.144 0 012.137 2.138z" fill="#DD4D32" stroke="#263238" stroke-width="1.029" stroke-miterlimit="10"/><path d="M163.105 71.165l10.847 7.645h50.912l9.065-7.645" stroke="#263238" stroke-width="1.029" stroke-miterlimit="10"/><path d="M192.68 78.81a2.147 2.147 0 01-1.323 1.98 2.142 2.142 0 01-2.8-2.8 2.144 2.144 0 014.123.82zM176.096 78.81a2.14 2.14 0 01-1.323 1.98 2.146 2.146 0 01-2.336-.465 2.142 2.142 0 113.659-1.515zM227.007 78.81a2.14 2.14 0 01-1.323 1.98 2.142 2.142 0 01-2.8-2.8 2.144 2.144 0 014.123.82zM233.93 73.307a2.143 2.143 0 100-4.287 2.143 2.143 0 000 4.287zM165.249 71.164a2.141 2.141 0 01-2.563 2.102 2.147 2.147 0 01-1.683-1.687 2.144 2.144 0 114.246-.415z" fill="#DD4D32" stroke="#263238" stroke-width="1.029" stroke-miterlimit="10"/><path d="M100.645 121.935H49.361a5.879 5.879 0 00-5.88 5.879v51.284a5.879 5.879 0 005.88 5.879h51.284a5.879 5.879 0 005.879-5.879v-51.284a5.879 5.879 0 00-5.879-5.879z" fill="#fff" stroke="#263238" stroke-width="1.029" stroke-miterlimit="10"/><path d="M67.12 157.928L58.954 173.8H95.96M95.96 133.95l-17.27 11.481 17.27 5.198" stroke="#263238" stroke-width="1.029" stroke-linecap="round" stroke-linejoin="round"/><path d="M100.042 129.868h-8.164v8.164h8.164v-8.164zM100.042 146.547h-8.164v8.164h8.164v-8.164zM82.771 141.349h-8.164v8.164h8.164v-8.164zM71.201 153.846h-8.164v8.164h8.164v-8.164zM63.037 169.713h-8.164v8.164h8.164v-8.164zM100.042 169.713h-8.164v8.164h8.164v-8.164z" fill="#DD4D32" stroke="#263238" stroke-width="1.029" stroke-miterlimit="10"/><path d="M70.75 97.228H19.468a5.88 5.88 0 00-5.88 5.879v51.284a5.879 5.879 0 005.88 5.879H70.75a5.88 5.88 0 005.879-5.879v-51.284a5.88 5.88 0 00-5.88-5.879z" fill="#fff" stroke="#263238" stroke-width="1.029" stroke-miterlimit="10"/><path d="M62.194 103.328H20.258v3.248h41.936v-3.248zM44.488 108.678h-24.23v3.249h24.23v-3.249zM34.37 114.027H20.257v3.249h14.111v-3.249zM43.481 119.373H20.258v3.248H43.48v-3.248zM56.461 124.722H20.258v3.249H56.46v-3.249zM44.488 130.067h-24.23v3.249h24.23v-3.249zM37.162 135.417H20.258v3.249h16.904v-3.249zM47.626 140.767H20.258v3.249h27.368v-3.249zM53.438 146.112h-33.18v3.249h33.18v-3.249zM62.194 151.462H20.258v3.249h41.936v-3.249z" fill="#DD4D32"/><path opacity=".3" d="M62.194 103.328H20.258v3.248h41.936v-3.248zM44.488 108.678h-24.23v3.249h24.23v-3.249zM34.37 114.027H20.257v3.249h14.111v-3.249zM43.481 119.373H20.258v3.248H43.48v-3.248zM56.461 124.722H20.258v3.249H56.46v-3.249zM44.488 130.067h-24.23v3.249h24.23v-3.249zM37.162 135.417H20.258v3.249h16.904v-3.249zM47.626 140.767H20.258v3.249h27.368v-3.249zM53.438 146.112h-33.18v3.249h33.18v-3.249zM62.194 151.462H20.258v3.249h41.936v-3.249z" fill="#000"/><path d="M47.26 91.7h15.259a2.777 2.777 0 012.777 2.777v2.761H44.482v-2.761A2.778 2.778 0 0147.26 91.7z" fill="#fff" stroke="#263238" stroke-width="1.029" stroke-miterlimit="10"/><path d="M36.942 91.7h15.08a2.871 2.871 0 012.872 2.871v2.673H34.06V94.57a2.873 2.873 0 012.882-2.871z" fill="#DD4D32" stroke="#263238" stroke-width="1.029" stroke-miterlimit="10"/><path d="M25.346 91.7h15.448a2.688 2.688 0 012.698 2.672v2.856H22.663v-2.856a2.688 2.688 0 012.683-2.672z" fill="#fff" stroke="#263238" stroke-width="1.029" stroke-miterlimit="10"/><path d="M221.746 207.263h11.46M41.223 207.263h174.492" stroke="#263238" stroke-width="1.029" stroke-linecap="round" stroke-linejoin="round"/><path d="M218.602 200.551s2.028-1.661 2.997.152c.834 1.572-1.163 3.327-3.442 3.327v1.326s4.883.131 5.24-3.983c.356-4.113-4.816-2.976-4.816-2.976l.021 2.154z" fill="#DD4D32" stroke="#263238" stroke-width="1.029" stroke-linecap="round" stroke-linejoin="round"/><path d="M218.435 207.237h-9.778l-1.468-12.278h12.713l-1.467 12.278z" fill="#DD4D32" stroke="#263238" stroke-width="1.029" stroke-linecap="round" stroke-linejoin="round"/><path d="M219.881 194.373h-12.67a.67.67 0 00-.671.67v.063c0 .371.3.671.671.671h12.67c.37 0 .671-.3.671-.671v-.063a.67.67 0 00-.671-.67z" fill="#fff" stroke="#263238" stroke-width="1.029" stroke-linecap="round" stroke-linejoin="round"/><path d="M211.885 193.036s4.496-2.698 3.028-5.795c-1.467-3.097-6.429-5.135-6.429-9.956 0-4.15 4.412-5.686 7.294-7.336" stroke="#263238" stroke-width="1.029" stroke-linecap="round" stroke-linejoin="round"/><path d="M213.362 172.878a5.385 5.385 0 00-2.25 5.556 5.38 5.38 0 00.825 1.937M215.81 185.113a8.129 8.129 0 01.702 5.623" stroke="#263238" stroke-width="1.029" stroke-linecap="round" stroke-linejoin="round"/><path d="M95.368 206.246s-.204-3.521-3.312-4.763c-3.107-1.242-4.768-.728-11.7 1.137a66.281 66.281 0 01-13.363 2.07v1.572l28.375-.016z" fill="#fff" stroke="#263238" stroke-width="1.029" stroke-linecap="round" stroke-linejoin="round"/><path d="M95.269 206.246s.204-3.521 3.311-4.763c3.108-1.242 4.763-.728 11.701 1.137a66.133 66.133 0 0013.383 2.07v1.572l-28.395-.016z" fill="#fff" stroke="#263238" stroke-width="1.029" stroke-linecap="round" stroke-linejoin="round"/><path d="M124.791 205.623h-58.51v1.137h58.51v-1.137z" fill="#263238" stroke="#263238" stroke-width="1.029" stroke-linecap="round" stroke-linejoin="round"/><path d="M96.778 206.183a6.239 6.239 0 013.442-3.741M98.549 205.932a5.762 5.762 0 013.893-2.767c1.934-.356 3.904.309 5.727 1.048 1.824.739 5.015 1.719 6.964 1.719M78.286 205.612a21.11 21.11 0 005.643-1.415 24.805 24.805 0 013.364-1.289 4.65 4.65 0 013.49.351c.461.3.867.678 1.2 1.117a8.383 8.383 0 011.137 1.912" stroke="#263238" stroke-width="1.029" stroke-linecap="round" stroke-linejoin="round"/><path d="M88.986 204.03a2.775 2.775 0 011.666.854c.425.47.796.987 1.106 1.54" stroke="#263238" stroke-width="1.029" stroke-linecap="round" stroke-linejoin="round"/><path d="M139.698 205.68a17.337 17.337 0 01-6.812 1.572c-3.626 0-11.004-7.493-11.004-7.493s-.267-.807.31-3.825c.576-3.018 5.994-30.712 5.994-30.712s.639-6.445 4.302-10.401c3.663-3.956 10.852-5.366 10.852-5.366s15.898-6.922 24.817-4.784c8.908 3.537 18.639 7.132 21.887 9.919 3.249 2.788 11.235 25.152 14.002 36.638 0 0-6.094 12.949-11.78 16.585-5.685 3.637-19.388 2.452-19.388 2.452l-33.18-4.585z" fill="#DD4D32"/><path opacity=".3" d="M137.681 183.175l-2.3-30.523a10.025 10.025 0 00-3.89 2.817 10.032 10.032 0 00-2.131 4.304c-1.189 5.46-8.384 39.064-7.493 39.997.891.933 5.581 4.952 5.581 4.952s5.056 4.323 10.233 1.739c5.177-2.583 0-23.286 0-23.286z" fill="#000"/><path opacity=".3" d="M160.507 155.482c-.268.911-1.415 1.205-2.369 1.215-2.74.03-5.398-.938-7.477-2.724-.378-.331-7.121 3.835-7.897 4.249-1.226.66-2.426 1.384-3.668 1.997-1.163.571-2.264.854-3.023 2.007a10.342 10.342 0 00-1.127 2.724c-1.635 5.356-3.359 10.695-4.847 16.087-1.289 4.669-3.024 9.836-2.95 14.735.001.351.025.701.073 1.048 1.048 6.262 12.482 8.861 12.482 8.861s-4.045 2.478-6.812 1.572c-2.767-.907-9.233-4.606-11.271-8.065l5.612-29.344s-.068-14.148 10.129-18.34 14.2-4.836 14.2-4.836l8.945 8.814zM198.135 201.64s4.454-4.92 5.895-10.401c0 0-6.812-22.501-8.583-26.724-1.771-4.223-4.637-9.018-6.644-11.072l-3.26 46.311-.686 9.746s3.668.152 6.209-1.048c2.542-1.2 7.069-6.812 7.069-6.812z" fill="#000"/><path d="M184.857 209.516l3.945-56.068s-19.105-8.908-24.104-9.756c-4.998-.849-29.275 8.719-29.275 8.719l3.531 53.773" stroke="#263238" stroke-width="1.029" stroke-linecap="round" stroke-linejoin="round"/><path d="M150.419 116.328l-1.959 9.406s-2.515-1.777-3.05.23c-.534 2.007 1.1 4.769 4.26 4.921 0 0 .86 4.26 3.668 7.152a52.308 52.308 0 004.192 4.004s1.106 7.142 4.716 7.414c3.611.273 4.313-2.976 5.041-7.493 0 0 3.118-5.408 4.03-8.332 0 0 3.825-2.667 1.273-6.56 0 0 1.263-9.312-.933-10.884-2.195-1.572-17.407-.77-21.238.142z" fill="#fff"/><path d="M162.068 150.199s-1.21 6.1-1.965 6.252c-.754.152-3.741-2.699-6.351-6.252-2.609-3.552-2.206-3.558-2.206-3.558s1.211-4.663 2.206-5.345c.996-.681 4.585-.597 4.585-.597l7.86-.299s2.62-.372 4.239.671c1.62 1.043 2.406 5.57 2.406 5.57s-4.716 8.693-8.563 9.81a57.41 57.41 0 01-2.211-6.252z" fill="#fff"/><path d="M136.303 195.997l1.043-14.63" stroke="#263238" stroke-width="1.029" stroke-miterlimit="10"/><path d="M172.842 119.022s-4.465 1.729-8.411 1.399c0 0-4.165 4.192-9.5 1.703 0 0-4.81 13.026 6.22 21.547a18.868 18.868 0 01-11.481-12.791s-3.144.487-4.26-4.192c0 0-.906-1.808 3.228-1.819l-.178-9.065 10.621 2.133 7.625-1.116 6.136 2.201z" fill="#DD4D32"/><path opacity=".4" d="M172.841 119.022s-4.464 1.729-8.41 1.399c0 0-4.166 4.192-9.5 1.703 0 0-3.888 13.948 5.764 21.311 0 0-8.756-3.034-11.03-12.576 0 0-3.113-.33-4.26-4.192 0 0-.907-1.808 3.228-1.819l-.179-9.065 10.622 2.133 7.624-1.116 6.141 2.222z" fill="#fff"/><path d="M160.7 137.078c.346.28.709.539 1.085.776.246.157.618.283.791.052a.581.581 0 00.089-.314c.158-2.573-.445-5.172-.078-7.724" stroke="#263238" stroke-width="1.029" stroke-linecap="round" stroke-linejoin="round"/><path d="M164.279 128.406s1.279-2.819 4.575-.288M160.135 128.904s-2.411-2.997-5.398.095" stroke="#263238" stroke-width="2.059" stroke-linecap="round" stroke-linejoin="round"/><path d="M156.88 141.59s1.284 7.687 5.812 7.923c3.668.189 4.391-6.168 4.532-8.442M149.078 126.588s-1.996-2.384-3.348-1.221c-1.352 1.163.676 6.288 3.94 5.513M157.724 138.032a7.057 7.057 0 003.836 2.369" stroke="#263238" stroke-width="1.029" stroke-linecap="round" stroke-linejoin="round"/><path d="M157.504 133.573c.287 0 .519-.493.519-1.101 0-.607-.232-1.1-.519-1.1-.286 0-.519.493-.519 1.1 0 .608.233 1.101.519 1.101zM166.433 132.473c0 .608-.236 1.1-.524 1.1-.288 0-.524-.492-.524-1.1 0-.608.231-1.106.524-1.106.293 0 .524.498.524 1.106z" fill="#263238"/><path d="M162.215 149.45s-1.258 6.849-2.096 7.001c-.838.152-7.289-5.696-8.557-9.81 0 0 1.362-5.376 2.62-5.57a59.933 59.933 0 011.813-.251M162.215 149.45s1.216 6.849 2.064 7.001c.849.152 7.295-5.696 8.563-9.809 0 0-1.541-5.34-2.71-5.791a14.359 14.359 0 00-2.295-.649" stroke="#263238" stroke-width="1.029" stroke-linecap="round" stroke-linejoin="round"/><path d="M150.289 132.604c.828 1.436 1.855-3.621 1.42-5.24-.294-1.048-.865-2.065-.917-3.144-.053-1.226.524-2.374.974-3.522.451-1.147.687-2.515 0-3.542a16.025 16.025 0 008.08 2.898 5.095 5.095 0 002.212-.178c.354-.117.672-.323.924-.598.251-.275.427-.611.512-.974 2.724.346 5.423.702 8.137.33 2.28-.309 5.822-.886 6.99-3.212 1.714-3.396-2.698-6.922-5.302-8.112-6.288-2.877-14.788-3.364-20.468 1.153-.583.505-1.193.978-1.829 1.415-1.252.786-4.103 1.394-5.103 2.489-1.342 1.472.34 12.843.34 12.843s2.19-1.016 3.092 2.374c.629 2.284.099 3.574.938 5.02z" fill="#263238"/><path d="M170.892 117.9a2.51 2.51 0 00-.073.43c-.059 1.29.095 2.58.456 3.82.141.555.345 1.095.435 1.661.209 1.347.209 2.646 1.205 3.741 0 0 1.907-6.67 1.137-11.439-.089-.524-.262-1.939-1.106-1.682-.618.189-1.048 1.247-1.32 1.761a8.833 8.833 0 00-.734 1.708z" fill="#263238"/><path d="M144.566 111.612a6.49 6.49 0 012.832-1.099 6.488 6.488 0 013.021.313 20.498 20.498 0 016.199-6.812" stroke="#263238" stroke-width="1.029" stroke-linecap="round" stroke-linejoin="round"/><path opacity=".47" d="M152.762 110.009s10.27 7.304 16.49 5.497c6.22-1.808 4.48-7.158 4.48-7.158M153.752 108.783s12.896 5.926 15.065-2.463" stroke="#fff" stroke-width="1.029" stroke-linecap="round" stroke-linejoin="round"/><path d="M156.88 141.59s2.453 4.763 4.376 4.685c1.923-.079 5.449-5.204 5.449-5.204s-1.902 2.453-4.789 2.704c-1.902.168-5.036-2.185-5.036-2.185zM171.72 176.368l.398-.183a1.08 1.08 0 00.624-1.19l-.079-.482a1.071 1.071 0 00-.99-.901l-.482-.042a1.067 1.067 0 01-.896-.613 14.542 14.542 0 00-.419-.797 1.066 1.066 0 010-1.079l.246-.419a1.115 1.115 0 00-.173-1.336l-.346-.341a1.047 1.047 0 00-1.336-.163l-.424.252a1.08 1.08 0 01-1.08 0 8.723 8.723 0 00-2.195-.896 1.08 1.08 0 01-.776-.786l-.126-.524a1.047 1.047 0 00-1.079-.828h-.482a1.047 1.047 0 00-1.08.823l-.136.524a1.054 1.054 0 01-.76.775c-.272.079-.524.157-.796.257a1.083 1.083 0 01-1.074-.199l-.435-.372a1.047 1.047 0 00-1.326-.079l-.383.262a1.05 1.05 0 00-.403 1.3l.194.524a1.088 1.088 0 01-.168 1.079 7.263 7.263 0 00-.487.645 1.076 1.076 0 01-1.001.461l-.524-.047a1.047 1.047 0 00-1.137.718l-.173.471a1.08 1.08 0 00.393 1.263l.524.351a1.102 1.102 0 01.451.99c-.033.28-.047.562-.042.844a1.114 1.114 0 01-.524.917l-.524.283a1.075 1.075 0 00-.524 1.242l.125.472a1.075 1.075 0 001.08.806h.524a1.09 1.09 0 01.943.524c.147.262.299.524.466.75a1.08 1.08 0 01.084 1.079l-.22.461a1.08 1.08 0 00.283 1.316l.372.314a1.078 1.078 0 001.342.047l.387-.272a1.043 1.043 0 011.048-.1c.278.131.556.246.844.356a1.078 1.078 0 01.687.828l.078.472a1.084 1.084 0 00.996.901l.492.042a1.078 1.078 0 001.122-.728l.152-.419a1.075 1.075 0 01.838-.708 9.09 9.09 0 00.907-.194 1.089 1.089 0 011.048.283l.319.325a1.08 1.08 0 001.321.178l.429-.241a1.074 1.074 0 00.524-1.247l-.12-.419a1.077 1.077 0 01.272-1.079 8.97 8.97 0 00.64-.697 1.075 1.075 0 011.048-.367l.434.084a1.083 1.083 0 001.19-.619l.204-.44a1.072 1.072 0 00-.304-1.315l-.324-.267a1.042 1.042 0 01-.399-1.001c.052-.321.085-.645.1-.97a1.072 1.072 0 01.618-.859zm-6.492.278a2.849 2.849 0 01-3.404 2.801 2.852 2.852 0 112.561-4.82c.534.53.835 1.251.838 2.003l.005.016z" fill="#263238"/><path d="M136.413 194.027c-.428.471-.896.904-1.399 1.294a11.75 11.75 0 00-2.982 4.758 3.89 3.89 0 000 2.578c.635 1.572 2.647 3.144 4.255 2.138M136.287 191.26c-1.535-.241-3.044.65-4.092 1.787-1.048 1.137-1.776 2.542-2.73 3.762" stroke="#263238" stroke-width="1.029" stroke-linecap="round" stroke-linejoin="round"/><path d="M136.167 207.017a10.38 10.38 0 01-6.073-.65 17.161 17.161 0 01-3.364-2.368l-3.983-3.291c-.639-.524-1.347-1.284-1.085-2.07 0 0 6.655-35.071 7.698-38.865 1.21-4.375 6.084-7.336 6.084-7.336M186.099 194.404a11.28 11.28 0 013.778 5.046 27.869 27.869 0 011.189 5.728c-1.048.576-3.144 2.096-4.967 2.096M186.324 191.485c1.614-.429 3.212.671 4.433 1.813 1.221 1.143 2.473 2.468 4.134 2.646" stroke="#263238" stroke-width="1.029" stroke-linecap="round" stroke-linejoin="round"/><path d="M186.633 209.71c3.144-.33 5.974-2.044 8.238-4.229 2.263-2.185 4.003-4.836 5.727-7.461 1.399-2.128 2.819-4.313 3.432-6.781 0 0-5.518-18.24-8.583-26.724-3.196-8.819-6.644-11.072-6.644-11.072M186.324 191.486c2.845-2.39 7.21-.456 10.27 1.147" stroke="#263238" stroke-width="1.029" stroke-linecap="round" stroke-linejoin="round"/><path d="M186.094 181.723h-49.681v28.553h49.681v-28.553z" fill="#fff"/><path d="M186.324 210.276h-50.157v1.493h50.157v-1.493zM136.167 210.276l49.932-28.553.225 28.553h-50.157z" fill="#263238"/><path opacity=".9" d="M136.167 210.276l49.932-28.553.225 28.553h-50.157z" fill="#fff"/><path d="M164.917 198.527a4.233 4.233 0 10-5.986-5.988 4.233 4.233 0 005.986 5.988z" fill="#263238"/><path d="M186.094 181.723h-49.681v28.553h49.681v-28.553zM148.848 123.695s1.09 9.956 2.473 11.754c1.383 1.797 5.827 8.3 10.669 8.2 4.841-.099 8.001-6.324 8.792-8.992a46.236 46.236 0 001.777-10.37M171.285 133.62s3.589-1.855 1.273-6.56" stroke="#263238" stroke-width="1.029" stroke-linecap="round" stroke-linejoin="round"/></svg>