<svg width="340" height="340" fill="none" xmlns="http://www.w3.org/2000/svg"><path d="M53.612 179.42s.227 42.2 34.62 70.77c34.391 28.57 83.041 31.215 122.399 34.392 39.358 3.177 70.238-18.788 75.707-52.533 5.468-33.746-24.394-44.055-39.705-82.743-15.311-38.688-13.522-51.319-47.478-75.431-33.955-24.113-88.444-10.28-117.87 29.916-29.426 40.196-27.673 75.629-27.673 75.629z" fill="#DD4D32"/><path opacity=".7" d="M53.612 179.42s.227 42.2 34.62 70.77c34.391 28.57 83.041 31.215 122.399 34.392 39.358 3.177 70.238-18.788 75.707-52.533 5.468-33.746-24.394-44.055-39.705-82.743-15.311-38.688-13.522-51.319-47.478-75.431-33.955-24.113-88.444-10.28-117.87 29.916-29.426 40.196-27.673 75.629-27.673 75.629z" fill="#fff"/><path d="M255.261 136.813a7.705 7.705 0 00-1.598-.544c-3.225-.772-6.994-1.377-6.994-1.377s5.654-5.714 3.5-8.203c-2.154-2.489-5.912 1.341-5.912 1.341s3.764-10.346-1.609-11.877c-5.373-1.532-11.285 9.962-11.285 9.962s-.269-4.41-2.955-3.835c-2.687.574-3.225 5.75-3.225 5.75s-4.033-2.298-5.104-.192c-1.071 2.106 1.34 6.318 1.34 6.318s-4.565-2.68-5.104-.191a10.359 10.359 0 00-.215 2.848h39.161z" stroke="#263238" stroke-width=".951" stroke-linecap="round" stroke-linejoin="round"/><path d="M292.489 136.813l-10.471-1.394a17.313 17.313 0 00-9.484-3.59l-1.196-.078s2.842-3.41 1.137-10.806c-1.706-7.395-11.369-1.136-11.369-1.136s7.091-6.738 5.954-12.996c-1.137-6.259-11.069-1.197-11.069-1.197s1.16-16.873-11.369-16.304c-12.529.568-14.814 20.283-14.814 20.283s-8.814-10.716-14.791 2.848a29.173 29.173 0 00-1.95 6.271l-.252-.252s-4.685-5.708-8.376-1.627c-3.692 4.081-3.261 10.172-3.261 10.172s-5.708-2.035-7.132.412c-1.424 2.448 1.831 5.296 1.831 5.296s-3.058-1.424-5.301.598c-1.407 1.274-2.884 2.627-3.8 3.464l105.713.036zM123.282 194.84a8.075 8.075 0 00-1.598-.551c-3.225-.765-6.994-1.37-6.994-1.37s5.654-5.714 3.5-8.203c-2.154-2.489-5.912 1.34-5.912 1.34s3.764-10.345-1.609-11.876c-5.373-1.532-11.285 9.962-11.285 9.962s-.269-4.41-2.955-3.836c-2.687.575-3.225 5.75-3.225 5.75s-4.033-2.297-5.104-.191c-1.071 2.106 1.34 6.318 1.34 6.318s-4.565-2.68-5.104-.191a10.324 10.324 0 00-.215 2.848h39.161z" stroke="#263238" stroke-width=".951" stroke-linecap="round" stroke-linejoin="round"/><path d="M160.509 194.839l-10.452-1.394a17.314 17.314 0 00-9.484-3.56l-1.197-.078s2.843-3.41 1.137-10.805c-1.705-7.396-11.368-1.137-11.368-1.137s7.09-6.737 5.953-12.996c-1.136-6.258-11.069-1.227-11.069-1.227s1.161-16.878-11.368-16.304c-12.529.574-14.814 20.283-14.814 20.283s-8.802-10.716-14.78 2.824a29.18 29.18 0 00-1.95 6.271l-.251-.251s-4.685-5.708-8.377-1.628c-3.691 4.081-3.26 10.172-3.26 10.172s-5.709-2.035-7.139.407c-1.43 2.441 1.855 5.373 1.855 5.373s-3.057-1.424-5.3.598c-1.407 1.274-2.885 2.627-3.8 3.464l105.664-.012z" stroke="#263238" stroke-width=".951" stroke-linecap="round" stroke-linejoin="round"/><path d="M289.288 260.702a20.491 20.491 0 00-13.163 4.787 14.54 14.54 0 00-20.23-1.28 17.18 17.18 0 00-26.093 4.667 6.895 6.895 0 00-6.814.159 6.907 6.907 0 00-3.31 6.739c-.429-.048-.86-.072-1.292-.072a11.184 11.184 0 00-7.264 2.669 9.474 9.474 0 00-6.18-2.286 8.853 8.853 0 00-.892.048v-93.578a11.808 11.808 0 011.681-2.394 5.56 5.56 0 00-3.697-9.722 5.567 5.567 0 00-5.201 3.586 5.569 5.569 0 001.503 6.136c.626.69 1.168 1.451 1.616 2.268v95.074a9.9 9.9 0 00-2.041 1.688 13.457 13.457 0 00-15.592-1.167 13.398 13.398 0 00-2.058-1.011v-86.501c.909-3.589 3.769-6.581 3.769-6.581a8.791 8.791 0 002.371-9.698 8.792 8.792 0 00-8.22-5.667 8.798 8.798 0 00-8.22 5.667 8.793 8.793 0 002.372 9.698v.03s2.991 3.147 3.841 6.893v85.243h-.808a13.396 13.396 0 00-8.61 3.118 9.48 9.48 0 00-10.859-2.31v-94.35a11.73 11.73 0 011.681-2.394 5.565 5.565 0 10-7.395 0c.626.69 1.168 1.451 1.615 2.268v94.715a11.184 11.184 0 00-12.996 1.418 3.38 3.38 0 00-3.314-4.05 3.35 3.35 0 00-.772.095 5.98 5.98 0 00-8.7-4.732 17.173 17.173 0 00-4.868-6.08 17.177 17.177 0 00-14.839-3.164 17.192 17.192 0 00-6.924 3.566 14.54 14.54 0 00-20.23 1.28 20.536 20.536 0 00-31.543 6.462 20.538 20.538 0 00-2.029 11.978h264.108c.112-.877.17-1.76.173-2.644a20.576 20.576 0 00-20.576-20.571z" fill="#C2C2C2"/><path d="M156.16 174.908c0-1.28-1.035-3.315-2.322-3.315-1.286 0-2.321 2.035-2.321 3.315 0 1.28 1.974 3.841 2.321 3.841.347 0 2.322-2.561 2.322-3.841zM204.361 174.908c0-1.28-1.035-3.315-2.321-3.315-1.287 0-2.322 2.035-2.322 3.315 0 1.28 1.975 3.841 2.322 3.841s2.321-2.561 2.321-3.841z" fill="#DD4D32"/><path d="M154.108 159.633l16.37-14.408v12.224l-15.281 7.18-1.089-4.996z" fill="#263238" stroke="#263238" stroke-width=".951" stroke-miterlimit="10"/><path d="M157.404 171.492h-7.108l-1.502-27.9a2.988 2.988 0 010-.598c.246-2.304 2.394-9.855 5.05-9.855 2.639 0 4.787 7.551 5.056 9.855.018.199.018.399 0 .598l-1.496 27.9z" fill="#fff" stroke="#263238" stroke-width=".951" stroke-miterlimit="10"/><path d="M149.788 138.949h8.137c-.921-2.8-2.393-5.816-4.069-5.816-1.675 0-3.147 3.016-4.068 5.816zM149.979 165.604l.317 5.888h7.108l.318-5.888h-7.743zM202.075 159.633l-16.388-14.408v12.224l15.282 7.18 1.106-4.996z" fill="#263238" stroke="#263238" stroke-width=".951" stroke-miterlimit="10"/><path d="M198.779 171.492h7.108l1.502-27.9c.02-.199.02-.399 0-.598-.246-2.304-2.394-9.855-5.05-9.855-2.639 0-4.787 7.551-5.056 9.855a3.318 3.318 0 000 .598l1.496 27.9z" fill="#fff" stroke="#263238" stroke-width=".951" stroke-miterlimit="10"/><path d="M206.204 165.604l-.317 5.888h-7.108l-.317-5.888h7.742zM198.252 138.949h8.138c-.928-2.8-2.394-5.816-4.069-5.816-1.675 0-3.135 3.016-4.069 5.816z" fill="#263238" stroke="#263238" stroke-width=".951" stroke-miterlimit="10"/><path d="M181.846 175.609a3.67 3.67 0 00-3.67-3.526 3.674 3.674 0 00-3.671 3.526c0 2.028 3.117 6.073 3.668 6.073.43 0 3.673-4.057 3.673-6.073z" fill="#DD4D32"/><path d="M187.483 161.668h-18.59l-3.937-60.384a8.232 8.232 0 010-1.585c.658-6.043 6.336-25.818 13.235-25.818 6.904 0 12.565 19.775 13.235 25.818a7.777 7.777 0 010 1.585l-3.943 60.384z" fill="#fff" stroke="#263238" stroke-width=".951" stroke-miterlimit="10"/><path d="M178.226 146.763a8.137 8.137 0 01-8.137-8.131v-33.896a8.139 8.139 0 018.137-8.131 8.137 8.137 0 018.132 8.131v33.896a8.137 8.137 0 01-8.132 8.131z" fill="#DD4D32" stroke="#263238" stroke-width=".951" stroke-miterlimit="10"/><path d="M184.724 170.338h-13.079l-2.752-9.059h18.614l-2.783 9.059z" fill="#263238" stroke="#263238" stroke-width=".951" stroke-miterlimit="10"/><path d="M180.297 111.232a5.685 5.685 0 10-4.206-10.563 5.685 5.685 0 004.206 10.563z" fill="#263238"/><path d="M183.813 107.535a5.684 5.684 0 10-11.226-1.79 5.684 5.684 0 0011.226 1.79z" fill="#DD4D32" stroke="#263238" stroke-width=".951" stroke-miterlimit="10"/><path d="M178.196 101.727a5.332 5.332 0 015.325 5.121v-.215a5.337 5.337 0 00-10.668 0v.215a5.325 5.325 0 015.343-5.121z" fill="#263238"/><path d="M182.383 107.321a4.242 4.242 0 10-8.374-1.364 4.242 4.242 0 008.374 1.364z" fill="#fff" stroke="#263238" stroke-width=".951" stroke-miterlimit="10"/><path d="M178.196 110.481a4.243 4.243 0 004.237-4.045v.197a4.243 4.243 0 11-8.485 0v-.197a4.241 4.241 0 004.248 4.045zM178.196 125.671a5.684 5.684 0 10-5.684-5.684 5.684 5.684 0 005.684 5.684z" fill="#263238"/><path d="M178.196 126.354a5.684 5.684 0 100-11.367 5.684 5.684 0 000 11.367z" fill="#DD4D32" stroke="#263238" stroke-width=".951" stroke-miterlimit="10"/><path d="M178.196 115.763a5.333 5.333 0 015.325 5.122v-.215a5.335 5.335 0 00-9.044-3.658 5.34 5.34 0 00-1.624 3.658v.215a5.327 5.327 0 015.343-5.122z" fill="#263238"/><path d="M178.196 124.912a4.243 4.243 0 100-8.487 4.243 4.243 0 000 8.487z" fill="#fff" stroke="#263238" stroke-width=".951" stroke-miterlimit="10"/><path d="M178.196 124.517a4.243 4.243 0 004.237-4.045v.198a4.243 4.243 0 01-8.485 0v-.198a4.24 4.24 0 004.248 4.045zM180.301 139.306a5.685 5.685 0 10-4.208-10.563 5.685 5.685 0 004.208 10.563z" fill="#263238"/><path d="M183.816 135.608a5.684 5.684 0 10-11.226-1.792 5.684 5.684 0 0011.226 1.792z" fill="#DD4D32" stroke="#263238" stroke-width=".951" stroke-miterlimit="10"/><path d="M178.196 129.8a5.328 5.328 0 015.325 5.122v-.216a5.337 5.337 0 00-10.668 0v.216a5.325 5.325 0 015.343-5.122z" fill="#263238"/><path d="M182.384 135.391a4.242 4.242 0 10-8.374-1.364 4.242 4.242 0 008.374 1.364z" fill="#fff" stroke="#263238" stroke-width=".951" stroke-miterlimit="10"/><path d="M178.196 138.554a4.243 4.243 0 004.237-4.045v.198a4.243 4.243 0 01-8.485 0v-.198a4.24 4.24 0 004.248 4.045z" fill="#263238"/><path d="M168.779 85.686h18.835c-2.393-6.325-5.714-12.2-9.418-12.2-3.697.03-7.036 5.875-9.417 12.2z" fill="#263238" stroke="#263238" stroke-width=".951" stroke-miterlimit="10"/><path d="M253.149 191.764H116.264v88.57h136.885v-88.57z" fill="#263238" stroke="#263238" stroke-width=".951" stroke-linecap="round" stroke-linejoin="round"/><path d="M253.149 252.889H116.264v27.445h136.885v-27.445z" fill="#6B6B6B" stroke="#263238" stroke-width=".951" stroke-linecap="round" stroke-linejoin="round"/><path d="M166.613 229.309h-47.029v36.031h47.029v-36.031z" fill="#DD4D32" stroke="#263238" stroke-width=".951" stroke-linecap="round" stroke-linejoin="round"/><path d="M164.71 231.475h-43.235v31.693h43.235v-31.693z" fill="#fff" stroke="#263238" stroke-width=".951" stroke-linecap="round" stroke-linejoin="round"/><path d="M133.429 258.849l-2.136 1.89M163.124 232.54l-26.625 23.586M157.058 241.419l-15.228 13.492" stroke="#263238" stroke-width=".951" stroke-linecap="round" stroke-linejoin="round"/><path d="M250.133 229.309h-47.028v36.031h47.028v-36.031z" fill="#DD4D32" stroke="#263238" stroke-width=".951" stroke-linecap="round" stroke-linejoin="round"/><path d="M248.237 231.475h-43.236v31.693h43.236v-31.693z" fill="#fff" stroke="#263238" stroke-width=".951" stroke-linecap="round" stroke-linejoin="round"/><path d="M216.956 258.849l-2.136 1.89M246.645 232.54l-26.62 23.586M240.584 241.419l-15.228 13.492" stroke="#263238" stroke-width=".951" stroke-linecap="round" stroke-linejoin="round"/><path d="M205.498 274.92l-2.393-3.74 3.739 1.346-.448-3.59 1.944 2.992.15-5.385 1.047 3.59 2.393-6.731.299 7.03 2.842-1.645-1.645 3.141 2.094-1.346-.15 2.244 2.693-1.347-1.795 3.291-10.77.15zM221.204 274.92l-2.393-3.74 3.739 1.346-.448-3.59 1.944 2.992.15-5.385 1.047 3.59 2.393-6.731.299 7.03 2.842-1.645-1.645 3.141 2.094-1.346-.149 2.244 2.692-1.347-1.795 3.291-10.77.15zM236.761 274.92l-2.394-3.74 3.74 1.346-.449-3.59 1.945 2.992.149-5.385 1.047 3.59 2.394-6.731.299 7.03 2.842-1.645-1.645 3.141 2.094-1.346-.15 2.244 2.693-1.347-1.795 3.291-10.77.15zM120.984 274.92l-2.393-3.74 3.739 1.346-.448-3.59 1.944 2.992.15-5.385 1.047 3.59 2.393-6.731.299 7.03 2.842-1.645-1.645 3.141 2.094-1.346-.149 2.244 2.692-1.347-1.795 3.291-10.77.15zM136.69 274.92l-2.393-3.74 3.739 1.346-.448-3.59 1.944 2.992.15-5.385 1.047 3.59 2.393-6.731.299 7.03 2.842-1.645-1.645 3.141 2.094-1.346-.149 2.244 2.692-1.347-1.795 3.291-10.77.15zM152.247 274.92l-2.393-3.74 3.739 1.346-.449-3.59 1.945 2.992.149-5.385 1.048 3.59 2.393-6.731.299 7.03 2.842-1.645-1.645 3.141 2.094-1.346-.15 2.244 2.693-1.347-1.795 3.291-10.77.15z" fill="#DD4D32"/><path d="M253.149 273.986H116.264v6.342h136.885v-6.342z" fill="#6B6B6B" stroke="#263238" stroke-width=".951" stroke-linecap="round" stroke-linejoin="round"/><path d="M199.359 226.234h-29.677v54.095h29.677v-54.095z" fill="#DD4D32" stroke="#263238" stroke-width=".951" stroke-linecap="round" stroke-linejoin="round"/><path d="M197.008 257.041h-25.447v-28.175h25.447v28.175zm0 2.992h-25.447v17.28h25.447v-17.28z" fill="#fff" stroke="#263238" stroke-width=".951" stroke-linecap="round" stroke-linejoin="round"/><path d="M198.515 250.418h-.927v9.879h.927v-9.879z" fill="#263238" stroke="#263238" stroke-width=".951" stroke-linecap="round" stroke-linejoin="round"/><path d="M175.492 251.315l-1.472 1.305M195.961 233.187l-18.357 16.256M191.778 239.301l-10.494 9.304M180.213 274.477l-1.131 1.005M195.961 260.523l-14.121 12.511M192.742 265.232l-8.072 7.156" stroke="#263238" stroke-width=".951" stroke-linecap="round" stroke-linejoin="round"/><path opacity=".3" d="M253.149 212.615H116.557v18.381h136.592v-18.381z" fill="#000"/><path d="M255.189 202.001h-140.87v26.219h140.87v-26.219z" fill="#fff" stroke="#263238" stroke-width=".951" stroke-linecap="round" stroke-linejoin="round"/><path d="M128.332 202.001h-6.486v26.219h6.486v-26.219zM142.075 202.001h-6.486v26.219h6.486v-26.219zM155.825 202.001h-6.486v26.219h6.486v-26.219zM168.904 202.001h-6.486v26.219h6.486v-26.219zM181.984 202.001h-6.486v26.219h6.486v-26.219zM195.057 202.001h-6.486v26.219h6.486v-26.219zM208.137 202.001h-6.486v26.219h6.486v-26.219zM221.216 202.001h-6.486v26.219h6.486v-26.219zM234.296 202.001h-6.486v26.219h6.486v-26.219zM247.369 202.001h-6.486v26.219h6.486v-26.219z" fill="#DD4D32" stroke="#263238" stroke-width=".951" stroke-linecap="round" stroke-linejoin="round"/><path d="M271.027 217.557s-2.639-4.787-9.574-7.671c-6.934-2.884-21.318-6.952-21.103-10.542.216-3.59 11.5.718 11.5.718s-18.692-9.107-21.091-14.863c-2.399-5.756 17.262.479 17.262.479s-8.873-16.753-6.474-20.607c2.399-3.853 11.027 3.351 11.027 3.351s-3.117-20.612 11.967-22.766 15.341 13.66 15.341 13.66 5.271-9.346 11.266-7.18c5.996 2.166-.484 14.138-.484 14.138s8.873-6.713 11.266 3.357c2.394 10.07-10.542 21.33-10.542 21.33s8.867-2.878 9.346 2.154c.478 5.032-5.756 8.377-5.756 8.377s5.277.957 3.356 3.59c-1.92 2.632-25.632 8.879-27.307 12.475z" fill="#DD4D32"/><path d="M285.279 193.127s-8.855 2.1-13.415 9.292l-.167-9.92c.7-1.197 5.666-9.083 13.582-11.5 0 0-9.083 2.471-13.612 9.812l-.419-24.531-.125 29.85c-4.458-6.922-12.709-8.933-12.709-8.933 7.419 2.352 11.871 9.496 12.703 10.926l-.042 9.806c-4.476-6.833-12.661-8.843-12.661-8.843 7.282 2.31 11.703 9.226 12.649 10.836l-.287 68.365h2.393l-1.053-62.071c.825-1.382 5.451-8.586 13.163-10.949 0 0-8.598 2.04-13.211 8.975l-.168-9.885c.88-1.466 5.673-8.879 13.379-11.23z" fill="#263238"/><path d="M280.821 276.48h-18.889v4.338h18.889v-4.338z" fill="#fff" stroke="#263238" stroke-width=".951" stroke-linecap="round" stroke-linejoin="round"/><path d="M285.213 280.28H86.652v3.638h198.561v-3.638z" fill="#fff" stroke="#263238" stroke-width=".951" stroke-linecap="round" stroke-linejoin="round"/><path d="M40.497 283.918h273.83" stroke="#263238" stroke-width=".951" stroke-miterlimit="10"/><path d="M94.849 321.482c21.208 0 38.401-3.767 38.401-8.413 0-4.646-17.193-8.412-38.401-8.412-21.208 0-38.4 3.766-38.4 8.412 0 4.646 17.192 8.413 38.4 8.413z" fill="#DD4D32"/><path opacity=".5" d="M94.849 321.482c21.208 0 38.401-3.767 38.401-8.413 0-4.646-17.193-8.412-38.401-8.412-21.208 0-38.4 3.766-38.4 8.412 0 4.646 17.192 8.413 38.4 8.413z" fill="#fff"/><path d="M88.261 227.065s-4.074 12.523-4.984 18.86c-.909 6.336-2.716 23.993-2.716 23.993a29.42 29.42 0 00-6.109 13.803c-1.13 8.078-.754 18.955-.754 18.955s-.903 1.358-.903 2.04c0 .683.15 2.19.15 2.19a56.672 56.672 0 00-4.757 4.147c-1.658 1.735-1.359 4.756-1.359 5.582 0 .826.982 2.04 1.514 2.04.533 0 4.147-.682 5.983-2.189 1.837-1.508 1.885-4.602 2.34-5.984.455-1.382 3.518-5.433 3.518-5.433a2.013 2.013 0 001.795-1.795c.15-1.657.527-4.601.676-5.205.15-.604 6.492-10.866 7.922-17.052 1.43-6.187 5.888-15.461 7.473-19.536 1.586-4.074 4.978-12.373 4.978-12.373l.682-.228s-1.286 17.95-1.663 23.616c-.377 5.667-.455 7.091-.455 14.558s2.944 19.745 2.944 19.745v3.847c0 .227.598.455 1.735.526 1.137.072 4.464.09 5.295.599.832.508 4.225.903 7.695.754 3.47-.15 5.283-.754 4.906-1.436-.377-.682-6.336-2.992-7.317-3.62-.982-.629-3.261-2.13-3.261-2.13s.155-1.957-.377-2.866c-.533-.91-.754-.826-.754-1.795 0-.97 2.19-13.81 2.794-19.919.604-6.109 3.847-14.79 4.075-21.276.227-6.486-.377-11.47-.91-18.865a62.112 62.112 0 00-2.333-13.05l-27.823-.503z" fill="#263238" stroke="#263238" stroke-width=".951" stroke-linecap="round" stroke-linejoin="round"/><path d="M112.781 227.526l-10.489-.197v2.525h10.489v-2.328zM114.061 229.853h2.657c-.353-1.436-.598-2.261-.598-2.261l-2.041-.042-.018 2.303zM93.311 229.854h6.414v-2.573l-6.414-.12v2.693zM91.953 227.131l-3.692-.066s-.359 1.089-.88 2.789h4.572v-2.723z" fill="#595959" stroke="#263238" stroke-width=".951" stroke-linecap="round" stroke-linejoin="round"/><path d="M110.065 227.442h-4.225v2.34h4.225v-2.34zM126.058 237.327s1.358 5.803.981 9.352c-.144 1.352-1.963 5.283-2.34 5.51a1.848 1.848 0 01-1.13 0c.276-.739.502-1.497.676-2.268.077-.598.155-2.261.155-2.261a21.77 21.77 0 01-1.514 2.794 7.149 7.149 0 01-1.735 1.28.894.894 0 01-.676-.377c-.149-.227.599-.753.981-1.585.383-.832.982-2.393.982-2.393a16.54 16.54 0 01-1.795 1.956 6.572 6.572 0 01-1.963.981c-.227 0-.676-.825-.448-.903.227-.078 2.112-1.131 2.333-1.508.207-.316.435-.618.682-.903-.886.357-1.793.659-2.716.903-.377 0-.527-.598-.527-.598l2.489-1.281.599-1.513a6.908 6.908 0 010-3.543c.526-1.735.753-2.943.753-2.943l4.213-.7z" fill="#fff" stroke="#263238" stroke-width=".951" stroke-linecap="round" stroke-linejoin="round"/><path d="M123.419 239.815s.072 2.489.526 2.992c.455.503 1.281 1.131 1.281 1.657 0 .527-.826 3.549-.598 3.776a.603.603 0 00.601.223.598.598 0 00.458-.45c.478-1.653.806-3.345.981-5.056" fill="#fff"/><path d="M123.419 239.815s.072 2.489.526 2.992c.455.503 1.281 1.131 1.281 1.657 0 .527-.826 3.549-.598 3.776a.603.603 0 00.601.223.598.598 0 00.458-.45c.478-1.653.806-3.345.981-5.056" stroke="#263238" stroke-width=".951" stroke-linecap="round" stroke-linejoin="round"/><path d="M119.644 195.976s2.04 12.302 2.261 15.999c.222 3.698.228 6.486.228 6.486l3.925 18.865-4.225.677s-4.978-10.172-5.983-11.369c-1.005-1.196-1.514-3.47-1.131-6.713s.072-20.977.826-23.089a2.422 2.422 0 014.099-.856z" fill="#fff" stroke="#263238" stroke-width=".951" stroke-linecap="round" stroke-linejoin="round"/><path d="M121.307 236.794l4.224-1.131" stroke="#263238" stroke-width=".951" stroke-linecap="round" stroke-linejoin="round"/><path d="M95.501 183.609s-16.526 6.857-17.28 7.18c-.754.323-1.28 0-1.657 1.508-.377 1.507-6.641 28.408-6.354 30.538.287 2.13 4.918 20.607 4.918 20.607l5.212-.904.598-22.258 2.794-7.096s3.698 9.28 3.62 10.04c-.078.76-.981 2.489-.449 3.47a3.8 3.8 0 001.131 1.359h28.72s1.795-.599 1.884-1.436a23.936 23.936 0 00-.448-3.62s2.561-10.112 2.561-17.13c0-7.019-.826-12.822-1.963-14.486-1.137-1.663-5.205-3.321-8.897-4.601-3.692-1.28-6.791-2.489-10.112-2.788-3.32-.299-4.278-.383-4.278-.383z" fill="#fff" stroke="#263238" stroke-width=".951" stroke-linecap="round" stroke-linejoin="round"/><path d="M108.024 189.263s2.561 11.5 2.561 17.95c0 6.45.173 14.168.52 15.395.347 1.226.88 3.32-.347 4.72M83.732 213.178l4.601-11.165M86.071 208.051l4.302-5.433M74.601 241.096l5.738-.604" stroke="#263238" stroke-width=".951" stroke-linecap="round" stroke-linejoin="round"/><path d="M111.195 185.721l1.735 3.691-3.925-2.184 2.19-1.507z" fill="#fff" stroke="#263238" stroke-width=".951" stroke-linecap="round" stroke-linejoin="round"/><path d="M108.024 189.263l3.171-3.542-3.093-1.514-.078 5.056z" fill="#fff" stroke="#263238" stroke-width=".951" stroke-linecap="round" stroke-linejoin="round"/><path d="M108.557 160.597s2.034 2.262 2.034 2.938a13.643 13.643 0 01-.15 1.664s3.393 1.657 2.992 2.339c-.401.682-.903 1.957-.903 1.957s2.788 6.115 2.393 6.719c-.395.604-4.224 4.296-4.9 6.109-.677 1.813-2.041 6.94-2.041 6.94l-12.977-7.18s1.585-2.56 1.663-4.296c.078-1.735.3-3.093 0-4.152-.3-1.059-1.885-3.775-2.04-6.414-.156-2.639 2.716-5.732 6.491-7.545 3.776-1.813 7.438.921 7.438.921z" fill="#fff" stroke="#263238" stroke-width=".951" stroke-linecap="round" stroke-linejoin="round"/><path d="M106.744 171.229a3.09 3.09 0 003.62.76" stroke="#263238" stroke-width=".951" stroke-linecap="round" stroke-linejoin="round"/><path d="M108.425 166.431c.203.437.132.897-.15 1.023-.281.126-.676-.114-.879-.55-.204-.437-.126-.898.155-1.023.282-.126.677.113.874.55z" fill="#263238"/><path d="M105.308 166.102a2.648 2.648 0 012.794-1.658" stroke="#263238" stroke-width="1.902" stroke-linecap="round" stroke-linejoin="round"/><path d="M99.576 173.12s1.962 0 1.962-1.059-1.508-3.165-1.131-4.224c.377-1.059 2.184-1.795 1.508-2.944-.676-1.149-2.04-1.131-1.28-1.885.76-.753 6.336.228 8.221-1.795 1.885-2.022 2.638-5.127 1.28-5.726-1.358-.598-3.093.904-3.093.904s-.904-2.112-3.62-1.358-6.486 3.697-8.598 6.641c-2.112 2.944-2.872 3.997-2.04 5.983.831 1.987 3.548 5.661 4.6 6.265 1.054.604 2.19-.802 2.19-.802z" fill="#263238" stroke="#263238" stroke-width=".951" stroke-linecap="round" stroke-linejoin="round"/><path d="M100.784 174.101s-2.112-3.022-3.925-2.645c-1.813.377-1.358 3.022-.15 4.225 1.21 1.202 3.321.377 3.77.077 0 0 1.663 3.997 3.321 4.153 1.657.155 6.336-1.891 6.336-1.891" fill="#fff"/><path d="M100.784 174.101s-2.112-3.022-3.925-2.645c-1.813.377-1.358 3.022-.15 4.225 1.21 1.202 3.321.377 3.77.077 0 0 1.663 3.997 3.321 4.153 1.657.155 6.336-1.891 6.336-1.891" stroke="#263238" stroke-width=".951" stroke-linecap="round" stroke-linejoin="round"/><path d="M105.685 185.188l2.339 4.075-4.523-2.262 2.184-1.813z" fill="#fff" stroke="#263238" stroke-width=".951" stroke-linecap="round" stroke-linejoin="round"/><path d="M95.274 180.21l10.411 4.978-2.412 5.888-9.656-7.246 1.657-3.62z" fill="#fff" stroke="#263238" stroke-width=".951" stroke-linecap="round" stroke-linejoin="round"/><path d="M109.61 230.757s.981 6.343-.078 9.813M106.217 232.193s.981 6.264.598 10.638M109.7 241.647c-.228.227-1.963 1.059-2.394 2.112a32.559 32.559 0 01-1.585 2.944M97.763 230.38l-2.035 6.187M98.594 230.458l-.454 9.734M114.965 230.38l1.286 5.588M114.665 230.536s-.526 5.277-.526 5.505" stroke="#5C656A" stroke-width=".951" stroke-linecap="round" stroke-linejoin="round"/><path d="M82.643 252.028H71.82a.838.838 0 00-.837.837v4.416a.837.837 0 00.837.838h1.269a.837.837 0 01-.838-.838v-2.884a.837.837 0 01.838-.837h8.287a.838.838 0 01.837.837v2.884a.837.837 0 01-.837.838h1.268a.837.837 0 00.838-.838v-4.416a.837.837 0 00-.838-.837z" fill="#263238" stroke="#263238" stroke-width=".951" stroke-linecap="round" stroke-linejoin="round"/><path d="M75.128 243.442s-1.585 6.187-1.286 7.24c.299 1.053 1.137 1.663 1.196 1.89a.79.79 0 01-.305.904l-.377.227s-.299 0-.072.449c.092.245.26.455.48.598.496.252.801-.257 1.25-.323.448-.066.73.425 1.154.395.425-.03.653-.455 1.066-.419.412.036.682.784 1.28.521.257-.12.443-.377.7-.509.383-.197.927-.143 1.268-.437.275-.286.443-.657.48-1.053.137-.771-1.64-10.404-1.64-10.404l-5.194.921z" fill="#fff" stroke="#263238" stroke-width=".951" stroke-linecap="round" stroke-linejoin="round"/><path d="M92.558 256.198H60.463a2.388 2.388 0 00-2.387 2.388v20.391a2.387 2.387 0 002.387 2.387h32.095a2.387 2.387 0 002.387-2.387v-20.391a2.388 2.388 0 00-2.387-2.388z" fill="#DD4D32" stroke="#263238" stroke-width=".951" stroke-linecap="round" stroke-linejoin="round"/><path d="M58.16 258.519l17.435 12.314a2.78 2.78 0 003.237 0l16.017-11.656" stroke="#263238" stroke-width=".951" stroke-linecap="round" stroke-linejoin="round"/><path d="M78.676 269.176h-2.968v4.17h2.968v-4.17z" fill="#fff" stroke="#263238" stroke-width=".951" stroke-linecap="round" stroke-linejoin="round"/></svg>