<svg width="250" height="250" fill="none" xmlns="http://www.w3.org/2000/svg"><path d="M144.2 196s38.93 1.82 63.555-42.175-4.35-84.465-49.11-93.21c-44.76-8.745-67.06-41.58-106.955-16.445C11.795 69.305 33.965 203.165 144.2 196z" fill="#DD4D32"/><path opacity=".4" d="M144.2 196s38.93 1.82 63.555-42.175-4.35-84.465-49.11-93.21c-44.76-8.745-67.06-41.58-106.955-16.445C11.795 69.305 33.965 203.165 144.2 196z" fill="#fff"/><path d="M125.005 215.61c51.804 0 93.8-2.604 93.8-5.815 0-3.212-41.996-5.815-93.8-5.815-51.804 0-93.8 2.603-93.8 5.815 0 3.211 41.996 5.815 93.8 5.815z" fill="#DD4D32"/><path opacity=".7" d="M125.005 215.61c51.804 0 93.8-2.604 93.8-5.815 0-3.212-41.996-5.815-93.8-5.815-51.804 0-93.8 2.603-93.8 5.815 0 3.211 41.996 5.815 93.8 5.815z" fill="#fff"/><path d="M145.54 56.62l-.27 2.29 1.24.44c.018.785.127 1.565.325 2.325l-1.075.78.905 2.125 1.305-.245c.407.67.89 1.291 1.44 1.85l-.545 1.22 1.85 1.38 1-.85a9.872 9.872 0 002.175.88l.14 1.325 2.285.275.445-1.245a10.149 10.149 0 002.325-.325l.785 1.07L162 69l-.235-1.3c.669-.407 1.288-.89 1.845-1.44l1.22.545 1.38-1.85-.855-1c.38-.685.675-1.414.88-2.17l1.325-.14.275-2.29-1.245-.445a9.88 9.88 0 00-.325-2.32l1.08-.785-.91-2.125-1.3.24a10.167 10.167 0 00-1.445-1.845l.54-1.215-1.865-1.36-1 .855a10.258 10.258 0 00-2.16-.88l-.14-1.325-2.29-.27-.445 1.24c-.784.02-1.562.13-2.32.33l-.785-1.075-2.125.905.24 1.3c-.666.4-1.283.877-1.84 1.42l-1.215-.54-1.385 1.85.855 1a9.922 9.922 0 00-.88 2.175l-1.335.135zm5.315 1.835a5.732 5.732 0 017.468-4.77 5.733 5.733 0 013.935 5.008 5.73 5.73 0 01-6.403 6.127v0a5.73 5.73 0 01-5-6.365z" stroke="#263238" stroke-width="1.571" stroke-linejoin="round"/><path d="M85.805 112.97l-.245 2.075 1.125.4c.016.711.115 1.417.295 2.105l-1 .71.82 1.925 1.18-.225c.37.606.807 1.168 1.305 1.675l-.5 1.105L90.5 124l.905-.775a8.864 8.864 0 001.97.8l.125 1.2 2.075.25.4-1.13a9.016 9.016 0 002.105-.295l.71.975 1.92-.825-.21-1.2a9.204 9.204 0 001.675-1.305l1.105.5 1.25-1.67-.775-.915a8.95 8.95 0 00.8-1.965l1.2-.13.245-2.075-1.125-.4a9.125 9.125 0 00-.295-2.105l1-.71-.825-1.925-1.175.215a9.198 9.198 0 00-1.315-1.665l.5-1.105-1.715-1.245-.91.775a8.89 8.89 0 00-1.96-.795l-.125-1.2-2.075-.25-.4 1.13a9.016 9.016 0 00-2.105.295l-.71-.955-1.925.82.215 1.18a9.207 9.207 0 00-1.675 1.305l-1.105-.5-1.25 1.675.775.91a9.083 9.083 0 00-.8 1.97l-1.195.11zm4.815 1.66a5.192 5.192 0 016.762-4.318 5.186 5.186 0 013.566 4.531 5.19 5.19 0 11-10.328-.213z" fill="#263238"/><path d="M191.54 163.875v-4.705l-2.625-.595a20.267 20.267 0 00-1.22-4.63l2-1.845-2.36-4.1-2.58.815a20.616 20.616 0 00-3.37-3.395l.815-2.605-4.085-2.355-1.825 1.965a20.272 20.272 0 00-4.62-1.255l-.6-2.65h-4.705l-.6 2.63a20.1 20.1 0 00-4.63 1.22l-1.845-2-4.075 2.35.795 2.58a20.547 20.547 0 00-3.395 3.365l-2.6-.805-2.35 4.07 1.97 1.835a20.283 20.283 0 00-1.255 4.615l-2.65.605v4.705l2.625.6a20.553 20.553 0 001.22 4.625l-2 1.85 2.355 4.085 2.575-.795a20.393 20.393 0 003.38 3.38l-.805 2.605 4.09 2.355 1.825-2c1.476.6 3.019 1.023 4.595 1.26l.6 2.65h4.71l.595-2.625a20.59 20.59 0 004.635-1.23l1.845 2 4.085-2.355-.795-2.575a20.393 20.393 0 003.395-3.365l2.6.805 2.355-4.09-1.975-1.83a20.505 20.505 0 001.26-4.62l2.64-.545zm-8.135-2.43a14.77 14.77 0 11-29.542 0 14.77 14.77 0 0129.542 0z" fill="#fff"/><path d="M109.79 47.075H97.67v2.795h12.12v-2.795zM105.635 51.115H97.67v2.795h7.965v-2.795zM102.255 55.155H97.67v2.795h4.585v-2.795z" fill="#DD4D32"/><path opacity=".2" d="M109.79 47.075H97.67v2.795h12.12v-2.795zM105.635 51.115H97.67v2.795h7.965v-2.795zM102.255 55.155H97.67v2.795h4.585v-2.795z" fill="#000"/><path d="M80.735 78.035h-4.11v8.42h4.11v-8.42zM86.67 80.93h-4.11v5.53h4.11v-5.53zM92.61 83.275H88.5v3.185h4.11v-3.185z" fill="#DD4D32"/><path opacity=".2" d="M80.735 78.035h-4.11v8.42h4.11v-8.42zM86.67 80.93h-4.11v5.53h4.11v-5.53zM92.61 83.275H88.5v3.185h4.11v-3.185z" fill="#000"/><path d="M125.47 92.83H75.705a5.195 5.195 0 01-5.205-5.195V46.55a5.205 5.205 0 015.195-5.195h49.765a5.197 5.197 0 014.807 3.205c.262.631.397 1.307.398 1.99v41.085a5.192 5.192 0 01-5.195 5.195zm-49.765-51a4.75 4.75 0 00-4.74 4.74v41.085a4.75 4.75 0 004.74 4.74h49.765a4.752 4.752 0 004.74-4.74V46.55a4.753 4.753 0 00-4.74-4.74l-49.765.02z" fill="#263238"/><path d="M124.83 78.265h-17.745v.455h17.745v-.455zM124.83 80.17h-17.745v.455h17.745v-.455zM124.83 82.07h-17.745v.455h17.745v-.455zM124.83 83.97h-17.745v.455h17.745v-.455zM124.83 85.87h-17.745v.455h17.745v-.455zM93.825 47.265H76.08v.455h17.745v-.455zM93.825 49.165H76.08v.455h17.745v-.455zM93.825 51.065H76.08v.455h17.745v-.455zM93.825 52.965H76.08v.455h17.745v-.455zM93.825 54.865H76.08v.455h17.745v-.455zM121.325 62.615l3.18 1.67-.365-8.97-7.585 4.8 3.18 1.665-2.395 4.555c-.422 0-.832.14-1.165.4l-4.225-1.955v-.025a1.94 1.94 0 00-3.875-.19 1.205 1.205 0 000 .19c.003.277.062.551.175.805l-5.5 6a1.85 1.85 0 00-.545-.085c-.096 0-.191.01-.285.03L94 61.45a1.936 1.936 0 00-3.54-1.555c-.11.242-.166.504-.165.77.006.199.04.395.1.585L81.37 70.5a1.936 1.936 0 101.155 2.5 2 2 0 00.115-.665c0-.159-.021-.317-.065-.47L91.7 62.5a1.762 1.762 0 00.91.055l7.875 10a1.958 1.958 0 103.675.845 2.006 2.006 0 00-.1-.595l5.63-6.13a1.933 1.933 0 001.405-.3l4.3 2a1.939 1.939 0 002.767 1.688 1.928 1.928 0 00.996-1.117c.084-.243.119-.5.102-.756a1.913 1.913 0 00-.345-1l2.41-4.575z" fill="#263238"/><path d="M125.585 98.135a2.954 2.954 0 00-2.95 2.955v25.605a2.951 2.951 0 002.95 2.95h31a2.956 2.956 0 002.955-2.95v-25.62a2.953 2.953 0 00-2.955-2.95l-31 .01z" stroke="#263238" stroke-linejoin="round"/><path d="M127.435 101.625h-2.355v.315h2.355v-.315zM127.435 104.195h-2.355v.315h2.355v-.315zM127.435 106.765h-2.355v.315h2.355v-.315zM127.435 109.34h-2.355v.315h2.355v-.315z" fill="#263238"/><path d="M127.345 104.195h-2.355v.315h2.355v-.315zM127.435 111.91h-2.355v.315h2.355v-.315z" fill="#263238"/><path d="M142.88 125.82a11.292 11.292 0 0011.352-13.277 11.292 11.292 0 00-8.703-9.049 11.296 11.296 0 10-2.649 22.326zm.395-19.27a7.999 7.999 0 011.239 15.875 8.001 8.001 0 11-1.239-15.875z" fill="#DD4D32"/><path opacity=".2" d="M142.88 125.82a11.292 11.292 0 0011.352-13.277 11.292 11.292 0 00-8.703-9.049 11.296 11.296 0 10-2.649 22.326zm.395-19.27a7.999 7.999 0 011.239 15.875 8.001 8.001 0 11-1.239-15.875z" fill="#000"/><path d="M135 122.61a11.503 11.503 0 0016.265.07.242.242 0 000-.32L148.92 120a.23.23 0 00-.16-.07.279.279 0 00-.165.065 7.69 7.69 0 01-5.64 2.255h-.555a7.728 7.728 0 01-4.605-1.855c-.115-.105-.235-.21-.345-.32a7.896 7.896 0 01-.875-10.135.199.199 0 00.025-.045c.05-.07.105-.13.165-.2a7.738 7.738 0 016.5-2.93.229.229 0 00.211-.134.238.238 0 00.019-.086l.065-3.315a.234.234 0 00-.062-.163.227.227 0 00-.158-.072 11.495 11.495 0 00-10.776 6.998A11.5 11.5 0 00135 122.61z" fill="#263238"/><path d="M143.345 103a11.757 11.757 0 0111.743 11.761 11.753 11.753 0 01-11.755 11.749 11.755 11.755 0 01-.013-23.51h.025zm-.46 22.585a11.07 11.07 0 10-7.758-3.399 11.077 11.077 0 007.758 3.404v-.005zm.395-19.27a8.21 8.21 0 11-.334 16.416 8.21 8.21 0 01.334-16.416zm-.325 15.955a7.754 7.754 0 10-7.595-7.91 7.755 7.755 0 007.595 7.905v.005z" fill="#263238"/><path d="M84.835 139.065v30.33" stroke="#263238" stroke-width=".879" stroke-linecap="round" stroke-linejoin="round"/><path d="M89.71 150.51h-2.575v17.365h2.575V150.51z" fill="#263238"/><path d="M93.39 157.595h-2.575v10.275h2.575v-10.275z" fill="#DD4D32"/><path d="M97.715 144.895H95.14v22.98h2.575v-22.98z" fill="#fff" stroke="#263238" stroke-width=".879" stroke-linejoin="round"/><path d="M104.895 141.58h-2.575v26.29h2.575v-26.29z" fill="#263238"/><path d="M108.58 161.37h-2.575v6.505h2.575v-6.505z" fill="#DD4D32"/><path d="M112.905 152.35h-2.575v15.525h2.575V152.35z" fill="#fff" stroke="#263238" stroke-width=".879" stroke-linejoin="round"/><path d="M123.395 154.725h-2.575v13.145h2.575v-13.145z" fill="#263238"/><path d="M127.08 144.525h-2.575v23.345h2.575v-23.345z" fill="#DD4D32"/><path d="M131.405 149.68h-2.575v18.19h2.575v-18.19z" fill="#fff" stroke="#263238" stroke-width=".879" stroke-linejoin="round"/><path d="M82.07 163.855h1.44M82.07 160.11h1.44M82.07 156.37h1.44M82.07 152.625h1.44M82.07 148.88h1.44M82.07 145.135h1.44M82.07 141.39h1.44M83.13 167.875h50.08" stroke="#263238" stroke-width=".879" stroke-linecap="round" stroke-linejoin="round"/><path opacity=".3" d="M93.39 157.595h-2.575v10.275h2.575v-10.275zM108.58 161.37h-2.575v6.505h2.575v-6.505zM127.08 144.525h-2.575v23.345h2.575v-23.345z" fill="#000"/><path d="M80.025 134.855a3.26 3.26 0 00-3.255 3.255v29.755a3.266 3.266 0 003.255 3.26h55.225a3.27 3.27 0 003.26-3.26V138.1a3.265 3.265 0 00-3.26-3.26l-55.225.015z" stroke="#263238" stroke-linejoin="round"/><path d="M36.325 201.37s1.155 7.71-1.64 8.5-4.735-.25-5.085-1.405c-.35-1.155 2.125-9.405 2.125-9.405l4.6 2.31zM84.94 203.075l12.15 2.88s.92.5.82 1.325c-.1.825-5.645 2.94-7.2 3.205-1.555.265-10.53 1.435-11.805.34-1.275-1.095 1.42-9.825 1.42-9.825l4.615 2.075zM62.94 62.46s1.71 2.58 1.735 3.885c.025 1.305-.135 2.795.665 3.565s1.415 1.61 1.085 2c-.33.39-.965 1.15-.965 1.15s.825 4.395-.245 5.19c-1.07.795-4.285 0-4.285 0v2.84s-4.57-1.5-7.725-1.22l-.56-6.085S59.5 60.605 62.94 62.46zM91.05 80.44s-.41-3.12 1.11-5c0 0-1.82-.31-1.6-.97.22-.66 3 .205 3 .205l-.75-1.5s-2.625-.87-2.3-1.685c.325-.815 4.175 1.19 4.175 1.19s-2.285-1.91-1.965-2.705c.32-.795 2.645-.78 3.885 3.34l.63-.785s.225-4.69.87-4.945c0 0 1 .55 1 3.245 0 0 1 1.205.365 2.225s-2.13 3.315-3.4 4.175c-1.27.86-1.265 4.215-1.265 4.215L91.05 80.44zM50.81 54.795l.575-.77s6.435-2.87 6.275-3.765c-.16-.895-3.805.34-4.5-.135 0 0 .665-8.47 0-8.745-.665-.275-1.405 3.975-1.405 3.975s-.935-4.36-1.655-4.235-.42 4.5-.42 4.5-1.375-2.805-1.91-2.545c-.535.26.265 3.68.265 3.68s-1-1.175-1.4-.82A13.255 13.255 0 0048.06 51l-1.39 2.35 4.14 1.445z" fill="#fff"/><path d="M90.355 80.46l4.435.62s-3.245 27.5-4.2 30.895c-.955 3.395-1.815 5.835-5.075 6-3.26.165-14.875-9.6-14.875-9.6l-.54 13.5.755 5.6s-14.205 7.465-28.65.97l.325-6.57-5.205-30.05-4.095-14.27L46.445 52.5l4.79 2.5-8.45 22.805 2.365 7.615 2.645-1.06 2.925-3.73s4.96-2.575 11.235 1l1 3.13s7.36.555 19.785 17.78l7.615-22.08z" fill="#DD4D32"/><path opacity=".2" d="M58.65 80.46l.56 3.85S63.34 87.05 65 88c0 0 4.06 25.64 1.055 30.685l-3.165 4.955s3.235 0 4.725-2.265c0 0-1.855 6.19-6.665 7.855 0 0 7.385-.77 9.925-1.75l-.755-5.6 1.215-31.225s1.145-2.09-8.375-5.835l-1.405-3.375-2.905-.985z" fill="#000"/><path d="M62.94 62.81s1.55 2.27 1.735 3.535c.185 1.265-.365 2.66.665 3.565 1.03.905 1.5 1.5 1.085 2-.415.5-.965 1.15-.965 1.15s.42 4.285-.245 5.19c-.665.905-4.285 0-4.285 0v2.84M60.93 72.87s-1.45-3.745-2.535-2.84c-1.085.905-.12 5.855 2.535 4.77" stroke="#263238" stroke-linecap="round" stroke-linejoin="round"/><path d="M60.535 72s1.725-.14.635-4.185 1.27-3.5 3.805-4.65c2.535-1.15 3.14-3.26 2.595-4.525-.545-1.265-1.45-1.935-4.65-1.33 0 0-3.5-4.045-6.88.425 0 0-7.61-.12-9.66 3.5s.665 12.86 4.65 15.94c3.985 3.08 7.88.615 8.69-2.28 0 0-2.715-1.465-1.325-4.845 0-.02 1.265-.47 2.14 1.95z" fill="#263238"/><path d="M36.93 89.545s18.415-13.355 34.465 0l-1.295 32.31.755 5.6s-13.57 6.355-28.65.97l.325-6.57-5.6-32.31z" stroke="#263238" stroke-linecap="round" stroke-linejoin="round"/><path d="M47.55 84.69l3.17-4.04s6.215-2.15 11.235 1l1 3.13M71.395 89.545l16.035 18.44M70.655 108s10.625 9.885 14.86 10c4.235.115 4.94-5 4.94-5l4.335-31.9-4.435-.62-7.63 22.115M94.715 81s.555-3.605 2-4.425c1.445-.82 3.16-4 2.61-4.915-.55-.915-2.23 2.06-3.745 2.63-1.515.57-2.745 3.37-2.955 4.585" stroke="#263238" stroke-linecap="round" stroke-linejoin="round"/><path d="M98.86 71.53s0-4.165-.765-3.97c-.765.195-.87 5.47-.87 5.47M96.665 73.565s-.5-2.335-1.875-3.475c-1.375-1.14-2.235-.525-2.08-.14.155.385 2.5 3.5 2.445 4.56" stroke="#263238" stroke-linecap="round" stroke-linejoin="round"/><path d="M94.285 72.41s-3.775-1.73-3.785-.695c-.01 1.035 2.3 1.435 2.3 1.435l.75 1.5s-3.18-1-3-.205c.18.795 1.6.97 1.6.97s-1.545 1.53-1.11 5" stroke="#263238" stroke-linecap="round" stroke-linejoin="round"/><path d="M68.67 127.83l.965 6.76s8.885 26.655 10.235 31.865c1.35 5.21 2.125 17 2.5 22.405.375 5.405 3.5 14.5 3.5 14.5s-.385 3.67-6.95 3.09c0 0-2.705-10.815-5.6-17.19-2.895-6.375-3.32-16.045-3.32-16.045l-14.1-25.88s-2.885 15.07-4.825 20.665c-2 5.77-15.635 37.785-14.68 35.54 0 0-1.93 1.16-6-1.74 0 0 2.895-9.655 3.665-14.87s4.83-17.19 4.83-17.19.965-22.595 2.5-29.55c0 0-1-7.66 1.135-13.07a45.953 45.953 0 0026.145.71z" fill="#263238"/><path d="M48.175 142.795l6.33 1.84.92 2.245" stroke="#fff" stroke-linecap="round" stroke-linejoin="round"/><path d="M79.06 205.66s-.855 4.285-.155 5.165c.37.46 1.47.375 2 .385 1.22.025 2.445-.055 3.665-.135 2.44-.16 4.94-.135 7.295-.89a23.171 23.171 0 005.635-2.555c.96-.64 0-1.675 0-1.675l-11.625-2.61M79 209.315s13.065 2.145 18.5-3.36M30.9 201.37s-1.5 5.145-1.28 6.765c.22 1.62 1.845 2 3.745 1.955 1.9-.045 2.68-.895 2.96-2.18.28-1.285 0-5.44 0-5.44M29.6 207.35l6.725.56M47.155 52.66c.57-1.04.905-1.675.905-1.675s-1.855-4.485-1.39-5.035c.465-.55 1.54 1 1.54 1s-1.1-3.565-.405-3.87c.695-.305 1.935 3 1.935 3s-.325-4.775.395-5c.72-.225 1.585 4.54 1.585 4.54s.93-4.24 1.5-4.28c.57-.04 0 8.745 0 8.745 1.15.565 4.53-.815 4.5.3-.03 1.115-6.5 3.68-6.5 3.68a2.883 2.883 0 00-.295.47M36.93 89.545l-3.7-11.99 13.215-25.04 4.79 2.505-8.45 22.805 2.365 7.615" stroke="#263238" stroke-linecap="round" stroke-linejoin="round"/><path d="M37.36 75.66s4.74-.04 5.425 2.165a9.5 9.5 0 00-5.855 1.62M53.02 80.13v-3.475" stroke="#263238" stroke-linecap="round" stroke-linejoin="round"/><path opacity=".2" d="M71.315 99.215L72.5 107.1s.97-5.145 1.575-5.145 0 6.03 0 6.03 9.94 9 14.24 9.05c0 0-2.39 1.68-4.785.43s-12.895-9.5-12.895-9.5l.68-8.75zM50.385 54.575l-9.09 22.08s-3.165-.05-4.365 2.79l4.86-.87 1.635 7.5 1.725-.655-2.365-7.615L51.235 55l-.85-.425z" fill="#000"/><path d="M175.655 93.405l-3.58-7.645-14.07 9.295 11.61 20.57 9.055-5.14-3.015-17.08zM187.25 159.53s2.275 6.315 2.61 9.39c.335 3.075-.69 16.025-.47 19.595.22 3.57 2.15 14.225 2.15 14.225s-9.465 6.88-12.47 4.665c0 0 6.67-5.4 7.345-7.55l-2.16-14.595L182.11 168s-.545-3.605-1.305-5.46c-.76-1.855-.645-5.79-.645-5.79l7.09 2.78z" fill="#fff"/><path d="M187.05 158.97s2.46 6.65 3.035 11.425c.575 4.775-1.155 15.605-.585 20.82.57 5.215 1.155 8.1 2.165 10.845l-.5 8.055h-1.295l-.5-4.57s-2.03-.845-3.26 2.08-5.775 3.31-7.93 1.615c0 0 0-1.31 1.62-2.465 1.62-1.155 5.85-4.765 6.62-6.92 0 0-2.31-15-2.85-19.86-.54-4.86-1.385-13.695-2.465-16.545-1.08-2.85-1.075-6.925-1.075-6.925M191.17 200.55s-6.345 6.9-11.67 6.855" stroke="#263238" stroke-linecap="round" stroke-linejoin="round"/><path d="M179.07 207.405a5.617 5.617 0 002.6-.325c1.435-.5 6.6-3 9.14-6.155l.78.885-.41 8.12-1.305.185-.5-4.57s-1.67-.765-2.745 1.115c-1.075 1.88-1.85 3.17-3.73 3.585-1.88.415-4.715-1-4.715-1s-.495-.745.885-1.84z" fill="#263238"/><path d="M191.675 159.745a57.9 57.9 0 002.17 6.455c1.135 2.605 10.94 28.95 10.94 28.95s.745 14.26 4.92 14.215c4.175-.045-.165-9.965-.165-9.965l-2.54-5.435s-.97-15.965-2.17-21.835l-5.11-13.765-8.045 1.38z" fill="#fff"/><path d="M199.775 158.825s4.195 9.545 5.06 13.305c.865 3.76 1.735 20.675 2.17 21.835.435 1.16 7.375 13.445 3.18 15.905C205.99 212.33 205 195.7 205 195.7s-9.685-26.9-11.135-29.5c-1.45-2.6-3.035-10.125-3.035-10.125l8.945 2.75z" stroke="#263238" stroke-linecap="round" stroke-linejoin="round"/><path d="M211 203.565s-.29 3.33-1.39 3.8c-1.1.47-3.53-3.285-3.53-3.285" stroke="#263238" stroke-linecap="round" stroke-linejoin="round"/><path d="M206.09 204.655s1.5 5.68 3.5 5.44c2-.24 2.36-3.395 1.415-5.83 0 0-.335 2.5-1.39 3.1-1.065.015-3.525-2.71-3.525-2.71zM188.385 109.175s5.055 6.9 8.56 18c3.505 11.1 3.145 32.36 3.145 32.36s-13.045 4.195-25.69-1.135l2.315-47.9s8.135.15 11.67-1.325z" fill="#263238"/><path d="M181.855 59.135s-3.93 3.68-4.39 6.09a18.875 18.875 0 01-1.81 4.835 3.526 3.526 0 001.765 1.38s.255 4.935 1.69 5.315l3.43-.9.365 2.115 4.92-1.87v-2.85l3.75-2.45-1.335-6.405-6.1-2.85-2.285-2.41z" fill="#fff"/><path d="M176.69 110.115l-.435-6.92s-3.2-6-2.185-8.18c1.12-2.395 7.85-11.265 7.85-11.265l-.66-4.84 9.43-4.04.45 4.04-1.14.845 1.265 2.71s.08-.805 2.27 3.28 10.44 18.62 11.09 21.41c.65 2.79-12.83 12.62-17.38 14.94 0 0-.525-1.125-5.93 3-1.375-.24-3.275-1.475-3.68-2.24-.405-.765 1.555-2.585 1.555-2.585s1.18-2.23 3.265-.445h2.22L197.38 108l-6.44-9.425-2.555 10.585s-8.265 2.51-11.695.955z" fill="#fff"/><path d="M181.26 78.91l.675 4.945 9.205-4.945-.45-4.04-9.43 4.04zM181.935 83.856s-8.375 10.245-8.15 12.265c.225 2.02 2.47 7.074 2.47 7.074l.46 7.3s6.775.185 11.67-1.32l2.555-10.584" stroke="#263238" stroke-linecap="round" stroke-linejoin="round"/><path d="M197.38 108l-12.975-19.56s-1.275-4.5 1.795-6.105c3.07-1.605 5.74.43 6.695 1.5.955 1.07 11.255 20.915 11.735 23.3.48 2.385-10.4 11.925-16.695 14.5 0 0-2.865 1.72-2.865-1.81L197.38 108zM191.14 82.465l-1.215-2.9" stroke="#263238" stroke-linecap="round" stroke-linejoin="round"/><path d="M185.07 119.845h-2.61s-2.035-1.82-3 0c-.965 1.82-2.185 2.18-1.82 3.03.365.85 2.455 2.545 3.68 2.24C182.545 124.81 186 122 186 122M180.915 60.43s-3.065 2.68-3.405 4.165c-.34 1.485-.195 4-1.855 5.465 0 0 .085 1.2 1.765 1.38 0 0 .86 4.735 1.69 5.315.83.58 5.91-2.04 7.9-3.12a2.635 2.635 0 001.045-1.455M178.535 72.885a3.86 3.86 0 002.38-1.404M178.535 66.035s1.21-.705 1.875.465" stroke="#263238" stroke-linecap="round" stroke-linejoin="round"/><path d="M179.365 68.55c0 .405-.115.735-.3.745-.185.01-.355-.31-.375-.71-.02-.4.115-.74.3-.75.185-.01.355.31.375.715z" fill="#263238"/><path d="M182.54 75.855l.405 2.335" stroke="#263238" stroke-linecap="round" stroke-linejoin="round"/><path d="M186.47 68.24s.75-1.455 1.585-.605c.835.85 2.42 4.78-1.855 3.845 0 0-.285 2.4 1.855 3 2.14.6 6.205-2.71 6.34-8.355.135-5.645-5.315-9.455-8.195-8.365 0 0-4.175-6.545-8.315-3.755s-1.35 7.085-2.23 8.055c-.88.97-2.76.06-2.82 2.665-.06 2.605 4.295 2.34 4.295 2.34l.525-2.87 3.605-3.765s-.85 2.72.595 5.085c1.305 2.13 4.615 2.725 4.615 2.725z" fill="#263238"/><path d="M194.395 66.125s2 .45 1.78 3.155c-.22 2.705-4.735 9.355-4.395 13.185l11.655 21.72s5.245-1 5-6.4c-.245-5.4-6.645-9.95-5.41-13.93 1.235-3.98 6.085-14.115-.785-19.925-6.87-5.81-17.58 3.095-17.58 3.095l5.245-1.69 4.49.79z" fill="#263238"/><path d="M175.205 92.96l-3.13-7.2-14.07 9.295 11.61 20.57 7.04-3.875" stroke="#263238" stroke-linecap="round" stroke-linejoin="round"/><path d="M162.385 105.23s-.76-1.57.255-2.435c1.015-.865 4.5-3.43 4.5-2.8a1.09 1.09 0 01-.24.865c-1 1.34-3.395 3.5-3.24 3.675 0 0 4.37-2.9 4.79-2.625.105.07.045.445-.32.81a37.795 37.795 0 01-3.785 2.96s4.61-1.785 5.205-1.5c.17.08.135.34-.4.665a41.817 41.817 0 01-4.125 1.96l1.155 1.93s-2.18.38-3.795-3.505z" fill="#fff" stroke="#263238" stroke-linecap="round" stroke-linejoin="round"/><path d="M187.505 72.885l.32 3.215" stroke="#263238" stroke-linejoin="round"/></svg>