<svg width="210" height="210" fill="none" xmlns="http://www.w3.org/2000/svg"><g clip-path="url(#clip0)"><path d="M176.159 29.545S152.795-1.771 116.613.579C80.43 2.93 50.038 34.43 24.882 59.13-.274 83.83-6.58 121.471 8.772 150.403c15.353 28.933 38.76 16.076 69.164 34.397 30.403 18.321 36.292 28.965 69.76 23.594 33.469-5.372 58.268-53.178 53.668-103.407-4.6-50.229-25.205-75.442-25.205-75.442z" fill="#DD4D32"/><path opacity=".7" d="M176.159 29.545S152.795-1.771 116.613.579C80.43 2.93 50.038 34.43 24.882 59.13-.274 83.83-6.58 121.471 8.772 150.403c15.353 28.933 38.76 16.076 69.164 34.397 30.403 18.321 36.292 28.965 69.76 23.594 33.469-5.372 58.268-53.178 53.668-103.407-4.6-50.229-25.205-75.442-25.205-75.442z" fill="#fff"/><path d="M161.02 37.74H10.785V154.92H161.02V37.741z" fill="#DD4D32"/><path opacity=".4" d="M161.02 37.74H10.785V154.92H161.02V37.741z" fill="#fff"/><path d="M151.09 78.194H65.665v64.942h85.425V78.194z" fill="#fff" stroke="#263238" stroke-miterlimit="10"/><path d="M92.427 70.643l-1.645-5.688H64.004v82.907h88.749v-77.22H92.427zm58.669 72.493H65.665V78.194h85.425l.006 64.942z" fill="#DD4D32" stroke="#263238" stroke-miterlimit="10"/><path d="M134.855 72.795H92.417v3.12h42.438v-3.12z" fill="#fff" stroke="#263238" stroke-miterlimit="10"/><path d="M67.72 72.295l-1.222 1.416 1.267 1.632M66.498 73.71h2.72M74.657 72.295l1.228 1.416-1.272 1.632M75.885 73.71h-2.72M81.73 73.52a1.655 1.655 0 00-.463-.83 1.21 1.21 0 00-.782-.342 1.044 1.044 0 00-.494.082 1.218 1.218 0 00-.427.312 1.51 1.51 0 00-.287.49 1.724 1.724 0 000 1.174c.067.185.164.352.287.49.123.138.268.245.427.312.158.068.326.096.494.083.283 0 .557-.118.773-.336" stroke="#263238" stroke-linecap="round" stroke-linejoin="round"/><path d="M80.907 73.684h.949v-1.356M88.216 73.204l-1.13-1.1-1.074 1.1v2.39h2.204v-2.39z" stroke="#263238" stroke-linecap="round" stroke-linejoin="round"/><path d="M87.52 73.849h-.86v1.659h.86v-1.66z" fill="#263238"/><path d="M86.012 73.204l-.647.71M88.217 73.204l.608.645M87.81 67.898l1.722 2.133M89.56 67.93l-1.777 2.068M146.589 73.368h3.405M146.589 74.29h3.405M146.589 75.205h3.405M146.589 76.127h3.405M128.725 85.856h4.288M123.176 85.856h3.762M113.948 85.856h7.835M113.948 89.003h19.065M130.211 92.143h2.802M117.03 92.143h11.393M113.948 92.143h1.497M113.948 95.283h19.065" stroke="#263238" stroke-linecap="round" stroke-linejoin="round"/><path d="M120.594 121.497h-4.239v15.635h4.239v-15.635z" fill="#263238" stroke="#263238" stroke-linecap="round" stroke-linejoin="round"/><path d="M126.652 102.953h-4.238v34.186h4.238v-34.186z" fill="#DD4D32" stroke="#263238" stroke-miterlimit="10"/><path d="M132.711 113.137h-4.238v24.002h4.238v-24.002z" fill="#263238" stroke="#263238" stroke-linecap="round" stroke-linejoin="round"/><path d="M138.764 102.953h-4.238v34.186h4.238v-34.186z" fill="#DD4D32" stroke="#263238" stroke-miterlimit="10"/><path d="M144.823 88.042h-4.238v49.097h4.238V88.042z" fill="#263238" stroke="#263238" stroke-linecap="round" stroke-linejoin="round"/><path d="M102.944 58.438H17.518v64.942h85.426V58.438z" fill="#fff" stroke="#263238" stroke-miterlimit="10"/><path d="M44.276 50.894L42.63 45.2H15.857v82.907H104.6V50.894H44.276zm58.668 72.486H17.546V58.438h85.425l-.027 64.942z" fill="#DD4D32" stroke="#263238" stroke-miterlimit="10"/><path d="M86.703 53.04H44.264v3.12h42.44v-3.12z" fill="#fff" stroke="#263238" stroke-miterlimit="10"/><path d="M19.574 52.54l-1.228 1.422 1.272 1.632M18.346 53.961h2.725M26.51 52.54l1.223 1.422-1.266 1.632M27.738 53.961h-2.725M33.584 53.77a1.65 1.65 0 00-.458-.827 1.207 1.207 0 00-.776-.344c-.324 0-.635.154-.865.43a1.63 1.63 0 00-.358 1.038c0 .39.129.762.358 1.038.23.275.54.43.865.43.283 0 .558-.117.779-.33" stroke="#263238" stroke-linecap="round" stroke-linejoin="round"/><path d="M32.756 53.935h.954v-1.363M40.07 53.448l-1.13-1.093-1.074 1.093v2.39h2.204v-2.39z" stroke="#263238" stroke-linecap="round" stroke-linejoin="round"/><path d="M39.368 54.093h-.86v1.66h.86v-1.66z" fill="#263238"/><path d="M37.866 53.448l-.647.711M40.07 53.448l.608.652M39.664 48.148l1.716 2.127M41.408 48.182l-1.771 2.06M98.442 53.613h3.405M98.442 54.534h3.405M98.442 55.456h3.405M98.442 56.377h3.405" stroke="#263238" stroke-linecap="round" stroke-linejoin="round"/><path d="M21.91 117.113V94.685l5.944 15.108 5.05-2.647 5.713 5.418 9.732-7.597 5.944 9.967 4.162-2.488 3.564 2.488 4.457-.625 5.938 1.718 6.24-.626 3.97 1.712H21.91z" fill="#263238"/><path d="M84.471 78.194h6.476M76.088 78.194h5.686M62.15 78.194h11.843M62.15 81.334h28.797M86.714 84.48h4.233M66.805 84.48h17.217M62.15 84.48h2.26M62.15 87.62h28.797M90.947 92.676H84.47M76.088 92.676h5.686M62.15 92.676h11.843M62.15 95.816h28.797M90.947 98.963h-4.233M66.805 98.963h17.217M62.15 98.963h2.26M62.15 102.104h28.797" stroke="#263238" stroke-linecap="round" stroke-linejoin="round"/><path d="M29.296 83.368l-3.405 9.216c-2.029-1.084-3.615-3.091-4.411-5.58a11.925 11.925 0 01.167-7.691c.65-1.79 1.725-3.309 3.09-4.368 1.365-1.06 2.96-1.613 4.586-1.59l-.027 10.013z" fill="#DD4D32"/><path opacity=".47" d="M29.296 83.368l-3.405 9.216c-2.029-1.084-3.615-3.091-4.411-5.58a11.925 11.925 0 01.167-7.691c.65-1.79 1.725-3.309 3.09-4.368 1.365-1.06 2.96-1.613 4.586-1.59l-.027 10.013z" fill="#fff"/><path d="M29.296 83.368l3.931 8.88c-1.117.737-2.364 1.149-3.638 1.201a7.003 7.003 0 01-3.698-.897l3.405-9.184z" fill="#263238"/><path d="M29.296 83.368l6.508-6.346a10.856 10.856 0 011.525 3.48c.312 1.268.413 2.599.295 3.915a11.532 11.532 0 01-.978 3.751 9.832 9.832 0 01-2.103 3.014 8.147 8.147 0 01-1.338 1.067l-3.91-8.88z" fill="#DD4D32"/><path d="M29.296 83.368V73.322a6.885 6.885 0 013.62.92c1.13.643 2.12 1.595 2.888 2.78l-6.508 6.346z" fill="#263238"/><path d="M29.296 88.858c2.516 0 4.556-2.449 4.556-5.47s-2.04-5.471-4.556-5.471c-2.517 0-4.557 2.45-4.557 5.47 0 3.022 2.04 5.471 4.557 5.471z" fill="#fff"/><path d="M51.984 83.368l-3.404 9.217a8.556 8.556 0 01-2.67-2.263 10.494 10.494 0 01-1.744-3.317 11.871 11.871 0 01-.553-3.866c.03-1.32.275-2.62.723-3.826.647-1.785 1.718-3.3 3.078-4.36 1.36-1.06 2.95-1.615 4.57-1.598v10.013z" fill="#DD4D32"/><path opacity=".47" d="M51.984 83.368l-3.404 9.217a8.556 8.556 0 01-2.67-2.263 10.494 10.494 0 01-1.744-3.317 11.871 11.871 0 01-.553-3.866c.03-1.32.275-2.62.723-3.826.647-1.785 1.718-3.3 3.078-4.36 1.36-1.06 2.95-1.615 4.57-1.598v10.013z" fill="#fff"/><path d="M51.985 83.368l3.942 8.88c-1.118.737-2.364 1.149-3.638 1.201a7.003 7.003 0 01-3.698-.897l3.394-9.184z" fill="#263238"/><path d="M51.984 83.368l6.503-6.32a10.971 10.971 0 011.626 3.934c.294 1.439.32 2.938.075 4.39a11.132 11.132 0 01-1.49 4.01c-.737 1.19-1.683 2.168-2.771 2.867l-3.943-8.88z" fill="#DD4D32"/><path d="M51.984 83.368V73.322a6.876 6.876 0 013.619.92c1.13.643 2.117 1.595 2.884 2.78l-6.503 6.346z" fill="#263238"/><path d="M51.985 88.858c2.516 0 4.556-2.449 4.556-5.47s-2.04-5.471-4.556-5.471c-2.517 0-4.557 2.45-4.557 5.47 0 3.022 2.04 5.471 4.557 5.471z" fill="#fff"/><path d="M21.614 65.522h53.789M21.614 68.668h63.784" stroke="#263238" stroke-linecap="round" stroke-linejoin="round"/><path d="M141.956 130.345s-2.66 3.7-2.38 4.371c.28.672 2.522 2.35 2.659 1.317.262-1.612.446-3.24.549-4.878.016-1.159.153-1.468-.828-.81z" fill="#fff" stroke="#263238" stroke-linecap="round" stroke-linejoin="round"/><path d="M143.359 122.445s-1.82 4.707-1.963 5.721c-.142 1.014.702 2.35.702 2.857 0 .507-1.096 2.014-1.096 4.371 0 2.357-.143 7.735 1.54 9.078 1.684 1.343 4.48-.165 4.48-.165l2.659 6.221 10.643-7.399-1.541-2.857s2.243-7.241.548-12.778c-1.694-5.536-7.676-6.392-10.083-6.583-2.407-.191-5.044-.5-5.889 1.534z" fill="#fff"/><path d="M158.761 140.252s2.243-7.241.548-12.777c-1.694-5.537-7.676-6.393-10.083-6.584-.389 0-.789-.059-1.19-.079l-3.103 2.95s-2.555 4.391-1.459 6.142c1.097 1.751 1.826 3.515 1.459 6.366-.367 2.85-2.791 7.781-.362 7.899.499 0 1.289.106 2.226.217l.203-.098.055.131c3.586.435 9.03 1.284 9.03 1.284l.549-.033 3.679-2.561-1.552-2.857z" fill="#DD4D32"/><path opacity=".5" d="M158.761 140.252s2.243-7.241.548-12.777c-1.694-5.537-7.676-6.393-10.083-6.584-.389 0-.789-.059-1.19-.079l-3.103 2.95s-2.555 4.391-1.459 6.142c1.097 1.751 1.826 3.515 1.459 6.366-.367 2.85-2.791 7.781-.362 7.899.499 0 1.289.106 2.226.217l.203-.098.055.131c3.586.435 9.03 1.284 9.03 1.284l.549-.033 3.679-2.561-1.552-2.857z" fill="#fff"/><path d="M143.359 122.445s-1.82 4.707-1.963 5.721c-.142 1.014.702 2.35.702 2.857 0 .507-1.096 2.014-1.096 4.371 0 2.357-.143 7.735 1.54 9.078 1.684 1.343 4.48-.165 4.48-.165l2.659 6.221 10.643-7.399-1.541-2.857s2.243-7.241.548-12.778c-1.694-5.536-7.676-6.392-10.083-6.583-2.407-.191-5.044-.5-5.889 1.534z" stroke="#263238" stroke-linecap="round" stroke-linejoin="round"/><path d="M157.911 117.218s-5.181-1.85-9.661-1.685c-4.48.164-8.965 1.685-8.822 4.542.142 2.857 4.337 3.864 4.337 3.864s2.385.172 1.683 1.008c-.702.836-2.522 2.528-1.096 4.542 1.425 2.014 2.796 3.7 2.379 4.371-.416.672.137 2.186.697 1.685.559-.5-.28-2.528 1.261-3.199 1.54-.671 3.081 2.186 2.522 4.035-.559 1.85-1.541 1.686-.982 3.029.56 1.343 4.063 3.528 6.443 3.528s3.081-3.7 5.604-9.585c2.522-5.885.828-14.456-4.365-16.135z" fill="#263238" stroke="#263238" stroke-linecap="round" stroke-linejoin="round"/><path d="M144.62 152.023l1.399 3.193 15.407-12.107-1.541-2.185S147 149.495 144.62 152.023z" fill="#fff" stroke="#263238" stroke-linecap="round" stroke-linejoin="round"/><path d="M147.559 152.523s-3.081 5.043-4.2 7.564c-1.118 2.521-5.883 17.32-7.983 22.534a56.62 56.62 0 00-2.906 9.361h29.373s3.361-20.124 3.361-28.867c0-8.742-1.678-15.299-2.243-16.977-.565-1.679-2.659-3.029-2.659-3.029l-12.743 9.414z" fill="#fff"/><path d="M147.559 152.523s-3.081 5.043-4.2 7.564c-1.118 2.521-5.883 17.32-7.983 22.534a56.62 56.62 0 00-2.906 9.361h29.373s3.361-20.124 3.361-28.867c0-8.742-1.678-15.299-2.243-16.977-.565-1.679-2.659-3.029-2.659-3.029l-12.743 9.414z" fill="#BDBDBD" stroke="#263238" stroke-linecap="round" stroke-linejoin="round"/><path d="M139.505 171.436s6.579-12.369 9.058-15.569c2.478-3.199 14.771-10.77 14.771-10.77l-1.941-2.528s-12.65 7.538-14.607 9.875c-1.957 2.337-7.632 16.214-7.281 18.992z" fill="#BDBDBD" stroke="#263238" stroke-linecap="round" stroke-linejoin="round"/><path d="M147.559 152.523s-3.081 5.043-4.2 7.564c-1.118 2.521-5.883 17.32-7.983 22.534a56.62 56.62 0 00-2.906 9.361h29.373s3.361-20.124 3.361-28.867c0-8.742-1.678-15.299-2.243-16.977-.565-1.679-2.659-3.029-2.659-3.029l-12.743 9.414z" stroke="#263238" stroke-linecap="round" stroke-linejoin="round"/><path d="M155.68 152.523s-7.676 6.057-8.822 8.407c-1.146 2.35-.138 6.056-.138 6.583 0 .527-1.096 2.186-1.096 2.693v1.678l-6.031 19.506H153.3s5.883-17.149 7.002-20.513c1.118-3.364 1.683-9.414 1.124-12.778M147.981 166.987s3.362-4.714 8.4-5.385" stroke="#263238" stroke-linecap="round" stroke-linejoin="round"/><path d="M180.611 132.524s-9.672-2.324-12.381.461c-2.708 2.784-1.162 19.749-1.935 24.16-.773 4.41-2.709 9.058-1.936 13.699.773 4.641 2.517 7.9 3.29 10.224.773 2.323-.197 10.914-.197 10.914H195.7s5.028-16.023 5.028-28.103c0-12.08-3.098-22.527-7.736-26.477-4.639-3.95-12.381-4.878-12.381-4.878z" fill="#DD4D32"/><path opacity=".26" d="M170.254 139.778c-2.742 5.491.367 35.549 1.096 38.406.729 2.857-4.567.217-2.922 1.751 1.645 1.534 4.748 4.174 4.748 4.174a51.41 51.41 0 00-5.395-2.416c.096.687.146 1.383.148 2.08a52.513 52.513 0 005.779 4.707l-6.004.606c-.126 1.652-.269 2.883-.269 2.883h28.249s5.028-16.023 5.028-28.103a60.957 60.957 0 00-1.738-14.865l-16.855-8.558s-9.124-6.148-11.865-.665z" fill="#000"/><path d="M180.611 132.524s-9.672-2.324-12.381.461c-2.708 2.784-1.162 19.749-1.935 24.16-.773 4.41-2.709 9.058-1.936 13.699.773 4.641 2.517 7.9 3.29 10.224.773 2.323-.197 10.914-.197 10.914H195.7s5.028-16.023 5.028-28.103c0-12.08-3.098-22.527-7.736-26.477-4.639-3.95-12.381-4.878-12.381-4.878z" stroke="#263238" stroke-linecap="round" stroke-linejoin="round"/><path d="M180.392 90.715s-4.255-4.18-8.318-1.159c-4.063 3.022-11.027 16.952-10.253 23.923.773 6.972 7.742 13.469 3.097 17.189-4.644 3.719-2.9 10.447-.581 12.31l1.355.23s0-6.734 3.871-8.597c3.871-1.863 9.474-.231 10.829 1.863 1.354 2.093-1.157 12.771 2.127 15.562 3.284 2.791 7.934 3.252 6.969 6.037-.965 2.784-4.26 7.202-2.133 11.152 2.127 3.949 7.353 7.899 9.096 6.497 1.744-1.402-.773-3.015.192-3.95.965-.935 8.899-4.18 7.545-8.13-1.354-3.95-4.255-6.043-2.901-7.669 1.355-1.626 6.383-5.569 5.801-11.145-.581-5.576-11.607-9.756-11.991-15.8-.384-6.043 6.58-6.734 4.255-20.407s-9.458-19.75-12.929-19.75c-2.108-.006-4.183.629-6.031 1.844z" fill="#263238" stroke="#263238" stroke-linecap="round" stroke-linejoin="round"/><path d="M184.153 98.002c2.917 4.858 6.58 12.014 6.706 17.425.181 9.013-6.41 12.752-5.313 19.782 1.096 7.031 13.899 8.242 14.831 14.483.932 6.241-4.934 3.95-3.481 7.472 1.453 3.522 7.128 6.583 4.764 10.533M180.605 92.571s.615.843 1.541 2.252M177.705 128.199c.669.842 1.069 1.626 1.069 2.396M166.509 101.379s-2.928 9.671 1.464 16.267c2.341 3.516 5.252 6.09 7.462 8.196M192.876 141.45c.85.369 1.777.659 2.742 1.014" stroke="#fff" stroke-linecap="round" stroke-linejoin="round"/><path d="M193.967 99.404s6.224 9.454 4.03 17.584c-2.193 8.13-9.518 12.508-9.518 17.774-.076 1.608.37 3.189 1.245 4.411" stroke="#fff" stroke-linecap="round" stroke-linejoin="round"/><path d="M120.002 184.24s-1.163 1.718-1.163 2.791c0 1.074-.444 3.213.093 3.325.538.112.889-2.258 1.426-3.114.537-.856 1.875-1.073 1.787-2.251-.087-1.179-1.337-2.252-2.143-.751z" fill="#fff" stroke="#263238" stroke-linecap="round" stroke-linejoin="round"/><path d="M132.87 185.741s-5.006-5.042-6.256-5.576c-1.25-.533-3.756 2.897-5.275 6.221-1.518 3.325-.712 4.075.094 4.181.806.105 4.287-1.712 4.287-1.712 1.235 1.178 2.668 2.018 4.2 2.462 2.413.658 5.895-1.073 5.988-2.784.093-1.712-3.038-2.792-3.038-2.792z" fill="#fff" stroke="#263238" stroke-linecap="round" stroke-linejoin="round"/><path d="M179.449 151.319s.191 35.088-.582 37.879c-.773 2.791-3.481 2.784-7.928 3.015-4.447.23-31.533-.691-31.533-.691a30.62 30.62 0 01-4.644.46c-2.128 0-5.807-.46-7.161-1.626-1.354-1.165-2.511-1.395-3.092-1.158-.582.237-2.128 2.554-3.482 2.554s-2.906-.698-1.936-.928c.971-.231 6.191-6.972 7.353-6.972 1.163 0 9.475 2.555 11.026 2.324 1.552-.23 29.214-6.734 29.214-6.734l-.965-36.207s-.97-6.274 3.871-8.598" fill="#DD4D32"/><path opacity=".26" d="M171.739 138.12c-.616.371-1.132.947-1.486 1.659-2.741 5.49.368 35.548 1.097 38.405.729 2.857-4.567.217-2.922 1.751 1.645 1.534 4.748 4.174 4.748 4.174s-8.954-4.608-6.58-1.758c2.374 2.851 7.128 6.142 7.128 6.142l-31.253 3.127c7.227.237 24.926.777 28.451.593 4.447-.231 7.156-.231 7.929-3.015.773-2.785.581-38.557.581-38.557l-7.693-12.521z" fill="#000"/><path d="M179.449 151.319s.191 35.088-.582 37.879c-.773 2.791-3.481 2.784-7.928 3.015-4.447.23-31.533-.691-31.533-.691a30.62 30.62 0 01-4.644.46c-2.128 0-5.807-.46-7.161-1.626-1.354-1.165-2.511-1.395-3.092-1.158-.582.237-2.128 2.554-3.482 2.554s-2.906-.698-1.936-.928c.971-.231 6.191-6.972 7.353-6.972 1.163 0 9.475 2.555 11.026 2.324 1.552-.23 29.214-6.734 29.214-6.734l-.965-36.207s-.97-6.274 3.871-8.598" stroke="#263238" stroke-linecap="round" stroke-linejoin="round"/><path d="M147.461 191.778a14.872 14.872 0 01.378-7.939c-5.286 1.224-9.771 2.245-10.369 2.337-1.551.23-9.869-2.324-11.026-2.324s-6.366 6.734-7.353 6.971c-.987.237.582.929 1.936.929s2.9-2.324 3.482-2.555c.581-.23 1.738 0 3.092 1.159s5.033 1.626 7.161 1.626a30.635 30.635 0 004.644-.461l8.055.257z" fill="#fff" stroke="#263238" stroke-linecap="round" stroke-linejoin="round"/><path d="M122.058 181.772c-.847.603-1.555 1.452-2.056 2.469-.549 1.395 0 5.681.893 5.681.894 0 1.519-1.179 1.519-2.679 0-1.501-.356-5.471-.356-5.471z" fill="#fff" stroke="#263238" stroke-linecap="round" stroke-linejoin="round"/><path d="M123.308 180.916s-1.431.105-1.969 1.396c-.537 1.29-.444 6.754.45 6.971.894.217 1.25-1.613 1.25-2.791s.269-5.576.269-5.576z" fill="#fff" stroke="#263238" stroke-linecap="round" stroke-linejoin="round"/><path d="M126.614 180.166s-2.144-.435-3.038.322c-.893.757-1.096 7.4-.449 7.933.647.533 1.699-.856 1.699-1.606 0-.751 1.251-4.826 1.251-4.826" fill="#fff"/><path d="M126.614 180.166s-2.144-.435-3.038.322c-.893.757-1.096 7.4-.449 7.933.647.533 1.699-.856 1.699-1.606 0-.751 1.251-4.826 1.251-4.826" stroke="#263238" stroke-linecap="round" stroke-linejoin="round"/><path d="M72.924 158.211s-2.566 4.674-1.486 6.945c1.08 2.271 5.001 6.972 13.1 6.32 8.098-.652 3.24-17.017 4.183-27.07.943-10.052-2.56-11.507-5.4-8.913-2.841 2.594-6.345 15.075-7.677 17.182a39.783 39.783 0 00-2.72 5.536z" fill="#DD4D32"/><path opacity=".42" d="M72.924 158.211s-2.566 4.674-1.486 6.945c1.08 2.271 5.001 6.972 13.1 6.32 8.098-.652 3.24-17.017 4.183-27.07.943-10.052-2.56-11.507-5.4-8.913-2.841 2.594-6.345 15.075-7.677 17.182a39.783 39.783 0 00-2.72 5.536z" fill="#000" stroke="#263238" stroke-linecap="round" stroke-linejoin="round"/><path d="M72.924 158.211s-2.566 4.674-1.486 6.945c1.08 2.271 5.001 6.972 13.1 6.32 8.098-.652 3.24-17.017 4.183-27.07.943-10.052-2.56-11.507-5.4-8.913-2.841 2.594-6.345 15.075-7.677 17.182a39.783 39.783 0 00-2.72 5.536z" stroke="#263238" stroke-linecap="round" stroke-linejoin="round"/><path d="M83.16 161.286s0 12.98.136 17.068c.136 4.088.67 14.006.67 14.006H109.2l-1.341-29.623-.403-1.457-24.296.006z" fill="#263238" stroke="#263238" stroke-linecap="round" stroke-linejoin="round"/><path d="M97.549 164.761l10.187.494-.11-2.693-.405-1.619H97.39l.159 3.818zM85.48 160.943h-2.686v3.114l2.692.125-.006-3.239zM86.341 160.943l.154 3.291 9.222.441-.093-3.732h-9.283z" fill="#fff" stroke="#263238" stroke-linecap="round" stroke-linejoin="round"/><path d="M82.92 135.974s-.137 18.643 0 21.566c.137 2.923-1.097 3.89.943 4.377 2.04.488 18.5.968 20.117.659 1.618-.31 1.645-1.317 2.029-2.271.384-.955 5.801-42.632 4.589-43.771-1.212-1.139-8.91-4.536-9.59-4.536-.68 0-10.664.658-12.556.974-1.892.316-4.052-.329-4.183.968-.132 1.297-1.35 22.034-1.35 22.034z" fill="#fff"/><path d="M91.194 118.173s-3.164-.184-3.767.178c-.34.204-2.413 6.313-4.15 11.579-.204 3.43-.357 6.044-.357 6.044s-.137 18.643 0 21.566c.087 1.915-.4 2.988-.181 3.64.685-2.857 1.776-7.788 3.032-14.799 2.11-11.757 5.423-28.208 5.423-28.208z" fill="#BDBDBD"/><path d="M82.92 135.974s-.137 18.643 0 21.566c.137 2.923-1.097 3.89.943 4.377 2.04.488 18.5.968 20.117.659 1.618-.31 1.645-1.317 2.029-2.271.384-.955 5.801-42.632 4.589-43.771-1.212-1.139-8.91-4.536-9.59-4.536-.68 0-10.664.658-12.556.974-1.892.316-4.052-.329-4.183.968-.132 1.297-1.35 22.034-1.35 22.034z" stroke="#263238" stroke-linecap="round" stroke-linejoin="round"/><path d="M54.83 125.737s-4.858-2.917-6.612-3.404c-1.755-.487-7.43-2.106-7.835-1.461-.406.645.137 1.316.68 1.316.542 0 4.046 1.784 4.046 1.784s-.4 3.891-.4 4.865c0 .975 4.32 2.917 5.263 3.081.944.165 2.846-.704 2.846-.704l1.338-.435.674-5.042z" fill="#fff" stroke="#263238" stroke-linecap="round" stroke-linejoin="round"/><path d="M44.709 124.631s-.549 4.378-.137 4.858c.41.481 3.24 2.758 3.646 1.626.406-1.132.268-5.516.268-5.997 0-.481-3.777-.487-3.777-.487z" fill="#fff" stroke="#263238" stroke-linecap="round" stroke-linejoin="round"/><path d="M53.213 125.927s-4.59-2.106-5.67-2.106-2.834 1.777-3.783 2.106c-.948.33.269 1.317.949 1.133.68-.185 2.56-.81 2.56-.81.42.964 1.023 1.796 1.76 2.429 1.097.81 3.372.329 3.372.329" fill="#fff"/><path d="M53.213 125.927s-4.59-2.106-5.67-2.106-2.834 1.777-3.783 2.106c-.948.33.269 1.317.949 1.133.68-.185 2.56-.81 2.56-.81.42.964 1.023 1.796 1.76 2.429 1.097.81 3.372.329 3.372.329" stroke="#263238" stroke-linecap="round" stroke-linejoin="round"/><path d="M94.363 111.872s-8.099-.836-9.743-.401c-1.645.434-5.484 11.632-6.032 13.166-.548 1.534-6.58 8.558-6.58 8.558l-17.359-8.117-1.831 6.142s14.075 10.974 16.45 12.291c2.373 1.316 5.668 1.099 6.765 1.099.806-.099 1.569-.481 2.193-1.099l-5.302 14.7s8.592-12.284 11.147-18.209c2.555-5.925 8.411-23.265 8.96-23.699.548-.435 1.332-4.431 1.332-4.431z" fill="#DD4D32"/><path opacity=".26" d="M75.617 137.343c-.44 0-1.026-.349-1.613-.349-.586 0 .735 2.633.44 3.529-.297.895-21.297-9.875-21.297-9.875l-.038.796c1.985 1.548 13.981 10.863 16.158 12.067 2.38 1.317 5.67 1.1 6.766 1.1.718-.069 1.406-.385 1.98-.909 1.6-4.904 2.741-13.054 2.741-13.054s-4.693 6.695-5.138 6.695z" fill="#000"/><path d="M94.363 111.872s-8.099-.836-9.743-.401c-1.645.434-5.484 11.632-6.032 13.166-.548 1.534-6.58 8.558-6.58 8.558l-17.359-8.117-1.831 6.142s14.075 10.974 16.45 12.291c2.373 1.316 5.668 1.099 6.765 1.099.806-.099 1.569-.481 2.193-1.099l-5.302 14.7s8.592-12.284 11.147-18.209c2.555-5.925 8.411-23.265 8.96-23.699.548-.435 1.332-4.431 1.332-4.431z" stroke="#263238" stroke-linecap="round" stroke-linejoin="round"/><path d="M94.363 111.873l-2.248 2.56.115 5.122 2.369-2.706-.236-4.976z" fill="#fff" stroke="#263238" stroke-linecap="round" stroke-linejoin="round"/><path d="M90.097 86.897s-2.423 4.476-2.27 5.41c.154.936.548 1.89.548 2.634s-2.741 3.364-2.423 3.95c.318.586 1.87 1.494 1.87 1.494s-.066 7.301 1.332 8.236c1.398.934 4.058-.566 4.058-.566l1.398 9.361 7.95-6.741v-6.735s4.677-6.36 4.99-11.415c.312-5.056-5.483-10.665-11.224-11.6-5.74-.934-8.883 3.74-7.95 5.267.932 1.527 1.721.705 1.721.705z" fill="#fff"/><path d="M99.6 113.189l2.966-2.515v-6.734s4.677-6.36 4.989-11.415c.203-3.292-2.193-6.84-5.483-9.164l-8.268 4.115s-3.882 4.094-3.372 4.647c.51.553 2.001 2.844 1.645 3.898 0 0-1.388.658-1.245 1.797.143 1.139 3.372 8.558 3.372 8.558l-.992 1.678 6.387 5.135z" fill="#DD4D32"/><path opacity=".5" d="M99.6 113.189l2.966-2.515v-6.734s4.677-6.36 4.989-11.415c.203-3.292-2.193-6.84-5.483-9.164l-8.268 4.115s-3.882 4.094-3.372 4.647c.51.553 2.001 2.844 1.645 3.898 0 0-1.388.658-1.245 1.797.143 1.139 3.372 8.558 3.372 8.558l-.992 1.678 6.387 5.135z" fill="#fff"/><path d="M90.097 86.897s-2.423 4.476-2.27 5.41c.154.936.548 1.89.548 2.634s-2.741 3.364-2.423 3.95c.318.586 1.87 1.494 1.87 1.494s-.066 7.301 1.332 8.236c1.398.934 4.058-.566 4.058-.566l1.398 9.361 7.95-6.741v-6.735s4.677-6.36 4.99-11.415c.312-5.056-5.483-10.665-11.224-11.6-5.74-.934-8.883 3.74-7.95 5.267.932 1.527 1.721.705 1.721.705z" stroke="#263238" stroke-linecap="round" stroke-linejoin="round"/><path d="M102.494 112.143s-1.754 7.458-3.915 16.865c-2.16 9.408-1.754 38.577-1.754 40.203 0 1.626 3.103 7.452 6.618 9.078a24.466 24.466 0 007.128 1.942s-2.429-19.288-2.429-24.798c0-5.51 2.16-14.108 2.16-14.108s3.24 9.73 4.589 11.027c1.349 1.297 6.75 2.752 6.618-3.245-.131-5.998-4.726-27.399-5.943-29.506-1.218-2.106-7.024-4.213-7.024-4.213l-6.048-3.245z" fill="#DD4D32"/><g opacity=".26" fill="#000"><path opacity=".26" d="M108.169 155.433c-3.07.954-5.527 1.639-5.527 1.639s3.762 9.038 5.27 9.038h1.063c-.444-4.384-.806-8.558-.806-10.677zM111.075 128.659c1.645 2.166 5.116 1.087 5.116 1.811s-2.709 2.35-1.645 4.878 7.232 13.383 5.423 15.371c-.521.573-2.193 1.317-4.288 2.146 1.963 1.04 5.982 1.429 5.867-3.759-.137-5.997-4.726-27.398-5.944-29.505-.011 0-6.19 6.886-4.529 9.058zM106.689 131.194a3.871 3.871 0 00-.947 1.79 4.432 4.432 0 00.02 2.12c.62 2.416 2.945 4.839 2.325 6.142-.62 1.304-5.275.375-5.116 2.238.159 1.863 4.962 8.005 4.962 8.005l2.013-10.987-3.257-9.308z"/></g><path d="M102.494 112.143s-1.754 7.458-3.915 16.865c-2.16 9.408-1.754 38.577-1.754 40.203 0 1.626 3.103 7.452 6.618 9.078a24.466 24.466 0 007.128 1.942s-2.429-19.288-2.429-24.798c0-5.51 2.16-14.108 2.16-14.108s3.24 9.73 4.589 11.027c1.349 1.297 6.75 2.752 6.618-3.245-.131-5.998-4.726-27.399-5.943-29.506-1.218-2.106-7.024-4.213-7.024-4.213l-6.048-3.245z" stroke="#263238" stroke-linecap="round" stroke-linejoin="round"/><path d="M102.543 108.884l-6.996 5.971.477 5.266 7.704-8.393-1.185-2.844z" fill="#fff" stroke="#263238" stroke-linecap="round" stroke-linejoin="round"/><path d="M104.792 152.675s-5.133-2.758-5.538-2.758c-.406 0-4.453 2.593-5.264 2.593-.811 0-1.217.659-.674 1.139.45.319.963.487 1.486.487 0 0-1.892 1.317-1.76 1.942.131.626 1.217 1.133 1.217 1.133.554 1.021 1.356 1.813 2.297 2.271 1.349.487 6.075-1.455 6.075-1.455l3.647-.329-1.486-5.023z" fill="#fff"/><path d="M99.243 152.727c-1.645.441-4.984 4.483-4.984 4.483.554 1.021 1.356 1.814 2.297 2.272 1.349.487 6.075-1.455 6.075-1.455l3.647-.329-1.486-5.023s-3.904-.389-5.55.052z" fill="#DD4D32"/><path opacity=".5" d="M99.243 152.727c-1.645.441-4.984 4.483-4.984 4.483.554 1.021 1.356 1.814 2.297 2.272 1.349.487 6.075-1.455 6.075-1.455l3.647-.329-1.486-5.023s-3.904-.389-5.55.052z" fill="#fff"/><path d="M104.792 152.675s-5.133-2.758-5.538-2.758c-.406 0-4.453 2.593-5.264 2.593-.811 0-1.217.659-.674 1.139.45.319.963.487 1.486.487 0 0-1.892 1.317-1.76 1.942.131.626 1.217 1.133 1.217 1.133.554 1.021 1.356 1.813 2.297 2.271 1.349.487 6.075-1.455 6.075-1.455l3.647-.329-1.486-5.023z" stroke="#263238" stroke-linecap="round" stroke-linejoin="round"/><path d="M117.079 145.703l-12.693 6.162.943 6.484s16.997-2.916 17.825-4.378c.828-1.461-2.297-9.729-2.297-9.729" fill="#DD4D32"/><path opacity=".26" d="M105.038 156.354l.291 1.975s16.997-2.916 17.825-4.378c.828-1.461-2.297-9.729-2.297-9.729l-1.815.704c1.047 2.633 1.645 4.951.916 5.773-1.36 1.514-10.489 4.345-14.92 5.655z" fill="#000"/><path d="M117.079 145.703l-12.693 6.162.943 6.484s16.997-2.916 17.825-4.378c.828-1.461-2.297-9.729-2.297-9.729" stroke="#263238" stroke-linecap="round" stroke-linejoin="round"/><path d="M78.226 143.511s2.534-11.751 3.34-18.235l-3.34 18.235z" fill="#fff"/><path d="M78.226 143.511s2.534-11.751 3.34-18.235" stroke="#263238" stroke-linecap="round" stroke-linejoin="round"/><path d="M89.4 177.256l3.642 3.647.608 14.588" stroke="#fff" stroke-linecap="round" stroke-linejoin="round"/><path d="M110.33 141.326l-3.586-7.9s-1.037-1.659 1.036-5.806" stroke="#263238" stroke-linecap="round" stroke-linejoin="round"/><path d="M96.331 80.926c-5.768-.935-8.882 3.739-7.95 5.266.231.435.585.756.998.902l.718-.158s5.297.191 4.99 2.245c-.307 2.054-3.433 2.251-2.194 3.95.327.432.696.816 1.097 1.145h-.18c.335.342.592.782.745 1.277.214.77-.96 7.169-1.174 7.683-.213.513-1.387-.132-2.878-1.409-.778-.726-1.694-1.209-2.665-1.409l-.104 1.152s1.491.514 1.705 1.534c.214 1.02-1.173 1.152-1.173 2.054 0 .902-.104 2.508.904 3.496 1.01.987 4.058-.567 4.058-.567s2.286-1.909 2.61-3.949c.258-1.672.45-4.609.685-6.07.339-.494.643-1.02.91-1.573 0 0 2.495-.75 1.717 2.245-.779 2.995-2.342 2.995-2.342 2.995 1.77 1.223 3.729 1.998 5.757 2.278v-.047s4.678-6.359 4.99-11.415c.313-5.055-5.456-10.69-11.224-11.625z" fill="#263238" stroke="#263238" stroke-linecap="round" stroke-linejoin="round"/><path d="M111.053 175.649h-9.233v16.379h9.233v-16.379z" fill="#fff" stroke="#263238" stroke-linecap="round" stroke-linejoin="round"/><path d="M110.642 189.803h-.981a.702.702 0 01-.539-.268 1.01 1.01 0 01-.224-.647c0-.243.08-.475.224-.647a.705.705 0 01.539-.268h.965c.382 0 .749-.183 1.019-.507a1.92 1.92 0 00.423-1.225v-3.949c0-.46-.152-.901-.423-1.227-.27-.326-.637-.509-1.019-.511h-1.24a.647.647 0 01-.31-.046.75.75 0 01-.27-.192.922.922 0 01-.182-.306 1.083 1.083 0 010-.736.922.922 0 01.182-.306.75.75 0 01.27-.192.647.647 0 01.31-.046h1.24c.389 0 .775.092 1.135.271.36.179.687.442.962.773.276.33.494.722.643 1.155.149.432.226.895.226 1.363v3.949c-.002.941-.312 1.843-.865 2.51-.552.667-1.301 1.045-2.085 1.052zM62.112 191.811h-25.09a.436.436 0 01-.269-.094.568.568 0 01-.181-.255l-6.964-18.986a.688.688 0 01.039-.558.543.543 0 01.177-.196.432.432 0 01.234-.069h25.09c.095 0 .188.035.267.098.079.063.14.152.178.258l6.946 19.018a.679.679 0 01-.047.523.535.535 0 01-.164.185.436.436 0 01-.216.076z" fill="#fff" stroke="#263238" stroke-linecap="round" stroke-linejoin="round"/><path d="M59.765 190.33H38.348a.375.375 0 01-.225-.081.495.495 0 01-.153-.215l-5.927-16.241a.586.586 0 01.03-.475.448.448 0 01.15-.167.369.369 0 01.198-.062h21.411a.38.38 0 01.229.084c.068.053.122.13.155.219l5.927 16.227a.59.59 0 01-.026.48.466.466 0 01-.152.17.365.365 0 01-.2.061z" fill="#263238" stroke="#263238" stroke-linecap="round" stroke-linejoin="round"/><path d="M36.67 192.035h37.696v-1.481H36.67v1.481z" fill="#fff" stroke="#263238" stroke-linecap="round" stroke-linejoin="round"/><path d="M36.67 192.035h18.275v-1.481H36.67v1.481z" fill="#fff" stroke="#263238" stroke-linecap="round" stroke-linejoin="round"/><path d="M2.396 155.189a6.88 6.88 0 002.407.323s-.367-1.317-.4-1.422c-.373-.941-1.563-2.502-2.528-2.344-.16.032-.312.104-.447.211s-.25.247-.337.412a1.563 1.563 0 00-.168.54c-.023.192-.013.388.031.575.123.393.315.75.564 1.044.25.295.549.521.878.661z" fill="#263238"/><path d="M2.983 161.134a6.788 6.788 0 002.374-.448c.247 1.05.555 2.077.92 3.075.21.586.44 1.165.67 1.738a8.788 8.788 0 00-.285-.487c-.549-.79-2.05-1.916-2.95-1.455a1.19 1.19 0 00-.388.344 1.481 1.481 0 00-.237.506 1.645 1.645 0 00.115 1.125c.204.341.468.624.773.83.305.206.644.329.993.361a6.335 6.335 0 002.302-.421c.094.217.181.441.275.658.444 1.06.888 2.107 1.294 3.16.148.369.28.737.41 1.106l-.246-.428c-.548-.79-2.056-1.909-2.955-1.455-.148.082-.28.2-.387.346a1.483 1.483 0 00-.235.505 1.656 1.656 0 00.112 1.124 2.6 2.6 0 00.777.812c.305.199.642.318.988.347a6.396 6.396 0 002.243-.402c.126.382.252.764.362 1.139.071.263.148.507.208.777l.181.777c.099.493.203 1.013.29 1.501.066.342.116.658.176.994a28.015 28.015 0 00-.46-1.139c-.461-.889-1.788-2.265-2.742-1.975-.156.051-.3.142-.425.266a1.365 1.365 0 00-.297.452 1.615 1.615 0 00-.03 1.125c.159.375.383.704.66.964.275.26.595.443.936.537.79.145 1.595.145 2.386 0 .087.546.175 1.073.246 1.573.252 1.738.411 3.193.51 4.214 0 .177.033.342.044.493H8.674l.356 8.321h6.421l.356-8.321h-2.741c0-.046.038-.098.06-.151.373-.935.894-2.278 1.453-3.95.181-.52.362-1.08.548-1.652.78.216 1.582.289 2.38.217.344-.061.673-.21.963-.439.291-.228.537-.53.72-.884a1.635 1.635 0 00.04-1.129 1.418 1.418 0 00-.268-.48 1.144 1.144 0 00-.408-.307c-.92-.369-2.33.889-2.845 1.731-.033.046-.313.659-.483 1.001.071-.237.148-.467.22-.711.148-.481.285-.968.427-1.488l.198-.777c.065-.256.11-.539.17-.809.126-.659.23-1.277.318-1.936a6.615 6.615 0 002.259.626c.35-.004.695-.098 1.012-.276.317-.179.598-.437.824-.758a1.54 1.54 0 00.189-.531c.03-.191.028-.388-.01-.577a1.518 1.518 0 00-.203-.523 1.248 1.248 0 00-.365-.377c-.866-.533-2.418.455-3.032 1.192-.038.046-.433.658-.641.961.049-.395.104-.79.148-1.192.115-1.158.208-2.337.301-3.508.033-.362.066-.718.093-1.08a6.908 6.908 0 002.336.658c.35-.001.696-.094 1.014-.273.317-.178.598-.438.823-.76.09-.158.15-.337.18-.524a1.642 1.642 0 00-.013-.566 1.51 1.51 0 00-.2-.513 1.243 1.243 0 00-.356-.372c-.861-.54-2.413.448-3.032 1.185a44.91 44.91 0 00-.746 1.126c.071-.79.148-1.574.247-2.344a28.17 28.17 0 01.548-3.087 7.092 7.092 0 002.347.658 2.1 2.1 0 001.012-.276c.317-.178.598-.437.824-.758.093-.159.156-.34.187-.531.03-.191.027-.387-.01-.577a1.54 1.54 0 00-.203-.522 1.272 1.272 0 00-.363-.378c-.866-.533-2.418.455-3.032 1.192-.05.059-.658.968-.757 1.145.016-.06.028-.122.039-.184a19.98 19.98 0 011.041-2.929c.22-.52.456-1.008.697-1.468a6.962 6.962 0 002.22.941c.348.044.7-.003 1.032-.138.331-.135.634-.356.887-.645.107-.147.187-.318.236-.503a1.656 1.656 0 00-.108-1.12 1.335 1.335 0 00-.325-.425c-.811-.658-2.445.132-3.125.784-.039.033-.378.441-.625.744.11-.205.22-.422.329-.619.405-.738.817-1.376 1.184-1.942l.592-.876a6.432 6.432 0 002.325-.395c.326-.153.621-.389.864-.692.242-.304.426-.667.54-1.065.038-.189.043-.385.014-.576a1.552 1.552 0 00-.182-.532 1.28 1.28 0 00-.346-.397 1.035 1.035 0 00-.451-.194c-.97-.125-2.117 1.468-2.473 2.416-.028.086-.384 1.442-.367 1.442-.187.25-.379.52-.587.816-.379.56-.8 1.198-1.223 1.922a26.2 26.2 0 00-1.267 2.429 19.994 19.994 0 00-1.096 2.93v-1.336c-.11-1.034-.834-2.956-1.788-3.167a.977.977 0 00-.482.034 1.096 1.096 0 00-.43.266 1.38 1.38 0 00-.3.455 1.614 1.614 0 00-.12.562c.016.418.106.829.266 1.201.16.373.386.7.66.958.677.53 1.417.933 2.194 1.198a29.438 29.438 0 00-.642 3.18c-.093.625-.17 1.257-.24 1.889v-.592c-.116-1.041-.834-2.956-1.794-3.173a.962.962 0 00-.482.033 1.093 1.093 0 00-.427.267c-.126.124-.228.28-.3.455a1.605 1.605 0 00-.118.561c.013.42.102.832.26 1.206.16.374.386.702.661.96a7.202 7.202 0 002.117 1.172c0 .243-.05.487-.071.731-.121 1.171-.23 2.343-.373 3.489-.05.401-.11.796-.165 1.191v-.513c-.11-1.041-.833-2.956-1.787-3.173a.965.965 0 00-.483.033 1.087 1.087 0 00-.429.267 1.375 1.375 0 00-.3.454 1.617 1.617 0 00-.12.562c.014.42.105.831.265 1.205.16.374.386.702.661.961a6.871 6.871 0 002.056 1.145c-.071.402-.142.81-.225 1.199-.065.256-.11.52-.18.776-.072.257-.143.514-.209.771-.148.48-.296.98-.45 1.448-.104.322-.208.658-.312.941a51.97 51.97 0 00.148-1.257 6.234 6.234 0 00-.603-2.633 1.572 1.572 0 00-.158-.847 1.305 1.305 0 00-.329-.419 1.056 1.056 0 00-.443-.223.974.974 0 00-.48.014c-.937.296-1.535 2.284-1.578 3.324 0 .06 0 .731.054 1.153a22.857 22.857 0 00-.142-.738c-.099-.493-.209-.994-.324-1.527-.065-.25-.131-.507-.197-.77-.06-.257-.148-.527-.225-.79-.186-.612-.4-1.218-.625-1.824a6.76 6.76 0 002.193-.981c.292-.232.537-.538.72-.896.183-.358.298-.76.339-1.177a1.636 1.636 0 00-.088-.567 1.43 1.43 0 00-.272-.475 1.15 1.15 0 00-.41-.3.989.989 0 00-.475-.074c-.965.125-1.804 1.975-1.98 3.002 0 .059-.07.81-.093 1.225-.142-.362-.28-.724-.427-1.093-.434-1.04-.9-2.087-1.36-3.127l-.417-.961a7.025 7.025 0 002.254-1.001c.29-.233.535-.539.717-.897.182-.358.296-.76.335-1.176a1.63 1.63 0 00-.074-.608 1.407 1.407 0 00-.288-.508 1.112 1.112 0 00-.443-.308.977.977 0 00-.51-.045c-.971.126-1.81 1.975-1.985 3.002 0 .073-.094 1.152-.105 1.429a53.055 53.055 0 01-.877-2.12 27.314 27.314 0 01-.948-2.942 7.322 7.322 0 002.264-1.008c.291-.232.537-.538.72-.896a3.29 3.29 0 00.338-1.177 1.615 1.615 0 00-.092-.553 1.409 1.409 0 00-.27-.463 1.14 1.14 0 00-.4-.295.962.962 0 00-.466-.078c-.97.125-1.81 1.975-1.985 3.001 0 .079-.098 1.238-.104 1.455l-.05-.177a21.517 21.517 0 01-.493-3.114 26.065 26.065 0 01-.093-1.679 6.773 6.773 0 002.286-.691c.31-.194.582-.466.796-.797.214-.333.365-.717.444-1.125a1.647 1.647 0 00-.034-.572 1.48 1.48 0 00-.224-.507 1.201 1.201 0 00-.376-.354 1.012 1.012 0 00-.463-.141c-.97 0-1.974 1.725-2.243 2.719 0 .053-.115.626-.18 1.04v-.737c0-.882.049-1.692.098-2.409 0-.409.06-.777.093-1.12a8.281 8.281 0 001.755-1.869c.2-.344.337-.735.4-1.148.062-.412.049-.836-.038-1.242a1.442 1.442 0 00-.251-.49 1.169 1.169 0 00-.396-.326.978.978 0 00-.938.033c-.866.54-1.096 2.633-.948 3.653 0 .093.334 1.455.35 1.442-.038.329-.076.658-.109 1.073-.06.718-.12 1.527-.137 2.416a28.45 28.45 0 00.055 2.864c.069 1.069.217 2.129.444 3.166v.033c-.154-.29-.603-1.08-.647-1.132-.548-.79-2.05-1.916-2.95-1.462-.148.081-.28.199-.388.345a1.476 1.476 0 00-.237.505 1.651 1.651 0 00-.043.578c.02.194.074.38.158.547.205.336.468.614.77.817.303.202.64.323.985.355zm9.655 15.293a8.298 8.298 0 001.941 1.5c-.175.514-.35 1.014-.548 1.475-.581 1.62-1.097 2.936-1.508 3.858-.077.184-.148.342-.214.494h-.066c0-.18-.021-.378-.065-.593a80.615 80.615 0 00-.593-4.239c-.087-.553-.197-1.139-.307-1.745.466-.218.92-.469 1.36-.75z" fill="#263238"/><path d="M19.678 155.643s.307-1.362.318-1.454c.121-1.034-.153-3.114-1.03-3.621a.986.986 0 00-.47-.121.987.987 0 00-.472.121c-.148.079-.28.195-.388.341-.108.145-.19.316-.238.502a3.462 3.462 0 00-.01 1.246c.071.412.217.8.426 1.137a8.678 8.678 0 001.864 1.849z" fill="#263238"/><path d="M4.567 192.035h204.704" stroke="#263238" stroke-width="2" stroke-linecap="round" stroke-linejoin="round"/></g><defs><clipPath id="clip0"><path fill="#fff" d="M0 0h210v210H0z"/></clipPath></defs></svg>