<svg width="20" height="20" viewBox="0 0 20 20" fill="none" xmlns="http://www.w3.org/2000/svg">
<path d="M18.0377 12.5079C17.1307 12.3886 16.2364 12.1659 15.3797 11.8469C14.5501 11.5359 13.6074 11.7366 12.9761 12.3596L11.9224 13.4109C9.71305 12.1082 7.86739 10.2662 6.56173 8.06125L7.61606 7.00926C8.23938 6.38028 8.44071 5.4386 8.12907 4.61095C7.80942 3.75564 7.58642 2.86329 7.46642 1.95494C7.30673 0.828924 6.33173 -0.00474634 5.19208 -0.000410411H2.27576C2.20775 -0.000410411 2.13975 0.0029099 2.07244 0.00892551C1.46674 0.0636129 0.91842 0.350605 0.528733 0.816619C0.139085 1.28295 -0.0456022 1.87295 0.00974931 2.48326C0.332757 5.51927 1.38275 8.47824 3.04443 11.0382C4.5531 13.4076 6.60544 15.4559 8.97708 16.9599C11.5324 18.6139 14.4834 19.6616 17.5177 19.9906C17.5864 19.9966 17.6554 19.9995 17.7247 19.9995C17.7247 19.9995 17.7287 19.9995 17.731 19.9995C18.9871 19.9942 20.0044 18.9702 19.9994 17.7179V14.8116C20.0257 13.6592 19.1844 12.6693 18.0377 12.5079ZM19.3327 14.7996C19.3327 14.8022 19.3327 14.8052 19.3327 14.8079V17.7196C19.336 18.6056 18.6164 19.3295 17.7287 19.3332C17.6767 19.3312 17.6267 19.3312 17.5827 19.3272C14.6581 19.0099 11.8074 17.9979 9.33641 16.3985C7.04442 14.9449 5.0631 12.9675 3.60509 10.6775C1.99873 8.20293 0.984748 5.34493 0.673068 2.41794C0.634397 1.9906 0.764748 1.57396 1.04041 1.24427C1.31608 0.914588 1.70373 0.711619 2.1324 0.672948C2.18006 0.668612 2.22775 0.666268 2.27572 0.666268H5.19505C5.2004 0.666268 5.20572 0.666268 5.21107 0.666268C6.00974 0.666268 6.69407 1.25795 6.80571 2.04525C6.93204 3.00025 7.16704 3.94224 7.5047 4.84524C7.72505 5.43056 7.5827 6.09591 7.14368 6.53891L5.90904 7.7709C5.80236 7.87723 5.78036 8.04125 5.8547 8.17192C7.26735 10.6519 9.3277 12.7079 11.812 14.1176C11.9427 14.1919 12.106 14.1692 12.212 14.0636L13.4453 12.8329C13.891 12.3933 14.5587 12.2516 15.146 12.4716C16.05 12.8083 16.9937 13.0433 17.9473 13.1686C18.7574 13.2826 19.353 13.9836 19.3327 14.7996Z" fill="white"/>
</svg>
