<svg width="20" height="20" fill="none" xmlns="http://www.w3.org/2000/svg"><path d="M18.038 12.508a12.181 12.181 0 01-2.658-.661 2.288 2.288 0 00-2.404.513l-1.054 1.05a15.211 15.211 0 01-5.36-5.349L7.616 7.01c.623-.629.825-1.57.513-2.398a12.132 12.132 0 01-.663-2.656A2.285 2.285 0 005.192 0H2.276A2.287 2.287 0 00.529.817a2.26 2.26 0 00-.52 1.666 19.597 19.597 0 003.035 8.555 19.393 19.393 0 005.933 5.922 19.695 19.695 0 008.54 3.03c.07.007.138.01.208.01h.006a2.278 2.278 0 002.268-2.282v-2.906a2.275 2.275 0 00-1.961-2.304zm1.295 2.292v2.92a1.611 1.611 0 01-1.604 1.613c-.052-.002-.102-.002-.146-.006a19.025 19.025 0 01-8.247-2.929 18.728 18.728 0 01-5.73-5.72 18.928 18.928 0 01-2.933-8.26 1.593 1.593 0 01.367-1.174A1.602 1.602 0 012.276.666H5.21c.799 0 1.483.592 1.595 1.38.126.954.361 1.896.699 2.8.22.585.078 1.25-.361 1.693L5.909 7.77a.333.333 0 00-.054.4 15.875 15.875 0 005.957 5.947c.13.074.294.051.4-.054l1.233-1.231a1.62 1.62 0 011.701-.361c.904.336 1.848.571 2.801.697.81.114 1.406.815 1.386 1.63z" fill="#fff"/></svg>