<svg width="30" height="30" viewBox="0 0 30 30" fill="none" xmlns="http://www.w3.org/2000/svg">
<g clip-path="url(#clip0)">
<path d="M15 7.24792e-05C6.7157 7.24792e-05 0 6.71578 0 15.0001C0 23.2844 6.7157 30.0001 15 30.0001C23.2843 30.0001 30 23.2844 30 15.0001C30 6.71578 23.2843 7.24792e-05 15 7.24792e-05ZM20.7226 7.63895L18.6479 7.63987C17.021 7.63987 16.7064 8.41296 16.7064 9.54728V12.0486H20.586L20.5841 15.9662H16.7067V26.0198H12.6602V15.9662H9.27744V12.0486H12.6602V9.15936C12.6602 5.80641 14.7087 3.98033 17.6995 3.98033L20.7229 3.98493V7.63895H20.7226Z" fill="white"/>
</g>
<defs>
<clipPath id="clip0">
<rect width="30" height="30" fill="white"/>
</clipPath>
</defs>
</svg>
