<svg width="30" height="30" fill="none" xmlns="http://www.w3.org/2000/svg"><g clip-path="url(#clip0)"><path d="M15 30c8.286 0 15-6.714 15-15S23.286 0 15 0 0 6.714 0 15s6.714 15 15 15zM6.864 14.675L21.326 9.1c.671-.243 1.258.164 1.04 1.179l.002-.002-2.463 11.602c-.183.822-.671 1.022-1.355.635l-3.75-2.764-1.809 1.742c-.2.2-.368.37-.756.37l.266-3.817 6.95-6.279c.303-.266-.067-.416-.466-.151l-8.589 5.407-3.702-1.155c-.804-.255-.822-.803.17-1.19z" fill="#fff"/></g><defs><clipPath id="clip0"><path fill="#fff" d="M0 0h30v30H0z"/></clipPath></defs></svg>