<svg width="28" height="29" viewBox="0 0 28 29" fill="none" xmlns="http://www.w3.org/2000/svg">
<path d="M13.9962 9.68681C11.4255 9.68681 9.32767 11.7847 9.32767 14.3555C9.32767 16.9262 11.4255 19.0241 13.9962 19.0241C16.5669 19.0241 18.6648 16.9262 18.6648 14.3555C18.6648 11.7847 16.5669 9.68681 13.9962 9.68681ZM27.9984 14.3555C27.9984 12.4222 28.0159 10.5064 27.9074 8.57656C27.7988 6.33505 27.2875 4.34571 25.6484 2.7066C24.0058 1.06399 22.02 0.556145 19.7785 0.447572C17.8453 0.338999 15.9295 0.356511 13.9997 0.356511C12.0665 0.356511 10.1507 0.338999 8.22094 0.447572C5.97947 0.556145 3.99016 1.06749 2.35109 2.7066C0.708507 4.34921 0.200673 6.33505 0.0921015 8.57656C-0.0164698 10.5099 0.00104174 12.4257 0.00104174 14.3555C0.00104174 16.2853 -0.0164698 18.2046 0.0921015 20.1344C0.200673 22.3759 0.712009 24.3652 2.35109 26.0043C3.99367 27.6469 5.97947 28.1548 8.22094 28.2634C10.1542 28.3719 12.07 28.3544 13.9997 28.3544C15.933 28.3544 17.8488 28.3719 19.7785 28.2634C22.02 28.1548 24.0093 27.6434 25.6484 26.0043C27.291 24.3617 27.7988 22.3759 27.9074 20.1344C28.0195 18.2046 27.9984 16.2888 27.9984 14.3555ZM13.9962 21.5388C10.0211 21.5388 6.81302 18.3307 6.81302 14.3555C6.81302 10.3803 10.0211 7.17211 13.9962 7.17211C17.9713 7.17211 21.1795 10.3803 21.1795 14.3555C21.1795 18.3307 17.9713 21.5388 13.9962 21.5388ZM21.4736 8.55555C20.5455 8.55555 19.796 7.80604 19.796 6.87792C19.796 5.94979 20.5455 5.20028 21.4736 5.20028C22.4018 5.20028 23.1513 5.94979 23.1513 6.87792C23.1515 7.0983 23.1083 7.31658 23.0241 7.52025C22.9399 7.72391 22.8163 7.90896 22.6605 8.0648C22.5047 8.22064 22.3196 8.3442 22.116 8.42841C21.9123 8.51262 21.694 8.55583 21.4736 8.55555Z" fill="#DD4D32"/>
</svg>
