<svg width="28" height="29" fill="none" xmlns="http://www.w3.org/2000/svg"><path d="M13.996 9.687a4.678 4.678 0 00-4.668 4.668 4.678 4.678 0 004.668 4.67 4.678 4.678 0 004.669-4.67 4.679 4.679 0 00-4.669-4.668zm14.002 4.668c0-1.933.018-3.849-.09-5.778-.11-2.242-.62-4.231-2.26-5.87-1.642-1.643-3.628-2.15-5.87-2.26C17.846.34 15.93.358 14 .358c-1.934 0-3.85-.018-5.78.09-2.24.11-4.23.62-5.869 2.26C.71 4.349.201 6.335.092 8.577c-.108 1.933-.091 3.849-.091 5.778 0 1.93-.017 3.85.091 5.78.109 2.24.62 4.23 2.26 5.87 1.642 1.642 3.627 2.15 5.869 2.258 1.933.109 3.849.091 5.779.091 1.933 0 3.849.018 5.779-.09 2.241-.11 4.23-.62 5.87-2.26 1.642-1.642 2.15-3.628 2.258-5.87.113-1.93.091-3.845.091-5.779zM13.996 21.54a7.173 7.173 0 01-7.183-7.184 7.173 7.173 0 017.183-7.183 7.173 7.173 0 017.184 7.183 7.173 7.173 0 01-7.184 7.184zm7.478-12.983c-.928 0-1.678-.75-1.678-1.678 0-.928.75-1.678 1.678-1.678a1.676 1.676 0 011.55 2.32 1.676 1.676 0 01-1.55 1.036z" fill="#DD4D32"/></svg>