<svg width="24" height="24" viewBox="0 0 24 24" fill="none" xmlns="http://www.w3.org/2000/svg">
<path d="M14.7706 6.94145C14.7705 6.39348 14.608 5.85783 14.3035 5.40225C13.999 4.94666 13.5663 4.59159 13.06 4.38194C12.5537 4.17229 11.9966 4.11748 11.4592 4.22443C10.9217 4.33138 10.4281 4.59529 10.0406 4.98279C9.65318 5.37029 9.38934 5.86398 9.28246 6.40143C9.17558 6.93888 9.23047 7.49596 9.44019 8.00221C9.64991 8.50846 10.005 8.94116 10.4607 9.24559C10.9163 9.55002 11.452 9.71251 11.9999 9.71251C12.7346 9.71162 13.4388 9.41937 13.9582 8.89988C14.4777 8.38039 14.7698 7.67608 14.7706 6.94145ZM9.8855 6.94145C9.88557 6.52327 10.0096 6.11451 10.242 5.76684C10.4744 5.41917 10.8047 5.14822 11.191 4.98824C11.5774 4.82826 12.0025 4.78644 12.4127 4.86807C12.8228 4.9497 13.1995 5.15111 13.4952 5.44683C13.7909 5.74255 13.9922 6.11931 14.0738 6.52946C14.1553 6.93961 14.1134 7.36473 13.9534 7.75107C13.7933 8.13741 13.5223 8.46762 13.1746 8.69994C12.8269 8.93226 12.4181 9.05626 11.9999 9.05626C11.4393 9.05562 10.9018 8.83259 10.5054 8.43611C10.109 8.03964 9.88604 7.5021 9.8855 6.94145Z" fill="white"/>
<path d="M23.124 22.7004L20.4491 15.6879C20.4254 15.6259 20.3834 15.5724 20.3286 15.5347C20.2739 15.497 20.209 15.4768 20.1425 15.4768H15.08C15.111 15.4264 15.1417 15.3774 15.1727 15.3268C17.1206 12.1018 18.1009 9.2807 18.0868 6.94295C18.0871 5.32858 17.446 3.78022 16.3047 2.63849C15.1633 1.49676 13.6152 0.855193 12.0008 0.85492C10.3865 0.854646 8.8381 1.49569 7.69637 2.63703C6.55464 3.77837 5.91307 5.32652 5.9128 6.94089C5.89874 9.2807 6.87899 12.1022 8.82692 15.3268C8.85786 15.378 8.88861 15.4269 8.91955 15.4768H3.85705C3.79059 15.4768 3.7257 15.497 3.67096 15.5347C3.61622 15.5724 3.57421 15.6259 3.55049 15.6879L0.875987 22.7004C0.85693 22.7501 0.850257 22.8037 0.856544 22.8565C0.862831 22.9094 0.881889 22.9599 0.912071 23.0037C0.942253 23.0476 0.982653 23.0834 1.02978 23.1081C1.0769 23.1328 1.12934 23.1457 1.18255 23.1456H22.8174C22.8706 23.1457 22.9231 23.1328 22.9702 23.1081C23.0173 23.0834 23.0577 23.0476 23.0879 23.0037C23.1181 22.9599 23.1371 22.9094 23.1434 22.8565C23.1497 22.8037 23.143 22.7501 23.124 22.7004ZM6.56924 6.94145C6.56936 6.22827 6.70995 5.52211 6.98299 4.86326C7.25602 4.20442 7.65615 3.60581 8.16053 3.1016C8.66491 2.5974 9.26366 2.19748 9.9226 1.92467C10.5815 1.65186 11.2877 1.51151 12.0009 1.51164C12.7141 1.51176 13.4203 1.65235 14.0791 1.92539C14.738 2.19842 15.3366 2.59855 15.8408 3.10293C16.345 3.60731 16.7449 4.20606 17.0177 4.865C17.2905 5.52393 17.4309 6.23015 17.4307 6.94332C17.4589 11.6042 13.1014 17.3528 12 18.7313C10.8986 17.3533 6.54092 11.6063 6.56924 6.94145ZM11.75 19.4625C11.7809 19.4987 11.8192 19.5278 11.8623 19.5478C11.9055 19.5677 11.9524 19.578 12 19.578C12.0475 19.578 12.0945 19.5677 12.1377 19.5478C12.1808 19.5278 12.2191 19.4987 12.2499 19.4625C13.1211 18.4012 13.9288 17.2894 14.6687 16.1327H19.9162L20.3362 17.2343L10.0817 20.8813L6.42655 16.1321H9.33092C10.0709 17.289 10.8787 18.4011 11.75 19.4625ZM10.0702 21.5813H10.0721L16.1897 19.4063L18.5625 22.4893H7.51874L10.0702 21.5813ZM4.08336 16.1321H5.59836L9.43124 21.1125L5.56067 22.4891H1.6588L4.08336 16.1321ZM19.3914 22.4893L16.8397 19.1739L20.571 17.847L22.3415 22.4893H19.3914Z" fill="white"/>
</svg>
