<svg width="25" height="25" viewBox="0 0 25 25" fill="none" xmlns="http://www.w3.org/2000/svg">
<g clip-path="url(#clip0)">
<path d="M15.8329 0C15.6029 0 15.4163 0.18667 15.4163 0.41665C15.4163 0.64663 15.6029 0.833299 15.8329 0.833299C20.4279 0.833299 24.1662 4.57162 24.1662 9.16663C24.1662 9.39661 24.3529 9.58328 24.5829 9.58328C24.8133 9.58328 24.9995 9.39661 24.9995 9.16663C24.9995 4.1121 20.8875 0 15.8329 0Z" fill="#DD4D32"/>
<path d="M15.8329 2.50001C15.6029 2.50001 15.4163 2.68668 15.4163 2.91666C15.4163 3.14664 15.6029 3.33331 15.8329 3.33331C19.0496 3.33331 21.6662 5.94995 21.6662 9.16664C21.6662 9.39662 21.8529 9.58329 22.0829 9.58329C22.3133 9.58329 22.4995 9.39662 22.4995 9.16664C22.4995 5.49087 19.5091 2.50001 15.8329 2.50001Z" fill="#DD4D32"/>
<path d="M15.8329 4.99999C15.6029 4.99999 15.4163 5.18666 15.4163 5.41664C15.4163 5.64662 15.6029 5.83329 15.8329 5.83329C17.6708 5.83329 19.1663 7.3287 19.1663 9.16663C19.1663 9.39661 19.3529 9.58328 19.5829 9.58328C19.8133 9.58328 19.9996 9.39661 19.9996 9.16663C19.9996 6.86918 18.1304 4.99999 15.8329 4.99999Z" fill="#DD4D32"/>
<path d="M22.5471 15.635C21.4134 15.4858 20.2955 15.2075 19.2246 14.8087C18.1876 14.42 17.0092 14.6708 16.22 15.4496L14.903 16.7637C12.1413 15.1354 9.83421 12.8329 8.20213 10.0767L9.52005 8.76168C10.2992 7.97546 10.5509 6.79836 10.1613 5.76379C9.76175 4.69465 9.48299 3.57922 9.33299 2.44378C9.13338 1.03626 7.91463 -0.00582611 6.49007 -0.000406202H2.84467C2.75966 -0.000406202 2.67465 0.00374418 2.59052 0.0112637C1.83339 0.0796229 1.14799 0.438362 0.660886 1.02088C0.173826 1.60379 -0.0570332 2.34129 0.0121561 3.10418C0.415915 6.89919 1.72841 10.5979 3.80551 13.7979C5.69135 16.7596 8.25677 19.32 11.2213 21.2C14.4155 23.2675 18.1042 24.5771 21.8971 24.9883C21.983 24.9958 22.0692 24.9995 22.1559 24.9995C22.1559 24.9995 22.1608 24.9995 22.1638 24.9995C23.7338 24.9929 25.0054 23.7129 24.9992 22.1474V18.5145C25.0321 17.0742 23.9804 15.8367 22.5471 15.635ZM24.1659 18.4996C24.1659 18.5029 24.1659 18.5066 24.1659 18.51V22.1495C24.17 23.2571 23.2705 24.162 22.1609 24.1666C22.0959 24.1641 22.0334 24.1641 21.9784 24.1591C18.3226 23.7624 14.7592 22.4974 11.6705 20.4983C8.8055 18.6812 6.32884 16.2095 4.50634 13.347C2.49838 10.2538 1.2309 6.68127 0.841305 3.02254C0.792965 2.48836 0.955904 1.96756 1.30048 1.55545C1.64506 1.14334 2.12963 0.889631 2.66547 0.841291C2.72504 0.835871 2.78466 0.832942 2.84462 0.832942H6.49379C6.50048 0.832942 6.50712 0.832942 6.5138 0.832942C7.51214 0.832942 8.36756 1.57254 8.50711 2.55667C8.66502 3.75042 8.95877 4.9279 9.38084 6.05666C9.65628 6.7883 9.47835 7.61999 8.92957 8.17375L7.38626 9.71373C7.25292 9.84664 7.22542 10.0517 7.31834 10.215C9.08416 13.315 11.6596 15.885 14.765 17.6471C14.9283 17.74 15.1325 17.7117 15.265 17.5796L16.8067 16.0413C17.3637 15.4917 18.1983 15.3146 18.9325 15.5896C20.0625 16.0104 21.242 16.3042 22.4341 16.4608C23.4467 16.6033 24.1913 17.4796 24.1659 18.4996Z" fill="#DD4D32"/>
<path d="M6.25008 1.66669H2.84466C2.80965 1.66669 2.77508 1.66835 2.74051 1.67168C2.31595 1.71001 2.05634 1.95083 1.93969 2.09042C1.84594 2.20248 1.63178 2.50834 1.66928 2.92836C1.8268 4.40629 2.11176 5.84418 2.51717 7.20252C2.57132 7.38294 2.73675 7.50003 2.91634 7.50003C2.95594 7.50003 2.99593 7.49461 3.03592 7.48255C3.25633 7.41673 3.38177 7.18465 3.3159 6.96424C2.92508 5.65507 2.65008 4.26757 2.49882 2.84716C2.48925 2.74135 2.55799 2.65009 2.57924 2.62426C2.61341 2.58344 2.68964 2.51303 2.84466 2.50009H6.24925C6.24969 2.50009 6.24969 2.50009 6.24969 2.50009C6.47967 2.50009 6.66634 2.31386 6.66634 2.08383C6.66673 1.85375 6.48006 1.66669 6.25008 1.66669Z" fill="#DD4D32"/>
<path d="M22.9162 18.3333C22.6862 18.3333 22.4995 18.52 22.4995 18.75L22.4991 22.1495C22.4995 22.2433 22.4637 22.3316 22.3983 22.3974C22.3328 22.4632 22.2462 22.4995 22.1637 22.4999L22.1254 22.4991C20.7016 22.3445 19.3258 22.0703 18.0362 21.6841C17.8166 21.6178 17.5837 21.7433 17.5175 21.9637C17.4512 22.1841 17.5766 22.4162 17.7971 22.4824C19.135 22.8833 20.5612 23.1674 22.0429 23.3283C22.0771 23.3316 22.1467 23.3333 22.1567 23.3333C22.4721 23.332 22.7679 23.2083 22.99 22.9845C23.2121 22.7604 23.3338 22.4629 23.3325 22.1479L23.3329 18.75C23.3329 18.52 23.1462 18.3333 22.9162 18.3333Z" fill="#DD4D32"/>
</g>
<defs>
<clipPath id="clip0">
<rect width="25" height="25" fill="white"/>
</clipPath>
</defs>
</svg>
