<svg width="95" height="93" viewBox="0 0 95 93" fill="none" xmlns="http://www.w3.org/2000/svg">
<path d="M86.9524 55.7228L66.9617 35.9943C66.3382 35.4123 65.3634 35.4123 64.7407 35.9943L55.8551 44.7623C55.2423 45.3677 55.2423 46.3486 55.8551 46.9541L56.9656 48.05L53.9653 51.0107L51.5595 51.483L46.9702 46.9541C46.6757 46.6634 46.2761 46.5 45.8597 46.5H39.847L36.9741 43.6664C37.5876 43.0616 37.5876 42.08 36.9741 41.4746L28.0908 32.7051C27.7955 32.4137 27.3959 32.2502 26.9795 32.2502C26.5623 32.2502 26.1627 32.4137 25.8682 32.7051L8.09773 50.2418C7.48419 50.8472 7.48419 51.8281 8.09773 52.4335L16.9826 61.2015C17.5961 61.807 18.5901 61.807 19.2036 61.2015L29.4022 71.2659C28.7166 72.663 28.7894 74.3061 29.5947 75.6389C30.3992 76.9717 31.8295 77.8163 33.401 77.8859C33.5014 80.2669 35.4364 82.1727 37.8491 82.268C37.9519 84.6422 39.8792 86.5434 42.2843 86.6448C42.3832 88.4718 43.5604 90.0702 45.2906 90.7279C47.0201 91.3849 48.9803 90.9785 50.2948 89.6888L51.9644 91.3364C53.2751 92.6465 55.2469 93.0666 56.9886 92.4074C58.7295 91.7474 59.9098 90.1331 59.9957 88.294C62.4054 88.1963 64.3357 86.2906 64.4339 83.9126C66.8451 83.812 68.777 81.9063 68.879 79.5275C70.7357 79.4397 72.3647 78.2787 73.0327 76.5675C73.7007 74.8556 73.2819 72.9166 71.9651 71.6224L70.304 69.9823L74.7422 65.5927L75.8527 66.6901C76.4662 67.2955 77.4602 67.2955 78.0737 66.6901L86.9593 57.9221C87.5721 57.3167 87.5721 56.3358 86.9593 55.7303L86.9524 55.7228ZM57.5216 61.7502C58.1351 62.3557 58.1351 63.3365 57.5216 63.942C56.9011 64.5301 55.921 64.5301 55.3006 63.942L48.6367 57.3674C48.0232 56.7619 47.0285 56.7619 46.4157 57.3674C44.5751 59.1845 41.5902 59.1845 39.7496 57.3674L37.5347 59.5584C38.1053 60.1109 38.7579 60.5741 39.4697 60.9321L31.4269 68.8743L25.8682 63.3948L39.847 49.6H45.2093L57.5216 61.7502ZM18.0977 57.9138L11.4285 51.3376L26.9787 35.9928L33.6425 42.5689L18.0977 57.9138ZM34.7577 45.8582L36.9756 48.05L23.6456 61.2015L21.4246 59.0097L34.7577 45.8582ZM46.9587 87.9473C46.5469 87.9488 46.1511 87.7891 45.8597 87.5023C45.2561 86.9044 45.2485 85.9394 45.8421 85.3325L45.8597 85.315L49.0869 82.1295L50.2979 80.9375L48.0807 78.7397L46.8659 79.9385L43.6256 83.1232L43.6118 83.1407C42.986 83.6909 42.0335 83.6598 41.446 83.0695C40.8586 82.4799 40.844 81.5392 41.413 80.9314L45.8597 76.5463L43.6387 74.3553L39.1966 78.7397C38.5831 79.3459 37.5884 79.3459 36.9748 78.7404C36.3613 78.1357 36.3605 77.1541 36.9741 76.5486L41.4176 72.165L39.1966 69.9732L34.7515 74.3568C34.1311 74.9426 33.1532 74.9426 32.532 74.3568C31.9193 73.7513 31.9193 72.7705 32.532 72.165L43.032 61.7986C44.5889 61.8213 46.1174 61.3846 47.4204 60.5446L53.0841 66.1338C54.9493 67.8904 57.8836 67.8904 59.7487 66.1338C61.5886 64.3181 61.5886 61.3748 59.7487 59.5584L54.2361 54.1183L68.0829 67.7814L67.6113 68.2461C66.2431 67.8722 64.7767 68.1349 63.6286 68.9583C62.4798 69.7825 61.775 71.0782 61.7136 72.4776C59.2878 72.579 57.3506 74.5082 57.27 76.9036C54.8596 76.9626 52.9139 78.8653 52.8318 81.2433C51.4153 81.3031 50.1039 81.9963 49.2679 83.1263C48.4327 84.2562 48.1643 85.7003 48.5393 87.0497L48.0677 87.5144C47.7709 87.7982 47.3721 87.9541 46.9587 87.9473ZM56.4111 89.1514C55.7906 89.738 54.8113 89.738 54.1901 89.1514L51.9675 86.9551C51.4184 86.3413 51.4475 85.4119 52.0335 84.8329C52.6202 84.254 53.5619 84.2244 54.1839 84.7663L56.4111 86.9551C56.7071 87.2442 56.8728 87.6385 56.8712 88.0495C56.8728 88.4627 56.7071 88.8593 56.4111 89.1514ZM60.8531 84.7663C60.2396 85.3718 59.2456 85.3718 58.6321 84.7663L56.4111 82.5745C56.1166 82.2839 55.9502 81.8896 55.9502 81.4779C55.9502 81.0669 56.1166 80.6719 56.4111 80.3812C56.704 80.0891 57.1036 79.9256 57.5201 79.9271C57.9365 79.9271 58.3361 80.0906 58.6306 80.3812L60.8516 82.573C61.1469 82.8637 61.3125 83.258 61.3125 83.6697C61.3133 84.0806 61.1476 84.4757 60.8531 84.7663ZM65.2936 80.3812C64.6724 80.967 63.6946 80.967 63.0741 80.3812L60.8531 78.1894C60.258 77.5817 60.2664 76.6145 60.8723 76.0166C61.4782 75.4187 62.4575 75.4103 63.0741 75.9976L65.2952 78.1894C65.5897 78.4801 65.7553 78.8744 65.7553 79.2853C65.7569 79.6971 65.5904 80.0921 65.2936 80.3812ZM69.738 75.9976C69.4435 76.289 69.0439 76.4525 68.6267 76.4525C68.2103 76.4525 67.8107 76.289 67.5154 75.9976L65.2952 73.8066C64.6801 73.2004 64.6793 72.218 65.2936 71.6118C65.9072 71.0048 66.9026 71.004 67.5177 71.6103L69.7334 73.8066C70.3469 74.4113 70.3469 75.3929 69.7334 75.9976H69.738ZM70.294 65.5851L56.9671 52.4335L59.1866 50.2418L72.515 63.3948L70.294 65.5851ZM76.9586 63.3948L59.1866 45.8582L65.8512 39.2813L83.6217 56.8187L76.9586 63.3948Z" fill="#DD4D32"/>
<path d="M17.5877 88.35V63.55H14.4464V88.35C14.4464 90.918 16.5555 93 19.1584 93H39.5771V89.9H19.1584C18.291 89.9 17.5877 89.206 17.5877 88.35Z" fill="#DD4D32"/>
<path d="M77.2731 88.35C77.2731 89.206 76.5698 89.9 75.7024 89.9H63.1371V93H75.7024C78.3046 93 80.4144 90.9179 80.4144 88.35V69.75H77.2731V88.35Z" fill="#DD4D32"/>
<path d="M17.5877 4.65C17.5877 3.79402 18.291 3.1 19.1584 3.1H63.1371V13.95C63.1371 16.5179 65.2461 18.6 67.8491 18.6H77.2731V43.4H80.4144V17.0962C80.4144 16.714 80.271 16.3454 80.0118 16.0608L65.8758 0.514648C65.5782 0.186939 65.1533 0 64.7077 0H19.1584C16.5555 0 14.4464 2.08206 14.4464 4.65V37.2H17.5877V4.65ZM66.2784 13.95V5.60361L75.2814 15.5H67.8491C66.9817 15.5 66.2784 14.806 66.2784 13.95Z" fill="#DD4D32"/>
<path d="M23.8704 9.30005H27.0117V12.4H23.8704V9.30005Z" fill="#DD4D32"/>
<path d="M30.1531 9.30005H42.7184V12.4H30.1531V9.30005Z" fill="#DD4D32"/>
<path d="M23.8704 15.5H42.7184V18.6H23.8704V15.5Z" fill="#DD4D32"/>
<path d="M23.8704 24.8H30.153V27.9H23.8704V24.8Z" fill="#DD4D32"/>
<path d="M33.2944 24.8H70.9904V27.9H33.2944V24.8Z" fill="#DD4D32"/>
<path d="M36.4358 34.1001H59.9958V37.2001H36.4358V34.1001Z" fill="#DD4D32"/>
</svg>
