<svg width="28" height="29" viewBox="0 0 28 29" fill="none" xmlns="http://www.w3.org/2000/svg">
<path fill-rule="evenodd" clip-rule="evenodd" d="M2.95475 3.23359C5.80303 0.756751 10.8948 0.388083 13.2611 0.357749C14.0504 0.347249 14.5372 0.376416 14.5372 0.376416C21.1385 0.399749 24.0888 2.44142 24.8263 3.08309L24.8386 3.08542C27.2726 5.0921 28.6248 9.52544 27.7152 16.5616C26.9084 22.7735 22.3415 23.8667 20.8137 24.2324C20.6655 24.2679 20.5459 24.2965 20.4611 24.3223C20.0432 24.4507 16.4167 25.3128 11.684 24.9395L9.96295 26.7828C9.80373 26.944 9.65551 27.1034 9.51424 27.2554C8.83746 27.9832 8.32009 28.5396 7.51666 28.2983C6.72991 28.065 6.77663 26.9333 6.77663 26.9333V24.11C-0.144292 22.2538 -0.0582419 15.4405 0.0155157 11.8121C0.101566 8.16977 0.840371 5.2286 2.95475 3.23359ZM13.7684 5.02215C13.72 5.02215 13.6721 5.03127 13.6274 5.04836C13.6049 5.05747 13.5834 5.06829 13.5633 5.0814C13.5433 5.09393 13.5247 5.10817 13.5077 5.12412C13.4734 5.15659 13.4462 5.19476 13.4277 5.23748C13.4203 5.254 13.4144 5.27166 13.4099 5.28932C13.4031 5.3161 13.3996 5.34344 13.3996 5.37135C13.3996 5.41123 13.4067 5.44997 13.4203 5.487C13.4384 5.53599 13.468 5.58099 13.5076 5.61859C13.5768 5.6841 13.6706 5.72113 13.7684 5.72113C14.6823 5.70461 15.5906 5.86013 16.4409 6.17857C17.2912 6.49701 18.0666 6.97154 18.7224 7.57595C20.0624 8.81269 20.7151 10.4693 20.7397 12.6397C20.7397 12.6853 20.7493 12.7308 20.7678 12.7736C20.7863 12.8157 20.8135 12.8545 20.8477 12.8869C20.882 12.9194 20.9226 12.945 20.9674 12.9627C21.0121 12.9803 21.0601 12.9895 21.1085 12.9895V12.9792C21.2063 12.9792 21.3001 12.9422 21.3693 12.8767C21.4384 12.8106 21.4773 12.7217 21.4773 12.6289C21.5229 11.6086 21.3491 10.59 20.9666 9.63528C20.5841 8.68053 20.0008 7.80951 19.2523 7.07579C17.7894 5.72227 15.9442 5.02215 13.7684 5.02215ZM8.90776 5.82708C8.64634 5.79177 8.38 5.84133 8.15174 5.96722H8.137C7.63298 6.2475 7.16832 6.59727 6.72577 7.06382C6.39386 7.43752 6.20824 7.80951 6.15907 8.17125C6.13015 8.38316 6.15114 8.59907 6.22052 8.80244L6.24511 8.81383C6.62401 9.87112 7.11843 10.888 7.72026 11.8473C8.50039 13.1911 9.45886 14.4347 10.5722 15.5467L10.6091 15.5934L10.6583 15.6287L10.6951 15.6635L10.732 15.6988C11.9087 16.7578 13.2223 17.671 14.6412 18.4166C16.2639 19.2569 17.2497 19.6534 17.8398 19.8169V19.8283C18.0119 19.875 18.1693 19.8983 18.3291 19.8983C18.8327 19.8636 19.3096 19.6699 19.6838 19.348C20.1632 18.9396 20.5443 18.4867 20.827 18.0088V17.9968C21.1097 17.4949 21.0114 17.0158 20.6057 16.6889C19.7882 16.0104 18.903 15.4083 17.9627 14.8921C17.3358 14.5657 16.6966 14.764 16.4384 15.0904L15.8852 15.7546C15.6025 16.081 15.0862 16.0343 15.0862 16.0343L15.0714 16.0463C11.236 15.1126 10.2157 11.4274 10.2157 11.4274C10.2157 11.4274 10.1666 10.9256 10.523 10.6692L11.2115 10.144C11.5434 9.88708 11.7769 9.28038 11.4204 8.68566C10.8773 7.79299 10.2432 6.95274 9.52732 6.17743C9.37162 5.994 9.15178 5.86981 8.90776 5.82708ZM14.146 6.96926C14.2149 6.90318 14.3086 6.86615 14.4064 6.86558L14.4301 6.86501L14.458 6.86558C16.0561 6.9704 17.31 7.49563 18.2074 8.42874C19.1047 9.36242 19.5596 10.5291 19.5227 11.9174C19.5228 11.9407 19.5204 11.9635 19.5157 11.9863C19.5111 12.0085 19.5041 12.0307 19.495 12.0518C19.4848 12.0752 19.472 12.0974 19.4568 12.1179C19.4444 12.135 19.4305 12.1509 19.4151 12.1657C19.3947 12.1851 19.3721 12.2022 19.3476 12.2159C19.331 12.2255 19.3135 12.2341 19.2953 12.2415C19.2505 12.2592 19.2025 12.2683 19.1539 12.2683L19.1416 12.2546C19.0909 12.2546 19.0413 12.2443 18.9957 12.2255C18.9534 12.2085 18.9145 12.184 18.8813 12.1526C18.8122 12.0871 18.7732 11.9982 18.7728 11.9054C18.8089 11.3608 18.7295 10.8151 18.5395 10.3001C18.3495 9.78511 18.0526 9.31172 17.6665 8.90725C16.8106 8.06814 15.6391 7.58564 14.4089 7.5657C14.311 7.5657 14.2171 7.52924 14.1477 7.46373C14.0783 7.39879 14.0392 7.30935 14.0388 7.21706C14.0385 7.12421 14.0771 7.03477 14.146 6.96926ZM15.0087 8.75458C14.9594 8.75288 14.9103 8.76085 14.8642 8.77737C14.8423 8.78535 14.8213 8.7956 14.8014 8.80699C14.7794 8.8201 14.7588 8.83491 14.7399 8.85143C14.704 8.88333 14.6752 8.92207 14.655 8.96479C14.6465 8.98245 14.6396 9.00125 14.6344 9.02005C14.6271 9.04625 14.623 9.07303 14.6221 9.10037C14.6207 9.14708 14.629 9.1938 14.6465 9.23766C14.664 9.28152 14.6905 9.3214 14.7243 9.35558C14.7582 9.38976 14.7987 9.4171 14.8437 9.4359L14.8857 9.45128C14.9183 9.46097 14.9523 9.46666 14.9866 9.46723C16.2036 9.52591 16.7937 10.1092 16.8674 11.3107C16.869 11.3551 16.8795 11.3984 16.8979 11.4383C16.917 11.4799 16.9447 11.518 16.9797 11.5505C17.0485 11.6137 17.1405 11.649 17.2362 11.649H17.2485C17.298 11.6473 17.3468 11.6365 17.3917 11.6171C17.4367 11.5972 17.477 11.5693 17.5103 11.534C17.5436 11.4992 17.5691 11.4582 17.5854 11.4143C17.6017 11.3699 17.6083 11.3226 17.605 11.2759C17.519 9.71219 16.6216 8.83605 15.0235 8.75458H15.0087Z" fill="#DD4D32"/>
</svg>
